{"glyphs":{"0":{"ha":595,"x_min":22,"x_max":597,"o":"m 339 740 q 246 657 287 706 q 177 551 205 608 q 135 431 149 493 q 120 308 120 368 q 134 192 119 247 q 179 93 149 136 q 239 50 207 55 q 303 63 271 44 q 366 119 335 81 q 422 207 397 157 q 467 312 448 256 q 493 422 486 368 q 495 525 500 477 q 468 608 490 574 q 406 657 446 642 q 302 660 366 672 q 301 665 296 659 q 319 682 307 671 q 350 705 332 692 q 388 726 368 717 q 428 740 408 735 q 463 740 447 745 q 549 684 519 722 q 588 596 579 646 q 588 487 597 546 q 555 369 578 429 q 497 250 532 309 q 421 143 463 192 q 336 58 380 94 q 248 4 292 21 q 164 -5 204 -12 q 93 38 124 1 q 38 150 53 85 q 28 286 22 215 q 59 428 34 356 q 125 562 84 500 q 220 671 165 624 q 339 740 275 718 z "},"1":{"ha":360,"x_min":31,"x_max":347,"o":"m 347 755 q 318 594 332 671 q 305 527 312 562 q 292 460 298 492 q 278 401 285 429 q 266 353 272 373 q 250 296 260 326 q 230 237 241 266 q 207 181 219 208 q 184 133 195 155 q 164 96 174 111 q 149 75 155 81 q 167 73 151 75 q 205 70 184 71 q 249 69 227 68 q 285 75 271 70 q 252 49 269 63 q 217 22 235 35 q 177 2 198 10 q 130 -6 155 -6 l 31 -6 q 71 55 51 18 q 107 132 87 85 q 142 241 126 178 q 152 286 147 260 q 163 342 157 313 q 174 405 169 372 q 185 468 180 437 q 210 619 197 540 l 142 650 l 347 755 z "},"2":{"ha":616,"x_min":-16,"x_max":663,"o":"m 653 136 q 662 109 663 125 q 653 74 662 92 q 628 39 644 56 q 588 8 612 22 q 536 -14 565 -6 q 473 -20 507 -22 q 399 -10 433 -18 q 334 8 365 -3 q 273 33 302 20 q 212 60 243 46 q 154 25 182 39 q 99 5 125 11 q 50 3 73 -1 q 8 23 26 7 q -13 56 -9 37 q -7 93 -16 75 q 22 126 1 111 q 76 148 43 141 q 152 149 109 154 q 250 122 196 144 q 297 185 273 149 q 343 262 321 221 q 384 347 366 303 q 415 433 403 391 q 432 514 427 475 q 430 581 436 552 q 402 631 424 612 q 352 657 381 650 q 287 658 322 664 q 219 634 252 652 q 156 583 185 615 q 108 507 126 551 q 112 549 104 525 q 137 600 120 574 q 178 651 153 626 q 232 696 202 676 q 295 729 262 717 q 364 743 329 742 q 435 731 399 744 q 505 687 471 718 q 546 614 537 657 q 544 520 554 571 q 508 414 534 470 q 446 305 482 359 q 366 200 410 251 q 275 110 321 150 q 284 106 280 110 q 294 98 289 102 q 431 40 374 59 q 524 16 488 20 q 579 19 561 11 q 602 41 598 26 q 598 76 606 56 q 573 117 590 96 q 579 127 568 121 q 606 138 590 134 q 636 142 621 142 q 653 136 650 142 m 195 73 q 170 83 181 78 q 144 98 159 89 q 68 117 97 118 q 30 104 40 115 q 26 76 20 92 q 54 50 33 60 q 111 43 75 41 q 195 73 146 46 z "},"3":{"ha":517,"x_min":-64,"x_max":577,"o":"m 62 564 q 72 600 63 581 q 96 638 81 619 q 131 675 111 658 q 172 706 150 693 q 217 728 194 720 q 264 736 241 736 q 337 731 298 736 q 416 724 376 727 q 497 723 456 722 q 577 736 538 724 q 490 652 533 692 q 407 575 447 612 q 333 507 368 539 q 270 448 298 475 q 394 408 349 436 q 453 341 438 380 q 458 257 469 303 q 417 164 448 212 q 339 73 387 117 q 234 -9 292 28 q 110 -71 176 -45 q -24 -104 43 -96 q -51 -106 -42 -106 q -61 -102 -59 -105 q -61 -95 -64 -99 q -53 -85 -58 -90 q -12 -56 -41 -73 q 133 -28 69 -50 q 243 26 197 -6 q 317 98 290 59 q 354 178 345 138 q 354 257 363 218 q 316 326 345 296 q 239 376 287 357 q 123 398 191 396 q 146 414 130 401 q 185 444 163 427 q 234 484 208 462 q 287 528 260 505 q 423 644 349 580 q 397 642 416 642 q 351 641 381 641 q 270 644 321 641 q 190 643 222 646 q 136 631 158 640 q 97 606 113 622 q 62 564 80 589 z "},"4":{"ha":656,"x_min":-1,"x_max":710,"o":"m 710 414 q 672 347 699 375 q 607 299 645 318 q 523 269 570 280 q 426 254 477 258 q 413 159 418 203 q 404 82 408 115 q 395 12 399 44 l 283 -25 q 304 47 294 7 q 322 129 313 81 q 339 235 332 176 q 345 238 343 235 q 345 241 345 239 q 244 238 294 239 q 149 237 194 238 q 65 235 104 237 q -1 229 27 234 q 41 284 16 251 q 99 357 67 317 q 167 441 131 397 q 239 530 203 486 q 309 615 275 574 q 371 691 342 656 q 420 750 399 725 q 450 785 441 774 q 433 744 448 770 q 395 687 418 719 q 344 617 372 654 q 285 543 315 581 q 225 469 255 505 q 172 401 196 432 q 132 346 148 370 q 111 309 115 322 q 142 308 119 309 q 196 307 164 307 q 268 307 228 307 q 352 309 308 307 q 362 387 357 347 q 373 465 368 427 q 382 537 378 503 q 389 593 387 570 q 410 640 391 616 q 452 682 430 663 q 512 724 479 704 q 482 593 496 659 q 470 533 476 564 q 457 470 463 502 q 447 407 452 438 q 438 346 441 375 q 432 333 433 341 q 431 315 431 325 q 518 327 475 320 q 598 346 562 334 q 665 375 635 358 q 710 414 694 391 z "},"5":{"ha":532,"x_min":-24,"x_max":575,"o":"m 575 791 q 522 704 552 736 q 457 655 491 672 q 388 633 423 637 q 318 629 352 628 q 256 633 285 629 q 205 637 227 637 q 196 624 201 637 q 185 592 191 611 q 175 550 180 572 q 166 508 170 528 q 163 476 163 489 q 168 463 163 463 q 295 458 241 467 q 383 431 348 449 q 436 387 418 413 q 458 332 454 361 q 453 271 462 302 q 426 208 445 239 q 381 149 408 177 q 322 99 355 121 q 202 22 255 50 q 109 -19 150 -5 q 36 -34 67 -32 q -18 -31 5 -35 q -17 -17 -24 -31 q 3 11 -10 -4 q 32 37 17 26 q 57 43 47 48 q 107 34 77 33 q 171 47 138 36 q 238 78 205 58 q 299 123 272 98 q 342 179 326 149 q 359 241 359 209 q 346 309 359 281 q 311 354 332 336 q 263 381 290 372 q 210 396 236 391 q 161 401 184 400 q 124 401 138 401 q 108 426 111 401 q 112 488 106 451 q 129 568 117 525 q 156 649 141 612 q 187 710 171 686 q 217 735 203 735 q 290 732 256 735 q 355 726 324 729 q 415 724 387 724 q 470 730 444 724 q 523 750 497 736 q 575 791 549 764 z "},"6":{"ha":509,"x_min":18,"x_max":544,"o":"m 467 823 q 400 801 434 822 q 334 746 367 781 q 272 666 302 711 q 216 569 241 621 q 171 463 191 517 q 141 357 152 409 q 201 410 167 386 q 272 451 235 435 q 344 473 308 467 q 410 471 380 479 q 462 438 440 463 q 491 369 484 413 q 489 283 500 328 q 453 196 478 238 q 392 116 428 153 q 315 51 356 79 q 233 8 275 23 q 153 -4 191 -7 q 87 21 116 -2 q 43 92 58 44 q 19 241 18 167 q 41 386 20 315 q 99 520 62 456 q 180 641 136 585 q 274 742 225 696 q 369 820 323 787 q 453 869 414 852 q 516 884 492 886 q 540 873 536 882 q 535 854 544 864 q 508 834 526 844 q 467 823 490 825 m 258 80 q 332 99 302 80 q 379 149 362 119 q 399 215 395 179 q 394 286 403 252 q 365 347 386 319 q 311 386 344 374 q 235 389 279 397 q 135 345 191 381 q 126 241 125 289 q 141 157 127 193 q 184 101 155 121 q 258 80 212 80 z "},"7":{"ha":492,"x_min":17,"x_max":539,"o":"m 18 548 q 33 616 18 583 q 71 677 47 650 q 127 722 95 705 q 197 739 160 739 q 260 738 224 739 q 334 735 296 736 q 410 733 372 734 q 480 732 448 732 q 494 743 487 736 q 506 756 500 749 q 516 768 512 762 q 523 775 521 773 q 536 776 532 778 q 536 767 539 774 q 517 745 532 760 q 495 718 511 739 q 455 664 479 697 q 403 587 432 631 q 343 493 374 544 q 281 384 313 441 q 222 266 250 326 q 170 142 193 205 q 130 19 146 80 q 102 -31 120 -11 q 65 -60 83 -50 q 32 -70 46 -70 q 18 -61 18 -71 q 33 -1 17 -41 q 74 93 48 40 q 134 208 100 146 q 203 332 168 270 q 393 646 286 475 l 203 646 q 125 643 155 648 q 77 625 96 637 q 45 592 58 612 q 18 548 33 573 z "},"8":{"ha":556,"x_min":-17,"x_max":566,"o":"m 559 684 q 539 631 554 657 q 505 582 524 606 q 466 539 486 559 q 428 505 445 519 q 402 480 412 490 q 395 470 392 471 q 463 410 433 439 q 505 346 492 380 q 508 270 517 311 q 458 174 498 229 q 383 97 425 131 q 295 38 341 62 q 204 1 250 14 q 118 -13 158 -12 q 47 -2 78 -14 q -1 36 16 10 q -15 103 -17 62 q 12 200 -14 144 q 52 266 29 237 q 99 317 75 295 q 146 357 123 340 q 190 388 170 374 q 222 414 209 401 q 239 439 235 426 q 230 456 240 442 q 207 493 220 471 q 180 543 193 515 q 162 603 168 571 q 164 667 157 634 q 197 733 171 701 q 273 794 223 765 q 402 847 322 823 q 339 809 368 831 q 290 759 310 786 q 262 699 271 731 q 261 634 254 667 q 291 565 267 600 q 358 495 314 530 q 374 505 360 495 q 403 528 387 514 q 433 558 419 542 q 452 589 448 575 q 462 614 457 599 q 469 649 467 630 q 468 687 471 667 q 455 722 465 706 q 424 750 444 739 q 371 765 404 762 q 361 771 361 765 q 368 784 361 777 q 389 799 375 792 q 421 809 402 806 q 474 807 447 812 q 523 789 502 803 q 555 749 544 774 q 559 684 566 724 m 308 93 q 371 137 350 113 q 398 187 393 161 q 396 239 404 213 q 375 290 389 266 q 341 336 360 315 q 306 373 323 357 q 275 398 288 389 q 258 407 261 407 q 228 391 250 407 q 179 350 206 375 q 125 293 152 324 q 81 231 98 262 q 72 193 73 217 q 77 145 71 170 q 100 98 84 120 q 144 66 117 77 q 213 60 172 56 q 308 93 253 64 z "},"9":{"ha":517,"x_min":-120,"x_max":515,"o":"m 489 650 q 509 498 515 575 q 474 348 503 422 q 399 205 445 274 q 298 75 353 136 q 184 -35 243 15 q 72 -120 125 -85 q -25 -175 18 -156 q -94 -193 -69 -194 q -117 -178 -115 -191 q -110 -150 -120 -165 q -81 -121 -100 -134 q -39 -106 -62 -108 q 65 -75 16 -98 q 157 -16 114 -51 q 235 64 199 20 q 300 157 271 109 q 350 258 329 206 q 383 359 371 309 q 316 300 353 325 q 240 263 279 276 q 165 249 202 250 q 97 261 128 248 q 43 301 66 273 q 12 372 21 328 q 14 458 2 413 q 53 546 26 503 q 118 626 79 589 q 199 692 156 664 q 287 735 242 720 q 371 748 331 751 q 441 722 410 745 q 489 650 473 699 m 248 663 q 176 643 204 663 q 132 593 147 623 q 115 525 117 562 q 123 453 113 488 q 156 389 134 418 q 212 347 178 360 q 291 338 246 333 q 390 378 335 344 q 400 487 401 435 q 381 578 398 539 q 331 640 364 617 q 248 663 298 663 z "}," ":{"ha":461,"x_min":0,"x_max":0,"o":""},"!":{"ha":351,"x_min":111,"x_max":454,"o":"m 111 86 l 216 168 l 296 58 l 191 -17 l 111 86 m 216 262 l 275 801 l 316 1004 l 454 1029 l 409 801 l 254 275 l 216 262 z "},"\"":{"ha":519,"x_min":268,"x_max":636,"o":"m 314 736 l 268 1071 l 401 1071 l 356 736 l 314 736 m 548 736 l 502 1071 l 636 1071 l 590 736 l 548 736 z "},"#":{"ha":878,"x_min":114,"x_max":964,"o":"m 132 0 l 278 309 l 114 309 l 123 376 l 309 376 l 428 627 l 177 627 l 186 694 l 459 694 l 605 1004 l 681 1004 l 535 694 l 724 694 l 870 1004 l 946 1004 l 800 694 l 964 694 l 956 627 l 768 627 l 650 376 l 901 376 l 892 309 l 619 309 l 473 0 l 397 0 l 543 309 l 353 309 l 208 0 l 132 0 m 385 376 l 574 376 l 693 627 l 503 627 l 385 376 z "},"$":{"ha":708,"x_min":83,"x_max":724,"o":"m 328 -100 l 349 1 q 320 0 329 0 q 83 36 191 0 l 167 122 q 359 52 264 58 l 412 317 l 366 347 q 243 517 243 429 q 310 655 243 599 q 494 731 376 712 l 515 837 l 557 837 l 536 736 q 724 700 626 736 l 687 552 l 646 552 q 651 590 651 576 q 527 687 651 676 l 475 424 l 513 396 q 613 309 590 340 q 636 232 636 279 q 569 93 636 155 q 391 7 502 31 l 370 -100 l 328 -100 m 438 450 l 485 686 q 346 570 346 669 q 415 469 346 525 l 438 450 m 401 56 q 533 178 533 78 q 471 272 533 229 l 448 289 l 401 56 z "},"%":{"ha":1054,"x_min":123,"x_max":1136,"o":"m 363 502 q 240 551 286 502 q 193 680 193 600 q 270 909 193 814 q 455 1004 347 1004 q 582 956 534 1004 q 629 825 629 907 q 551 596 629 690 q 363 502 474 502 m 293 674 q 375 544 293 544 q 487 632 437 544 q 537 830 537 720 q 455 963 537 963 q 342 874 392 963 q 293 674 293 786 m 800 0 q 677 49 724 0 q 631 178 631 98 q 707 407 631 312 q 892 502 784 502 q 1019 454 972 502 q 1066 323 1066 406 q 989 94 1066 188 q 800 0 911 0 m 730 171 q 812 41 730 41 q 925 130 875 41 q 975 328 975 218 q 892 461 975 461 q 780 373 829 461 q 730 171 730 284 m 123 -25 l 1047 1029 l 1136 1029 l 212 -25 l 123 -25 z "},"&":{"ha":1189,"x_min":56,"x_max":1326,"o":"m 1322 710 q 1304 655 1326 684 q 1233 602 1281 626 q 1110 562 1184 577 q 936 549 1036 547 q 961 516 949 538 q 980 466 972 495 q 987 401 987 437 q 979 328 988 366 q 951 251 970 290 q 896 174 931 212 q 808 101 860 136 q 684 37 756 66 q 520 -2 600 3 q 370 6 440 -8 q 241 57 299 21 q 142 144 183 93 q 79 259 101 195 q 59 395 56 323 q 76 553 60 482 q 119 682 93 625 q 178 784 144 740 q 249 862 212 829 q 321 916 285 895 q 388 949 357 937 q 442 964 418 961 q 476 963 465 968 q 515 936 503 952 q 530 898 528 919 q 526 854 532 878 q 510 809 520 831 q 437 697 486 757 q 585 775 528 734 q 670 857 642 817 q 703 927 699 896 q 695 975 707 959 q 707 992 691 980 q 743 1015 722 1004 q 783 1034 764 1026 q 806 1036 802 1041 q 816 969 830 1006 q 763 893 802 932 q 666 813 724 853 q 543 735 608 772 q 184 555 392 648 q 182 480 184 524 q 186 386 181 435 q 207 285 191 336 q 256 189 223 234 q 345 108 290 143 q 484 56 399 73 q 618 47 559 41 q 722 75 677 54 q 798 129 766 96 q 849 200 829 162 q 878 279 869 239 q 889 357 888 320 q 885 423 890 394 q 870 469 880 452 q 816 522 851 504 q 738 543 781 539 q 650 535 695 546 q 568 500 605 524 q 533 471 545 486 q 520 442 522 456 q 525 415 519 428 q 541 394 530 403 q 565 380 551 385 q 591 377 578 376 q 548 349 574 363 q 498 329 523 336 q 454 325 474 322 q 429 346 435 328 q 438 394 424 364 q 479 457 452 425 q 544 519 507 490 q 626 568 582 549 q 710 597 663 586 q 807 614 758 608 q 906 622 857 621 q 1001 621 956 623 q 1082 616 1046 620 q 1141 610 1118 613 q 1191 610 1173 606 q 1218 623 1210 614 q 1223 645 1225 632 q 1211 673 1221 659 q 1209 685 1204 677 q 1225 700 1214 692 q 1253 714 1237 708 q 1284 723 1269 721 q 1310 723 1299 726 q 1322 710 1320 720 m 404 888 q 355 895 380 904 q 308 861 331 886 q 266 800 286 836 q 232 725 247 764 q 208 649 216 686 q 197 586 199 612 q 210 598 204 593 q 220 607 215 603 q 227 611 224 611 q 265 625 238 611 q 322 663 292 640 q 383 717 353 687 q 428 778 412 747 q 441 838 444 809 q 404 888 438 867 z "},"'":{"ha":318,"x_min":243,"x_max":410,"o":"m 306 703 l 243 1071 l 410 1071 l 347 703 l 306 703 z "},"(":{"ha":490,"x_min":157,"x_max":633,"o":"m 367 -163 l 359 -201 q 157 290 157 -45 q 294 802 157 549 q 633 1171 430 1055 l 622 1117 q 424 852 500 1019 q 315 516 359 713 q 271 172 271 319 q 367 -163 271 -37 z "},")":{"ha":490,"x_min":52,"x_max":528,"o":"m 318 1134 l 326 1171 q 528 682 528 1016 q 391 168 528 421 q 52 -201 255 -85 l 63 -146 q 261 118 184 -48 q 370 454 326 257 q 414 798 414 652 q 318 1134 414 1006 z "},"*":{"ha":707,"x_min":225,"x_max":778,"o":"m 411 469 l 454 684 l 291 544 l 225 544 l 430 720 l 227 720 l 249 778 l 454 778 l 313 945 l 371 945 l 479 815 l 516 1004 l 596 1029 l 557 824 l 707 945 l 776 945 l 568 778 l 778 778 l 753 720 l 557 720 l 696 544 l 640 544 l 529 684 l 491 494 l 411 469 z "},"+":{"ha":878,"x_min":144,"x_max":895,"o":"m 408 33 l 474 364 l 144 364 l 159 439 l 489 439 l 555 770 l 630 770 l 564 439 l 895 439 l 880 364 l 549 364 l 484 33 l 408 33 z "},",":{"ha":393,"x_min":34,"x_max":332,"o":"m 98 120 l 233 218 l 332 85 q 247 -126 325 -52 q 34 -201 170 -201 l 72 -159 q 199 -17 178 -149 l 98 120 z "},"-":{"ha":435,"x_min":132,"x_max":470,"o":"m 132 368 l 161 469 l 470 469 l 441 368 l 132 368 z "},".":{"ha":393,"x_min":99,"x_max":335,"o":"m 99 121 l 232 218 l 335 85 l 199 -17 l 99 121 z "},"/":{"ha":740,"x_min":-40,"x_max":913,"o":"m -40 -201 l 824 1171 l 913 1171 l 51 -201 l -40 -201 z "},":":{"ha":381,"x_min":92,"x_max":434,"o":"m 92 121 l 224 218 l 328 85 l 191 -17 l 92 121 m 198 656 l 332 753 l 434 621 l 298 519 l 198 656 z "},";":{"ha":378,"x_min":25,"x_max":432,"o":"m 89 120 l 224 218 l 323 85 q 238 -126 316 -52 q 25 -201 161 -201 l 63 -159 q 190 -17 169 -149 l 89 120 m 196 656 l 329 753 l 432 621 l 296 519 l 196 656 z "},"<":{"ha":878,"x_min":151,"x_max":961,"o":"m 961 770 l 940 679 l 319 393 l 830 113 l 814 33 l 151 401 l 961 770 z "},"=":{"ha":878,"x_min":120,"x_max":918,"o":"m 120 247 l 135 322 l 871 322 l 857 247 l 120 247 m 167 481 l 182 556 l 918 556 l 903 481 l 167 481 z "},">":{"ha":878,"x_min":151,"x_max":961,"o":"m 151 33 l 172 125 l 793 410 l 282 691 l 298 770 l 961 401 l 151 33 z "},"?":{"ha":694,"x_min":203,"x_max":760,"o":"m 203 82 l 310 168 l 392 56 l 286 -17 l 203 82 m 266 263 q 425 502 279 377 l 453 526 q 614 823 614 665 q 574 942 614 897 q 467 987 533 987 q 271 820 313 987 l 229 820 l 262 981 q 510 1029 401 1029 q 692 979 623 1029 q 760 845 760 928 q 619 614 760 733 l 548 553 q 406 321 433 456 l 401 302 l 266 263 z "},"@":{"ha":1196,"x_min":161,"x_max":1251,"o":"m 847 30 q 614 -25 728 -25 q 289 93 416 -25 q 161 392 161 210 q 328 810 161 618 q 802 1029 518 1029 q 1123 907 994 1029 q 1251 604 1251 785 q 1150 321 1251 441 q 912 200 1048 200 q 794 294 794 200 q 817 402 794 307 l 823 431 l 808 431 q 547 201 673 201 q 422 358 422 201 q 534 657 422 519 q 778 795 646 795 q 890 773 810 795 q 908 768 894 772 l 971 768 l 894 380 q 886 314 886 341 q 955 251 886 251 q 1129 364 1049 251 q 1209 611 1209 477 q 1090 879 1209 770 q 795 987 970 987 q 386 806 568 987 q 203 400 203 625 q 319 125 203 233 q 612 17 434 17 q 832 68 719 17 l 847 30 m 829 555 l 857 699 q 734 728 802 728 q 582 631 643 728 q 520 391 520 535 q 584 284 520 284 q 829 555 682 284 z "},"A":{"ha":975,"x_min":-279,"x_max":1007,"o":"m 1007 951 q 1000 940 1002 945 q 995 930 999 935 q 973 879 983 910 q 954 809 963 848 q 936 727 944 770 q 919 639 927 683 q 904 553 911 595 q 890 475 897 511 l 968 475 q 929 456 949 465 q 884 441 909 447 q 880 425 884 433 q 876 411 876 416 q 856 340 869 376 q 825 270 842 304 q 789 204 808 235 q 752 150 770 174 q 722 111 735 126 q 702 93 708 96 q 737 92 718 93 q 780 91 756 91 q 833 92 804 91 q 903 98 863 94 q 887 76 898 88 q 862 51 877 63 q 830 29 848 39 q 793 14 812 19 q 737 3 768 7 q 679 -2 705 -1 q 636 0 652 -3 q 624 7 619 2 q 673 77 650 33 q 716 176 696 121 q 754 292 736 230 q 787 417 771 354 q 688 409 742 412 q 571 406 635 406 q 488 271 530 338 q 400 141 446 204 q 303 22 354 79 q 196 -81 253 -35 q 74 -161 139 -127 q -65 -214 9 -195 q -156 -220 -115 -225 q -225 -197 -197 -214 q -266 -153 -253 -180 q -273 -97 -279 -127 q -240 -37 -267 -67 q -164 20 -214 -6 q -162 16 -159 23 q -169 -5 -165 8 q -175 -35 -173 -18 q -170 -67 -177 -52 q -144 -95 -163 -83 q -85 -111 -125 -107 q 41 -101 -19 -117 q 156 -50 101 -84 q 260 35 210 -15 q 356 144 310 84 q 447 270 403 203 q 532 406 490 337 q 405 398 459 406 q 313 378 351 390 q 250 350 275 366 q 211 318 226 334 q 190 287 197 302 q 182 261 184 272 q 197 320 182 286 q 243 387 213 354 q 319 443 274 419 q 422 469 363 467 l 578 469 q 655 593 617 532 q 732 706 693 653 q 810 803 770 759 q 890 878 849 846 q 806 902 855 888 q 701 931 757 917 q 586 955 644 945 q 474 968 527 966 q 378 960 421 970 q 311 924 336 950 q 232 802 253 859 q 222 700 212 745 q 273 626 233 656 q 376 587 313 597 q 378 579 383 585 q 359 565 372 573 q 326 548 345 557 q 284 531 306 539 q 240 519 262 524 q 200 514 218 514 q 167 533 182 515 q 143 579 152 551 q 133 646 134 608 q 142 723 132 683 q 175 805 153 764 q 234 883 197 846 q 326 949 272 920 q 455 996 380 979 q 574 1014 515 1010 q 689 1014 633 1017 q 794 1002 744 1010 q 885 984 844 994 q 958 965 926 974 q 1007 951 989 956 m 798 475 q 822 597 811 538 q 843 704 833 655 q 861 787 852 752 q 876 840 869 823 q 807 765 840 806 q 742 677 774 724 q 677 579 709 631 q 611 475 645 528 l 798 475 z "},"B":{"ha":1158,"x_min":15,"x_max":1222,"o":"m 1114 983 q 1074 1035 1099 1019 q 1020 1048 1049 1051 q 961 1027 991 1046 q 903 976 930 1008 q 975 944 942 964 q 1030 900 1008 925 q 1065 845 1053 875 q 1074 780 1076 814 q 1049 707 1072 738 q 998 652 1027 675 q 940 614 968 629 q 897 589 911 599 q 953 561 921 578 q 1017 523 985 545 q 1076 472 1048 500 q 1120 411 1104 444 q 1138 337 1137 377 q 1117 252 1139 298 q 1047 154 1095 206 q 916 45 998 102 q 821 -2 869 13 q 725 -19 772 -16 q 631 -14 677 -21 q 543 6 585 -6 q 438 31 484 23 q 357 36 393 38 q 294 23 321 34 q 241 -7 266 12 q 266 38 248 15 q 309 82 284 62 q 366 117 334 102 q 431 137 397 132 q 500 224 472 181 q 549 310 529 267 q 582 398 568 353 q 607 491 595 443 q 629 593 618 540 q 655 707 640 647 q 702 814 669 762 q 780 911 734 866 q 689 934 737 926 q 590 945 640 943 q 488 945 539 948 q 390 932 437 942 q 299 908 342 923 q 221 871 256 892 q 161 820 186 850 q 122 755 136 789 q 106 687 108 721 q 120 625 105 653 q 165 579 134 597 q 248 557 197 560 q 237 548 249 557 q 207 528 226 539 q 163 505 187 516 q 116 489 139 494 q 73 490 92 485 q 44 517 54 496 q 18 632 15 578 q 53 737 20 686 q 144 836 85 787 q 287 936 203 885 q 412 988 341 968 q 561 1015 484 1008 q 718 1015 639 1021 q 865 989 796 1008 q 971 1061 916 1031 q 1076 1104 1027 1090 q 1162 1113 1124 1118 q 1217 1081 1200 1108 q 1218 1059 1222 1073 q 1205 1029 1215 1044 q 1183 1000 1196 1014 q 1157 978 1170 986 q 1132 970 1143 970 q 1114 983 1120 970 m 924 800 q 887 844 908 824 q 838 878 867 863 q 784 731 806 799 q 748 606 763 664 q 722 499 733 549 q 697 408 710 450 q 669 329 685 365 q 629 260 653 292 q 569 199 604 228 q 484 143 534 170 q 507 142 494 143 q 529 137 519 142 q 610 111 571 125 q 688 83 649 96 q 767 60 727 71 q 851 45 807 50 q 910 57 880 40 q 965 105 941 75 q 1003 174 989 136 q 1015 249 1017 212 q 995 340 1012 301 q 953 408 978 380 q 898 456 928 437 q 841 487 869 475 q 789 504 812 498 q 753 511 766 509 q 799 545 772 528 q 851 581 825 562 q 899 623 877 600 q 934 672 922 646 q 946 730 947 699 q 924 800 945 762 z "},"C":{"ha":846,"x_min":153,"x_max":887,"o":"m 757 698 q 783 796 780 755 q 774 864 786 837 q 739 905 763 891 q 685 923 715 919 q 620 920 654 926 q 553 901 586 914 q 488 858 521 888 q 425 788 455 829 q 368 698 395 747 q 321 594 341 648 q 290 485 302 541 q 279 375 279 429 q 293 273 279 321 q 336 184 306 224 q 392 134 361 149 q 457 121 423 120 q 526 137 490 123 q 595 174 561 152 q 662 222 629 195 q 722 274 694 248 q 772 321 750 299 q 810 355 795 342 q 754 289 790 330 q 668 200 719 248 q 553 105 618 153 q 409 20 488 57 q 303 2 350 -7 q 223 48 256 12 q 173 143 191 85 q 154 274 155 202 q 170 426 153 346 q 222 585 186 506 q 314 737 258 664 q 448 868 370 810 q 612 972 541 936 q 735 1020 684 1008 q 821 1021 787 1031 q 871 987 854 1011 q 887 927 887 963 q 872 852 887 892 q 828 773 857 813 q 757 698 799 732 z "},"D":{"ha":1224,"x_min":44,"x_max":1221,"o":"m 876 985 q 1009 929 947 965 q 1119 840 1072 894 q 1194 713 1166 786 q 1221 547 1221 641 q 1208 435 1221 494 q 1162 314 1196 376 q 1073 187 1129 252 q 928 59 1016 123 q 836 12 881 27 q 746 -5 791 -3 q 654 3 701 -7 q 556 33 607 13 q 456 65 497 54 q 382 74 415 76 q 322 57 350 72 q 263 13 294 42 q 289 62 270 37 q 334 108 307 87 q 395 143 361 129 q 465 163 429 158 q 523 247 499 205 q 563 330 547 288 q 591 415 580 372 q 612 507 602 459 q 631 606 622 554 q 654 718 641 659 q 691 814 664 766 q 751 906 718 862 q 626 935 690 926 q 495 942 561 945 q 366 924 430 939 q 243 880 302 909 q 184 833 210 862 q 146 770 159 804 q 132 703 132 737 q 145 641 131 669 q 189 594 159 612 q 269 574 220 576 q 259 563 271 572 q 229 543 248 554 q 186 520 210 531 q 140 506 162 510 q 100 508 118 503 q 73 535 81 514 q 46 646 44 593 q 79 748 48 698 q 168 846 109 798 q 309 946 226 895 q 410 990 350 972 q 541 1016 471 1008 q 687 1019 611 1023 q 837 998 764 1015 q 942 1073 888 1042 q 1044 1118 996 1103 q 1128 1130 1092 1133 q 1183 1102 1165 1126 q 1186 1079 1189 1094 q 1174 1049 1183 1065 q 1153 1019 1165 1034 q 1127 996 1140 1004 q 1102 989 1114 988 q 1084 1004 1090 989 q 1045 1055 1069 1041 q 992 1065 1021 1069 q 933 1040 964 1061 q 876 985 903 1019 m 857 65 q 912 79 882 66 q 972 116 943 92 q 1028 179 1002 141 q 1074 270 1055 217 q 1102 392 1093 323 q 1103 547 1110 461 q 1076 650 1099 601 q 1015 741 1053 699 q 926 818 977 783 q 817 880 876 853 q 764 697 783 779 q 731 548 745 615 q 706 427 718 481 q 671 326 693 372 q 613 240 649 280 q 517 163 577 201 l 543 163 q 625 134 585 151 q 704 102 665 117 q 781 76 743 87 q 857 65 819 65 z "},"E":{"ha":1021,"x_min":124,"x_max":1136,"o":"m 720 92 q 738 82 722 90 q 777 68 753 74 q 831 62 801 62 q 895 79 862 63 q 960 132 927 96 q 1023 235 993 169 q 950 102 988 154 q 872 20 912 50 q 792 -20 833 -10 q 711 -28 751 -31 q 632 -13 671 -26 q 559 15 594 -1 q 494 46 524 31 q 439 72 463 62 q 334 92 382 92 q 247 81 286 93 q 177 50 208 70 q 124 7 146 29 q 181 78 151 46 q 244 131 211 109 q 316 164 278 153 q 399 176 355 176 q 448 284 429 230 q 478 390 467 338 q 497 494 490 443 q 512 594 504 545 q 532 690 520 644 q 563 779 543 736 q 614 861 583 822 q 694 935 646 900 q 608 942 652 939 q 522 945 564 945 q 446 945 481 946 q 386 941 410 944 q 331 918 356 935 q 287 877 305 901 q 261 826 269 854 q 258 770 252 798 q 284 714 263 741 q 347 667 306 688 q 345 653 353 662 q 320 636 337 645 q 282 618 304 627 q 239 606 260 610 q 201 603 218 602 q 177 614 184 604 q 150 690 153 649 q 168 776 147 732 q 231 865 188 821 q 340 948 274 909 q 468 1000 402 983 q 601 1021 534 1017 q 736 1023 668 1026 q 869 1017 804 1021 q 998 1015 935 1014 q 1118 1027 1060 1015 q 1133 1021 1136 1029 q 1111 1000 1129 1013 q 1064 970 1093 986 q 1000 940 1034 954 q 929 919 966 927 q 862 915 893 911 q 806 924 838 920 q 739 935 773 929 q 697 859 714 900 q 668 772 680 818 q 647 679 656 727 q 628 581 637 630 q 681 579 651 580 q 744 579 711 578 q 813 581 778 579 q 881 584 848 582 q 943 588 914 585 q 994 594 972 591 q 975 580 989 589 q 943 559 962 570 q 903 535 925 547 q 860 513 882 523 q 819 497 838 503 q 784 490 799 490 q 750 488 770 488 q 706 488 730 488 q 658 489 683 488 q 608 490 633 490 q 587 404 598 446 q 558 322 575 361 q 519 245 542 282 q 465 176 496 209 q 582 149 518 172 q 720 92 645 126 z "},"F":{"ha":1046,"x_min":-39,"x_max":1168,"o":"m 897 918 q 833 925 867 924 q 754 931 798 926 q 726 854 737 895 q 705 770 714 814 q 690 679 696 726 q 676 580 683 631 q 761 581 713 580 q 859 585 810 582 q 954 591 909 587 q 1027 600 998 594 q 995 572 1020 589 q 937 537 969 555 q 871 508 905 520 q 812 495 837 495 q 783 493 800 493 q 744 493 765 492 q 701 494 724 493 q 656 495 678 495 q 630 372 646 434 q 586 247 613 310 q 518 121 558 184 q 422 -5 478 58 q 309 -109 366 -70 q 201 -166 253 -149 q 105 -183 150 -184 q 28 -164 61 -181 q -22 -118 -4 -148 q -37 -49 -39 -87 q -11 36 -35 -10 q 64 131 13 82 q 50 75 52 105 q 56 14 48 44 q 79 -43 63 -16 q 118 -88 94 -70 q 171 -112 141 -106 q 236 -108 201 -119 q 312 -67 271 -98 q 396 20 352 -37 q 441 105 423 55 q 474 215 460 155 q 498 340 488 274 q 520 474 509 406 q 545 609 532 542 q 578 736 559 675 q 624 849 597 797 q 689 939 651 901 q 614 942 652 941 q 541 943 576 943 q 474 942 505 943 q 422 939 444 941 q 368 915 393 932 q 325 874 342 898 q 301 823 308 851 q 300 767 294 795 q 327 712 306 739 q 389 665 349 686 q 388 654 396 661 q 363 638 380 646 q 325 621 347 629 q 281 608 302 613 q 243 604 260 604 q 220 612 227 604 q 190 689 193 646 q 207 776 186 731 q 271 864 227 821 q 383 945 315 908 q 507 997 444 981 q 637 1018 571 1013 q 769 1020 703 1023 q 901 1014 836 1017 q 1029 1010 966 1010 q 1152 1022 1093 1010 q 1163 1018 1168 1025 q 1140 997 1159 1010 q 1093 968 1122 984 q 1030 940 1063 952 q 961 920 996 927 q 897 918 926 913 z "},"G":{"ha":1116,"x_min":90,"x_max":1154,"o":"m 1154 576 q 1142 563 1151 571 q 1121 546 1133 555 q 1095 528 1109 537 q 1065 510 1080 518 q 1036 494 1050 501 q 1010 484 1022 488 q 969 400 985 440 q 942 324 953 361 q 923 251 931 287 q 907 180 916 216 q 886 107 898 144 q 853 30 873 71 q 804 -54 833 -10 q 730 -149 774 -98 q 590 -269 662 -224 q 449 -333 518 -314 q 318 -348 380 -352 q 208 -320 256 -343 q 130 -260 159 -298 q 95 -173 100 -222 q 115 -68 90 -124 q 201 47 140 -12 q 176 -32 177 7 q 191 -108 175 -72 q 238 -174 207 -144 q 309 -225 269 -204 q 398 -254 350 -245 q 497 -255 446 -262 q 599 -222 548 -248 q 696 -149 650 -197 q 731 -107 718 -127 q 752 -66 744 -87 q 764 -20 760 -44 q 773 35 768 5 q 784 101 778 65 q 802 184 790 138 q 731 118 767 147 q 654 67 695 89 q 568 33 614 46 q 468 14 522 19 q 363 28 413 8 q 273 89 313 49 q 205 186 233 130 q 167 310 178 243 q 165 450 156 376 q 207 597 174 524 q 299 740 239 670 q 449 870 358 810 q 573 940 509 911 q 697 988 636 969 q 813 1015 758 1006 q 915 1023 869 1023 q 991 1013 960 1022 q 1037 988 1023 1004 q 1014 951 1028 970 q 982 913 1002 934 q 932 870 962 892 q 834 898 880 885 q 745 918 789 911 q 660 920 702 924 q 573 897 617 916 q 474 829 519 872 q 395 731 429 786 q 343 611 362 675 q 323 481 324 547 q 341 349 322 414 q 403 224 360 283 q 469 155 435 180 q 538 122 503 131 q 608 119 573 113 q 679 139 644 124 q 748 178 713 155 q 814 229 782 201 q 871 360 834 298 q 971 471 907 422 q 918 473 955 471 q 832 476 880 474 q 729 479 783 477 q 624 480 675 480 q 532 478 574 480 q 468 471 491 476 q 514 507 485 488 q 577 541 543 526 q 648 567 612 557 q 716 576 684 576 q 799 573 755 576 q 894 567 842 569 q 1010 565 946 564 q 1154 576 1074 566 z "},"H":{"ha":1270,"x_min":-61,"x_max":1657,"o":"m 1291 1027 q 1425 1149 1363 1107 q 1533 1203 1487 1190 q 1610 1207 1580 1217 q 1649 1176 1640 1198 q 1643 1126 1657 1154 q 1585 1074 1628 1098 q 1568 1099 1580 1086 q 1539 1120 1556 1112 q 1499 1130 1521 1128 q 1453 1124 1478 1133 q 1402 1096 1429 1116 q 1350 1040 1376 1076 q 1297 935 1318 994 q 1259 810 1275 876 q 1231 674 1243 745 q 1206 535 1219 604 q 1177 399 1193 465 q 1138 274 1161 332 q 1082 170 1115 216 q 1003 92 1050 123 q 1040 90 1020 92 q 1083 86 1060 87 q 1134 90 1107 86 q 1193 105 1161 93 q 1166 68 1181 85 q 1133 35 1151 50 q 1092 10 1114 20 q 1042 -5 1069 -1 q 1000 -8 1023 -8 q 958 -8 977 -9 q 911 -5 935 -7 q 962 74 941 19 q 1001 204 983 129 q 1036 371 1019 280 q 1076 557 1053 461 q 1044 534 1061 545 q 1011 514 1027 523 q 979 500 994 506 q 951 492 964 494 l 696 492 q 657 357 679 425 q 603 219 635 288 q 527 80 571 150 q 421 -58 483 11 q 303 -166 362 -125 q 190 -225 244 -207 q 89 -242 136 -244 q 9 -223 43 -241 q -43 -175 -24 -206 q -59 -103 -61 -144 q -31 -14 -56 -62 q 49 86 -5 35 q 30 8 31 50 q 45 -71 30 -34 q 91 -132 60 -107 q 165 -158 121 -157 q 265 -130 209 -159 q 389 -31 321 -102 q 451 58 425 7 q 494 170 476 109 q 526 296 513 230 q 551 431 538 363 q 577 566 563 498 q 610 694 591 633 q 656 809 629 756 q 722 903 683 863 q 631 925 675 916 q 545 940 587 935 q 462 944 503 945 q 382 936 421 943 q 325 911 351 929 q 280 867 298 892 q 255 810 262 841 q 255 748 248 779 q 284 688 261 717 q 349 635 307 659 q 347 625 355 632 q 321 609 338 617 q 280 592 303 600 q 236 579 258 584 q 196 575 214 574 q 172 583 179 575 q 141 668 145 620 q 156 765 136 715 q 221 861 176 814 q 337 943 266 908 q 439 986 393 970 q 527 1009 486 1002 q 607 1016 569 1017 q 684 1011 646 1016 q 764 998 723 1006 q 853 981 806 989 q 871 975 868 979 q 870 964 875 970 q 853 950 865 958 q 827 936 842 943 q 764 775 788 862 q 715 590 740 688 q 804 592 755 592 q 905 593 854 593 q 1003 593 956 593 q 1088 595 1051 593 q 1123 713 1103 654 q 1168 826 1143 771 q 1224 932 1193 882 q 1291 1027 1255 983 z "},"I":{"ha":777,"x_min":127,"x_max":947,"o":"m 672 505 q 655 422 667 465 q 627 339 644 380 q 591 260 611 298 q 552 192 572 222 q 512 143 532 163 q 476 119 492 123 q 491 115 477 117 q 525 111 505 113 q 570 108 545 109 q 619 108 595 107 q 664 111 643 109 q 699 119 685 113 q 653 80 676 101 q 604 42 631 60 q 547 12 578 24 q 476 0 515 0 l 338 0 q 408 82 374 33 q 468 188 437 124 q 522 341 500 252 q 544 449 533 393 q 565 557 555 504 q 585 660 575 610 q 603 749 594 709 q 619 819 612 789 q 633 864 627 849 q 652 892 643 878 q 672 916 662 907 l 666 916 q 583 930 619 924 q 513 941 547 937 q 446 944 480 945 q 371 937 412 943 q 313 912 340 930 q 269 870 287 895 q 243 818 251 846 q 242 760 236 789 q 270 703 248 730 q 332 654 292 675 q 333 641 340 650 q 309 624 326 633 q 269 606 292 614 q 225 592 247 597 q 186 587 203 587 q 161 595 168 587 q 131 677 135 633 q 148 768 127 721 q 212 861 168 814 q 325 949 256 907 q 441 1002 389 985 q 541 1022 494 1018 q 631 1022 588 1026 q 721 1015 675 1019 q 817 1010 766 1010 q 928 1021 867 1010 q 941 1017 947 1026 q 911 992 935 1008 q 852 959 888 977 q 777 929 817 941 q 762 877 770 908 q 743 809 753 846 q 722 732 732 772 q 702 651 711 691 q 685 573 692 611 q 672 505 677 536 z "},"J":{"ha":879,"x_min":-83,"x_max":999,"o":"m 984 1021 q 998 1019 997 1023 q 991 1006 999 1015 q 967 987 983 998 q 929 965 951 977 q 881 942 907 954 q 827 923 855 931 q 781 818 800 875 q 747 696 762 760 q 719 561 732 631 q 688 417 705 491 q 649 268 671 344 q 594 117 627 193 q 515 -33 561 41 q 408 -176 470 -106 q 287 -289 347 -246 q 172 -351 227 -332 q 69 -369 117 -370 q -13 -350 22 -368 q -65 -300 -47 -332 q -81 -226 -83 -268 q -53 -134 -79 -184 q 29 -32 -26 -85 q 13 -92 16 -59 q 17 -156 10 -124 q 41 -217 24 -189 q 81 -266 57 -246 q 137 -292 106 -285 q 206 -288 169 -299 q 286 -243 243 -276 q 376 -150 329 -210 q 427 -55 405 -112 q 467 72 449 3 q 501 219 485 141 q 534 378 517 298 q 572 536 551 458 q 619 685 592 614 q 681 812 646 755 q 762 909 715 870 l 715 909 q 621 925 669 917 q 527 937 574 932 q 436 941 481 941 q 349 930 391 940 q 291 908 318 925 q 246 867 264 891 q 219 813 227 842 q 217 754 211 784 q 244 697 222 725 q 309 648 267 669 q 310 634 317 643 q 284 615 302 625 q 243 596 267 606 q 198 583 220 587 q 158 578 176 578 q 133 589 140 579 q 102 670 106 626 q 120 761 99 715 q 187 854 141 808 q 304 943 233 901 q 426 998 368 980 q 540 1020 484 1015 q 649 1021 595 1025 q 757 1014 703 1018 q 867 1010 811 1010 q 984 1021 924 1010 z "},"K":{"ha":1132,"x_min":72,"x_max":1240,"o":"m 1189 1117 q 1227 1100 1216 1114 q 1240 1068 1239 1086 q 1232 1031 1240 1050 q 1213 999 1224 1013 q 1190 979 1202 985 q 1169 981 1177 972 q 1108 1016 1142 1010 q 1035 1012 1074 1023 q 954 977 996 1002 q 872 921 913 953 q 792 852 831 889 q 721 780 754 816 q 663 714 688 745 q 623 662 638 683 q 648 614 631 646 q 689 541 665 583 q 742 450 713 500 q 804 349 772 401 q 871 243 837 296 q 940 141 906 191 q 1005 50 973 92 q 1064 -24 1037 7 q 1114 -74 1092 -56 q 1149 -92 1136 -92 q 1042 -70 1093 -92 q 943 -8 990 -47 q 852 80 895 30 q 770 184 809 130 q 697 294 732 239 q 633 396 663 349 q 578 482 604 444 q 532 539 553 519 q 529 516 532 529 q 526 492 526 503 q 509 412 521 454 q 481 330 497 370 q 445 253 465 290 q 406 186 426 216 q 366 136 386 157 q 330 110 347 116 q 345 109 332 110 q 379 105 359 107 q 423 102 399 104 q 471 101 448 101 q 514 103 494 101 q 545 110 534 104 q 503 73 526 92 q 455 37 481 54 q 398 10 429 21 q 330 -1 367 -1 l 201 -1 q 265 77 234 30 q 320 180 292 117 q 369 330 349 243 q 398 436 382 380 q 430 545 414 491 q 464 651 447 600 q 495 744 480 702 q 521 818 509 787 q 539 864 532 849 q 553 898 544 883 q 571 922 562 912 q 552 923 562 922 q 532 928 542 924 q 483 933 510 930 q 425 938 456 937 q 356 938 393 939 q 279 928 320 936 q 224 903 248 922 q 186 860 200 884 q 171 807 172 835 q 183 757 169 780 q 229 718 197 734 q 312 701 260 703 q 310 692 320 701 q 279 671 300 684 q 232 644 259 658 q 180 621 205 631 q 136 609 155 612 q 109 616 116 606 q 78 693 85 650 q 88 782 72 736 q 144 873 104 827 q 252 962 184 920 q 346 1005 304 991 q 424 1024 388 1019 q 493 1026 460 1028 q 559 1020 526 1023 q 631 1013 593 1016 q 713 1013 668 1009 q 703 994 709 1004 q 689 974 698 985 q 669 954 681 964 q 645 897 659 932 q 615 819 631 862 q 585 727 600 775 q 558 629 570 678 q 641 728 592 673 q 746 840 689 783 q 863 949 802 896 q 983 1041 924 1002 q 1095 1102 1042 1081 q 1189 1117 1148 1124 z "},"L":{"ha":1198,"x_min":99,"x_max":1200,"o":"m 692 80 q 772 42 728 62 q 863 8 817 22 q 958 -11 910 -6 q 1049 -2 1005 -15 q 1133 45 1094 11 q 1200 144 1171 80 q 1120 15 1166 64 q 1021 -57 1074 -33 q 908 -83 967 -81 q 791 -76 850 -86 q 675 -46 732 -66 q 569 -6 618 -26 q 480 34 520 15 q 415 60 440 52 q 308 81 357 80 q 220 72 260 83 q 151 41 181 61 q 99 -3 121 20 q 149 59 123 31 q 203 109 174 87 q 263 145 231 131 q 331 164 295 159 q 391 279 368 222 q 429 391 414 336 q 454 499 444 446 q 475 604 464 553 q 502 702 486 654 q 544 794 517 750 q 610 880 570 839 q 711 956 650 920 q 733 971 715 960 q 777 994 751 982 q 831 1014 802 1006 q 890 1017 861 1021 q 942 994 918 1013 q 981 930 966 974 q 981 900 986 918 q 965 864 976 882 q 940 827 954 845 q 914 798 926 810 q 893 781 902 785 q 885 783 885 776 q 869 868 883 834 q 834 920 855 902 q 787 942 812 939 q 739 937 762 946 q 695 909 715 928 q 666 860 675 889 q 638 750 650 808 q 614 631 627 692 q 584 508 601 570 q 542 387 568 446 q 477 273 515 328 q 382 171 439 218 q 523 150 446 171 q 692 80 600 129 z "},"M":{"ha":1596,"x_min":-78,"x_max":1850,"o":"m 1443 1158 q 1571 1245 1508 1213 q 1688 1288 1634 1277 q 1780 1290 1741 1299 q 1834 1255 1818 1281 q 1839 1186 1850 1229 q 1780 1086 1827 1143 q 1771 1125 1779 1107 q 1750 1157 1765 1141 q 1709 1183 1735 1174 q 1627 1197 1667 1200 q 1548 1172 1587 1193 q 1472 1113 1510 1150 q 1398 1027 1434 1076 q 1394 979 1396 1015 q 1390 895 1392 943 q 1387 788 1388 846 q 1384 673 1385 730 q 1383 565 1383 616 q 1384 475 1383 513 q 1379 367 1384 417 q 1359 273 1373 317 q 1322 185 1345 228 q 1261 100 1298 143 q 1282 100 1263 100 q 1330 102 1301 101 q 1394 105 1359 103 q 1461 110 1428 107 q 1520 116 1493 113 q 1559 124 1546 119 q 1512 82 1537 105 q 1458 40 1487 60 q 1396 8 1429 21 q 1326 -5 1363 -5 l 1164 -5 q 1219 98 1194 45 q 1239 147 1229 121 q 1256 201 1249 173 q 1269 257 1264 229 q 1274 313 1274 286 q 1272 431 1274 367 q 1267 562 1270 496 q 1263 692 1265 629 q 1261 807 1261 756 q 1196 667 1227 739 q 1137 524 1164 595 q 1086 386 1109 453 q 1043 259 1062 318 q 1010 150 1024 199 q 988 67 996 101 q 958 67 974 72 q 927 56 943 63 q 895 41 911 48 q 865 35 880 35 q 857 137 863 80 q 841 256 850 193 q 819 384 831 318 q 794 511 807 449 q 770 628 782 572 q 747 728 758 684 q 720 609 733 671 q 689 481 706 547 q 650 346 672 415 q 595 206 627 277 q 517 65 562 136 q 410 -76 472 -6 q 291 -185 351 -144 q 176 -245 231 -227 q 74 -262 121 -264 q -7 -242 27 -260 q -59 -193 -41 -224 q -75 -119 -78 -161 q -47 -28 -73 -77 q 34 73 -21 21 q 17 15 20 46 q 19 -47 14 -16 q 39 -104 24 -77 q 77 -149 54 -131 q 130 -174 100 -168 q 199 -171 161 -181 q 282 -132 237 -161 q 378 -50 327 -103 q 439 41 414 -11 q 483 154 465 94 q 514 282 500 215 q 539 419 527 350 q 565 555 551 488 q 599 685 579 623 q 647 802 619 747 q 715 897 675 856 q 536 936 622 927 q 371 930 450 945 q 314 907 340 925 q 270 864 288 890 q 244 808 252 839 q 243 745 237 777 q 270 684 249 713 q 332 631 292 654 q 333 620 340 628 q 309 603 326 612 q 269 586 292 594 q 224 572 247 577 q 184 569 202 568 q 157 579 165 570 q 129 664 133 616 q 144 761 125 711 q 209 859 164 811 q 327 943 254 907 q 431 987 383 971 q 520 1010 478 1003 q 601 1017 562 1017 q 680 1011 640 1017 q 761 999 719 1006 q 852 983 803 991 q 867 978 862 983 q 871 969 871 974 q 873 944 871 966 q 877 888 874 922 q 885 809 880 854 q 895 716 889 765 q 908 615 901 667 q 923 514 915 564 q 941 422 932 465 q 962 346 951 378 q 1048 566 1003 456 q 1149 781 1093 676 q 1277 981 1205 886 q 1443 1158 1348 1077 z "},"N":{"ha":1319,"x_min":-52,"x_max":1781,"o":"m 1345 1192 q 1502 1299 1428 1264 q 1634 1342 1577 1335 q 1727 1332 1691 1349 q 1772 1284 1764 1316 q 1758 1208 1781 1252 q 1672 1120 1735 1165 q 1664 1173 1671 1147 q 1642 1216 1657 1194 q 1600 1251 1628 1238 q 1505 1257 1548 1271 q 1424 1201 1461 1242 q 1358 1097 1388 1160 q 1303 955 1328 1033 q 1259 790 1279 878 q 1223 612 1239 702 q 1194 436 1207 523 q 1170 273 1181 349 q 1149 137 1159 197 q 1129 39 1139 76 q 1098 36 1114 41 q 1066 22 1082 30 q 1032 7 1049 14 q 998 0 1015 0 q 981 111 994 49 q 950 240 968 172 q 911 378 932 308 q 869 516 890 449 q 829 645 848 584 q 795 753 810 705 q 764 627 779 692 q 731 492 749 561 q 690 350 713 422 q 632 204 666 278 q 552 56 598 130 q 441 -92 505 -18 q 321 -204 381 -162 q 205 -266 260 -247 q 102 -283 150 -285 q 20 -263 54 -281 q -33 -213 -14 -245 q -49 -139 -52 -181 q -21 -49 -47 -98 q 61 52 5 0 q 43 -27 43 16 q 58 -107 42 -70 q 105 -170 74 -144 q 180 -196 136 -195 q 282 -168 224 -197 q 408 -66 340 -138 q 472 26 446 -27 q 517 141 498 79 q 548 272 535 203 q 574 411 562 340 q 600 550 586 481 q 633 682 614 618 q 680 800 652 745 q 749 897 708 855 q 657 919 702 909 q 570 933 613 928 q 486 938 528 938 q 402 930 444 937 q 345 904 371 923 q 300 859 318 885 q 275 800 282 832 q 274 736 267 768 q 303 675 281 705 q 369 622 326 645 q 367 611 376 618 q 341 595 358 604 q 300 578 323 587 q 255 566 277 570 q 216 561 233 561 q 192 569 199 561 q 159 654 165 606 q 173 752 154 702 q 237 851 193 803 q 356 937 282 899 q 462 983 414 966 q 553 1008 510 1000 q 637 1016 597 1016 q 718 1011 677 1016 q 801 998 758 1006 q 893 982 844 990 q 902 975 899 977 q 906 969 906 974 q 969 708 938 833 q 997 599 982 655 q 1025 491 1011 543 q 1052 393 1039 439 q 1076 314 1065 347 q 1084 382 1080 340 q 1094 479 1088 425 q 1108 597 1099 534 q 1129 726 1116 660 q 1161 858 1143 792 q 1206 985 1180 924 q 1266 1100 1232 1046 q 1345 1192 1301 1153 z "},"O":{"ha":978,"x_min":168,"x_max":981,"o":"m 421 812 q 586 961 507 907 q 733 1030 666 1014 q 853 1030 801 1047 q 937 967 905 1013 q 975 850 968 922 q 958 688 981 779 q 877 487 934 596 q 723 258 819 378 q 537 68 623 132 q 384 -12 452 3 q 269 1 317 -26 q 195 88 220 29 q 169 231 170 147 q 195 411 168 315 q 277 611 221 507 q 421 812 333 714 m 717 297 q 814 464 781 379 q 857 628 848 549 q 850 772 865 706 q 805 883 836 839 q 726 945 773 928 q 624 942 680 962 q 504 860 568 922 q 376 683 441 798 q 319 548 340 619 q 294 410 299 477 q 298 282 289 342 q 331 179 308 222 q 391 114 355 136 q 476 103 427 93 q 585 159 525 113 q 717 297 646 205 z "},"P":{"ha":1090,"x_min":176,"x_max":1102,"o":"m 459 1004 q 619 1064 538 1048 q 774 1074 700 1080 q 912 1040 848 1067 q 1019 970 975 1013 q 1082 869 1063 926 q 1089 744 1102 811 q 1026 601 1076 676 q 880 447 976 526 q 791 388 833 410 q 712 355 749 366 q 643 341 675 344 q 584 342 611 339 q 578 323 579 332 q 578 309 578 314 q 555 239 570 275 q 518 171 539 203 q 472 113 498 139 q 420 72 447 87 q 489 71 450 72 q 564 68 528 70 q 650 66 606 67 q 596 14 623 34 q 535 -17 570 -6 q 448 -30 499 -28 q 321 -26 397 -31 q 360 25 344 3 q 390 67 377 47 q 413 112 403 88 q 433 170 423 136 q 459 275 446 215 q 490 406 473 334 q 527 561 507 478 q 571 736 547 644 l 519 801 l 722 906 q 711 863 718 891 q 696 799 705 836 q 676 719 687 762 q 654 630 665 675 q 631 539 642 585 q 610 453 620 494 q 657 436 630 445 q 715 426 684 428 q 779 429 746 423 q 843 455 812 435 q 902 513 874 475 q 952 611 930 550 q 969 712 970 663 q 951 804 968 761 q 903 885 934 848 q 833 950 873 922 q 747 996 793 978 q 650 1018 700 1013 q 550 1014 600 1023 q 453 979 500 1004 q 395 937 423 962 q 343 880 366 911 q 306 812 321 848 q 289 738 291 776 q 298 663 286 701 q 342 591 311 626 q 344 573 350 583 q 323 553 338 563 q 290 534 309 543 q 253 523 271 526 q 221 520 235 519 q 203 532 207 522 q 179 657 176 594 q 213 781 181 720 q 307 899 245 842 q 459 1004 368 956 z "},"Q":{"ha":1184,"x_min":147,"x_max":1495,"o":"m 1337 -6 q 1342 6 1333 -3 q 1369 24 1352 15 q 1409 41 1387 34 q 1450 46 1430 47 q 1482 34 1469 45 q 1495 -6 1495 22 q 1476 -60 1495 -29 q 1426 -123 1458 -91 q 1349 -188 1394 -156 q 1252 -245 1305 -220 q 1141 -286 1200 -271 q 1022 -302 1082 -302 q 891 -278 956 -302 q 766 -218 827 -254 q 649 -141 705 -182 q 548 -64 594 -100 q 465 -4 501 -28 q 406 20 429 20 q 369 14 392 20 q 318 0 346 7 q 262 -12 291 -7 q 210 -15 234 -18 q 169 -1 186 -13 q 149 39 153 12 q 162 84 147 67 q 202 109 178 100 q 258 118 227 117 q 319 115 289 119 q 374 105 349 112 q 412 92 399 99 q 445 112 416 92 q 518 170 474 132 q 616 260 563 207 q 721 380 670 313 q 816 524 772 446 q 884 689 860 602 q 899 768 894 724 q 900 856 904 812 q 879 935 895 899 q 829 991 863 972 q 741 1006 795 1010 q 609 964 688 1002 q 537 908 567 945 q 490 826 507 872 q 466 730 472 781 q 464 631 459 680 q 484 541 468 583 q 525 471 499 499 q 586 434 550 444 q 667 439 622 424 q 595 388 633 407 q 522 365 558 370 q 452 368 486 359 q 393 397 419 376 q 349 452 366 418 q 326 532 331 486 q 321 610 321 570 q 328 691 320 650 q 353 773 335 732 q 404 854 372 814 q 485 932 436 894 q 602 1004 533 970 q 769 1057 694 1050 q 901 1041 845 1063 q 994 974 958 1019 q 1042 871 1029 929 q 1044 749 1055 814 q 996 624 1034 684 q 908 500 958 563 q 804 378 858 437 q 695 267 749 319 q 593 173 640 214 q 510 105 545 132 q 458 72 474 79 q 495 54 469 68 q 559 19 522 39 q 642 -27 596 -2 q 740 -78 688 -52 q 844 -127 791 -104 q 950 -169 898 -151 q 1051 -196 1002 -186 q 1141 -203 1100 -206 q 1227 -188 1188 -200 q 1295 -159 1266 -176 q 1342 -122 1324 -142 q 1366 -80 1360 -101 q 1365 -40 1372 -60 q 1337 -6 1358 -21 z "},"R":{"ha":1147,"x_min":112,"x_max":1479,"o":"m 989 167 q 1084 39 1038 92 q 1173 -48 1130 -14 q 1256 -101 1216 -82 q 1335 -127 1297 -119 q 1409 -133 1373 -134 q 1479 -127 1444 -132 q 1324 -148 1397 -151 q 1186 -122 1251 -144 q 1064 -62 1121 -100 q 959 20 1008 -25 q 869 114 910 65 q 794 208 828 163 q 734 290 760 253 q 688 349 707 328 q 645 387 666 372 q 606 411 625 401 q 572 427 588 421 q 544 435 556 432 l 531 435 q 528 412 531 425 q 524 395 524 400 q 509 346 519 374 q 484 287 498 317 q 453 225 470 256 q 417 169 435 195 q 379 123 398 142 q 342 95 359 103 q 409 94 371 95 q 482 92 448 93 q 564 88 522 90 q 514 33 539 54 q 456 3 490 13 q 373 -7 422 -7 q 250 -3 323 -8 q 289 46 273 26 q 319 87 306 67 q 342 129 332 106 q 361 186 352 152 q 395 321 378 250 q 427 468 411 393 q 458 615 442 542 q 492 755 475 688 l 439 814 l 636 911 q 622 850 631 892 q 601 756 612 809 q 578 645 590 704 q 557 532 567 586 q 601 522 575 526 q 655 519 627 517 q 714 530 684 521 q 771 558 744 538 q 819 610 798 578 q 852 689 840 642 q 856 813 868 756 q 812 913 844 870 q 731 986 780 957 q 625 1025 683 1015 q 504 1026 567 1035 q 381 984 441 1017 q 324 943 352 968 q 274 887 296 918 q 237 822 252 857 q 220 751 223 787 q 229 680 218 715 q 271 611 241 644 q 271 593 277 603 q 251 574 264 583 q 219 557 237 564 q 184 545 201 549 q 155 543 168 541 q 139 552 142 544 q 113 671 112 611 q 145 791 115 732 q 234 905 175 850 q 381 1010 293 961 q 534 1067 457 1050 q 683 1082 612 1084 q 814 1059 753 1080 q 916 1004 874 1039 q 977 920 958 968 q 986 814 997 872 q 931 689 976 755 q 800 552 886 623 q 735 508 765 527 q 681 473 706 488 q 748 438 713 461 q 823 378 784 415 q 903 290 861 342 q 989 167 945 237 z "},"S":{"ha":878,"x_min":161,"x_max":881,"o":"m 399 744 q 427 696 402 718 q 488 653 451 673 q 570 613 525 633 q 661 572 616 593 q 748 528 707 551 q 818 477 789 505 q 859 416 847 449 q 859 342 871 382 q 794 195 835 257 q 703 91 753 132 q 596 26 653 49 q 483 -2 540 3 q 374 3 427 -7 q 277 36 321 13 q 203 96 234 60 q 161 177 172 132 l 287 256 q 305 230 293 248 q 333 189 317 212 q 371 143 350 167 q 419 99 393 119 q 475 65 445 79 q 538 50 505 52 q 610 61 572 48 q 688 105 648 73 q 768 190 747 151 q 783 263 789 229 q 746 328 776 298 q 673 385 716 357 q 581 437 631 412 q 483 486 530 462 q 395 535 435 511 q 332 586 355 560 q 293 659 301 622 q 291 732 284 696 q 316 801 298 768 q 357 861 334 833 q 401 908 379 888 q 438 941 423 929 q 580 1024 515 1000 q 699 1045 645 1047 q 794 1019 753 1042 q 866 961 836 996 q 877 918 881 943 q 857 869 872 894 q 821 820 842 844 q 781 781 800 797 q 750 759 762 765 q 741 764 738 753 q 755 857 761 817 q 725 923 749 897 q 666 963 702 950 q 592 976 631 977 q 514 961 553 975 q 448 917 476 946 q 405 845 419 888 q 399 744 390 802 z "},"T":{"ha":993,"x_min":117,"x_max":1144,"o":"m 1128 1011 q 1139 1008 1144 1015 q 1114 991 1133 1002 q 1063 967 1094 981 q 997 940 1032 953 q 927 919 962 928 q 862 907 891 909 l 713 907 q 702 844 708 880 q 689 769 696 808 q 674 688 682 729 q 658 608 666 646 q 643 534 650 569 q 629 474 635 500 q 604 399 619 438 q 572 322 589 360 q 535 248 554 283 q 498 183 516 212 q 466 134 481 154 q 441 105 451 113 q 456 104 443 105 q 488 102 469 103 q 530 100 507 101 q 576 99 553 99 q 617 100 598 99 q 648 105 637 102 q 608 72 629 90 q 562 38 587 54 q 508 11 537 22 q 441 0 478 0 l 319 0 q 371 80 345 33 q 419 181 393 121 q 467 325 445 242 q 489 430 478 374 q 510 543 500 486 q 529 654 519 600 q 547 754 538 709 q 563 833 555 800 q 577 881 570 867 q 588 898 582 891 q 604 915 593 904 q 522 918 562 917 q 445 920 481 920 q 378 918 408 920 q 325 915 347 917 q 276 893 297 910 q 242 851 255 876 q 224 797 229 826 q 222 740 219 768 q 238 685 226 711 q 273 643 251 660 q 327 619 295 625 q 401 623 359 613 q 326 576 363 594 q 293 561 310 568 q 260 552 276 555 q 229 550 243 549 q 202 558 214 551 q 137 625 158 583 q 126 720 117 667 q 176 829 135 772 q 298 940 218 886 q 412 989 347 974 q 549 1008 476 1004 q 701 1009 623 1013 q 855 1002 779 1006 q 1001 999 931 999 q 1128 1011 1071 1000 z "},"U":{"ha":1219,"x_min":140,"x_max":1270,"o":"m 1145 851 q 1135 801 1142 838 q 1118 713 1128 764 q 1095 600 1107 662 q 1067 475 1082 538 q 1035 350 1052 412 q 1001 238 1019 289 q 964 152 983 188 q 925 104 945 117 q 955 97 932 99 q 1009 94 978 94 q 1078 97 1041 94 q 1152 104 1116 99 q 1123 72 1145 90 q 1073 38 1101 54 q 1015 11 1044 22 q 964 0 986 0 q 913 -2 939 -3 q 865 1 886 -1 q 814 7 839 4 q 852 103 834 48 q 888 222 871 159 q 921 353 905 286 q 951 487 937 421 q 852 281 905 374 q 745 125 799 189 q 640 27 691 60 q 549 -3 589 -7 q 482 43 509 0 q 451 176 456 86 q 457 296 448 231 q 484 431 466 362 q 527 570 502 500 q 583 704 553 640 q 645 822 612 768 q 711 916 678 877 q 625 935 665 928 q 547 942 585 941 q 472 940 509 943 q 393 928 434 936 q 338 905 361 922 q 299 867 314 889 q 280 818 285 844 q 284 763 276 791 q 314 710 292 736 q 373 663 336 684 q 370 648 379 658 q 341 626 360 637 q 297 605 322 615 q 249 588 273 594 q 206 582 225 582 q 178 591 186 581 q 146 670 151 625 q 159 761 140 714 q 223 853 178 808 q 340 935 267 899 q 441 980 397 963 q 523 1007 486 998 q 593 1018 560 1016 q 661 1017 626 1020 q 734 1008 695 1015 q 821 994 772 1002 q 808 984 816 989 q 795 974 800 979 q 718 837 755 913 q 651 677 681 760 q 601 511 621 595 q 572 355 580 428 q 570 225 564 282 q 600 137 576 168 q 650 116 621 111 q 710 150 678 122 q 777 222 743 178 q 845 320 812 267 q 909 428 878 373 q 964 532 939 484 q 998 672 981 606 q 1033 791 1015 739 q 1069 880 1051 844 q 1107 928 1087 916 q 1064 938 1090 933 q 1008 943 1038 942 q 947 942 979 945 q 886 928 915 939 q 928 978 903 959 q 984 1008 954 998 q 1047 1022 1015 1019 q 1112 1025 1080 1026 q 1270 1000 1187 1023 q 1233 975 1250 985 q 1200 950 1215 964 q 1171 912 1185 935 q 1145 851 1158 890 z "},"V":{"ha":1158,"x_min":85,"x_max":1162,"o":"m 992 1022 q 1059 1007 1029 1023 q 1112 961 1089 990 q 1146 891 1134 931 q 1160 808 1159 852 q 1150 719 1162 764 q 1112 633 1139 674 q 1030 513 1075 571 q 939 394 985 454 q 845 268 892 334 q 757 125 798 202 q 734 47 751 85 q 684 -26 718 8 q 684 -20 684 -21 q 690 -13 685 -18 q 686 76 699 28 q 649 177 673 123 q 594 289 625 231 q 537 409 564 347 q 493 536 511 471 q 477 668 475 602 q 505 802 479 734 q 591 935 530 869 q 550 938 574 935 q 496 942 526 940 q 435 945 467 944 q 371 945 403 947 q 309 936 339 943 q 255 916 279 929 q 222 883 237 906 q 200 829 208 859 q 192 765 192 798 q 204 701 193 731 q 241 646 216 670 q 308 613 267 623 q 304 606 313 613 q 281 589 296 599 q 246 567 266 578 q 207 548 226 556 q 172 537 187 540 q 150 541 156 534 q 100 617 115 578 q 86 693 85 655 q 99 767 86 731 q 134 836 113 803 q 184 897 156 868 q 241 949 212 926 q 328 999 284 980 q 413 1026 371 1017 q 495 1037 454 1036 q 572 1035 535 1038 q 642 1025 609 1031 q 703 1015 675 1019 q 625 903 650 959 q 593 791 599 847 q 597 681 587 736 q 626 571 607 625 q 667 462 644 516 q 711 356 690 408 q 744 252 731 303 q 757 151 758 201 q 820 253 786 202 q 886 356 853 304 q 948 458 919 407 q 999 561 978 509 q 1029 663 1020 612 q 1033 765 1039 713 q 1011 840 1026 810 q 976 888 996 869 q 933 916 956 907 q 887 927 909 924 q 844 928 865 930 q 808 923 823 926 q 855 952 831 935 q 903 985 880 969 q 950 1011 927 1000 q 992 1022 972 1022 z "},"W":{"ha":1592,"x_min":114,"x_max":1621,"o":"m 1503 1017 q 1563 999 1539 1018 q 1600 948 1587 980 q 1617 875 1613 916 q 1616 791 1621 834 q 1599 708 1611 749 q 1569 636 1587 667 q 1477 500 1529 570 q 1368 359 1425 431 q 1252 210 1311 286 q 1142 53 1194 134 q 1119 9 1133 33 q 1089 -39 1105 -15 q 1073 56 1084 9 q 1044 147 1061 103 q 1008 233 1028 191 q 965 315 987 275 q 877 177 920 245 q 788 45 833 110 q 763 -6 779 16 q 722 -53 747 -28 q 725 36 736 -12 q 691 139 715 85 q 636 254 667 194 q 577 378 605 314 q 530 509 549 442 q 511 644 511 576 q 537 781 511 712 q 623 918 562 850 q 585 920 608 918 q 532 924 561 922 q 471 928 503 926 q 407 927 439 929 q 344 918 374 924 q 290 899 314 911 q 254 865 270 888 q 230 810 239 841 q 222 745 222 779 q 235 681 222 711 q 274 628 248 650 q 342 597 300 605 q 339 587 347 595 q 314 568 330 578 q 277 546 298 557 q 237 527 256 534 q 201 518 217 520 q 178 525 184 517 q 129 601 144 562 q 114 677 114 640 q 129 750 115 714 q 165 819 142 786 q 216 880 187 852 q 276 932 245 909 q 408 1001 342 981 q 535 1023 474 1021 q 650 1016 595 1025 q 749 997 705 1006 q 665 883 692 941 q 632 768 638 825 q 638 653 627 711 q 669 538 649 595 q 713 426 689 481 q 759 315 738 370 q 792 208 779 260 q 801 104 805 155 q 868 218 831 159 q 945 341 906 277 q 891 435 916 391 q 847 518 867 479 q 808 622 819 574 q 800 711 798 670 q 814 787 802 753 q 844 849 827 822 q 881 898 861 877 q 917 933 901 919 q 945 955 934 947 q 958 964 957 962 q 994 984 975 974 q 1031 1003 1013 995 q 1067 1017 1049 1012 q 1103 1023 1086 1023 q 1166 1010 1139 1025 q 1211 969 1194 996 q 1235 907 1228 943 q 1238 827 1242 870 q 1219 738 1234 785 q 1175 643 1203 690 q 1112 543 1145 593 q 1044 439 1078 493 q 1107 322 1078 380 q 1155 210 1135 264 q 1164 170 1160 190 q 1162 131 1167 151 q 1236 241 1196 186 q 1314 349 1276 295 q 1387 455 1352 402 q 1445 560 1421 507 q 1480 666 1470 613 q 1483 774 1491 720 q 1468 849 1478 820 q 1444 894 1458 878 q 1415 916 1431 910 q 1381 922 1399 922 q 1346 919 1364 922 q 1312 911 1329 915 q 1359 942 1335 924 q 1408 976 1383 960 q 1456 1005 1432 993 q 1503 1017 1480 1017 m 899 741 q 949 609 914 677 q 1024 472 984 541 q 1065 550 1046 511 q 1098 626 1084 589 q 1118 697 1112 663 q 1122 761 1125 731 q 1104 861 1118 820 q 1069 927 1090 903 q 1024 957 1049 951 q 971 951 998 963 q 945 933 962 946 q 916 895 929 920 q 896 833 903 871 q 899 741 890 795 z "},"X":{"ha":1127,"x_min":-275,"x_max":1286,"o":"m 1187 1044 q 1246 1033 1225 1044 q 1277 1001 1267 1021 q 1284 955 1286 981 q 1273 900 1282 928 q 1249 844 1264 872 q 1216 790 1234 815 q 1178 746 1198 766 q 1142 717 1159 727 q 1169 794 1160 756 q 1176 864 1178 833 q 1161 917 1174 895 q 1124 945 1149 939 q 1063 939 1099 951 q 976 891 1026 927 q 863 791 926 854 q 723 633 800 728 q 750 506 736 570 q 779 382 764 442 q 807 271 793 323 q 833 179 821 218 q 858 118 846 140 q 880 95 870 95 q 921 103 902 93 q 959 129 941 113 q 996 166 977 146 q 1037 207 1015 187 q 1014 169 1029 193 q 977 117 998 144 q 930 61 956 89 q 877 15 904 34 q 823 -11 850 -4 q 772 -5 796 -18 q 729 44 749 7 q 697 148 709 80 q 681 221 690 180 q 663 308 673 262 q 642 403 653 353 q 618 501 631 452 q 539 388 578 447 q 455 258 499 328 q 250 -8 347 98 q 72 -177 153 -115 q -75 -262 -10 -239 q -185 -280 -140 -286 q -253 -246 -230 -275 q -272 -176 -275 -218 q -239 -85 -269 -134 q -147 11 -209 -36 q -156 -24 -153 -3 q -158 -69 -159 -45 q -151 -116 -157 -93 q -133 -157 -145 -140 q -100 -184 -120 -175 q -51 -190 -80 -194 q 16 -166 -22 -186 q 103 -104 54 -146 q 214 2 153 -63 q 350 161 275 67 q 471 330 404 235 q 612 528 538 425 q 591 628 602 579 q 571 719 581 677 q 553 792 562 760 q 540 842 545 824 q 504 912 525 889 q 459 942 483 935 q 412 943 436 949 q 367 926 388 937 q 329 904 345 916 q 304 887 313 892 q 356 938 326 911 q 421 985 387 964 q 491 1016 455 1005 q 558 1022 526 1027 q 616 991 591 1017 q 657 914 642 966 q 682 804 667 869 q 716 659 696 738 q 839 807 777 737 q 962 930 901 878 q 1079 1014 1022 983 q 1187 1044 1136 1044 z "},"Y":{"ha":1265,"x_min":102,"x_max":1314,"o":"m 1242 1014 q 1305 920 1297 986 q 1287 762 1314 854 q 1203 560 1260 670 q 1068 335 1145 450 q 901 107 991 220 q 715 -103 810 -6 q 529 -274 621 -200 q 358 -387 437 -349 q 217 -420 278 -425 q 123 -353 156 -415 q 104 -275 102 -313 q 124 -204 106 -237 q 172 -144 142 -172 q 236 -97 201 -117 q 307 -66 271 -77 q 372 -53 342 -54 q 314 -90 337 -66 q 280 -140 291 -113 q 269 -194 269 -167 q 283 -241 270 -220 q 324 -271 297 -261 q 391 -275 351 -281 q 485 -242 431 -269 q 608 -163 539 -216 q 693 -77 646 -129 q 790 39 741 -25 q 768 126 787 80 q 725 224 750 173 q 673 330 701 275 q 624 443 646 385 q 589 561 602 500 q 581 683 576 621 q 611 806 585 744 q 692 929 637 868 q 652 931 676 929 q 598 936 627 933 q 538 939 570 938 q 474 938 506 940 q 412 929 442 936 q 358 909 382 922 q 326 876 340 899 q 303 823 311 852 q 296 760 296 793 q 309 697 297 726 q 346 645 321 667 q 411 615 370 623 q 410 605 417 614 q 389 586 404 597 q 354 565 374 576 q 315 546 334 553 q 279 537 295 538 q 254 543 262 535 q 205 618 220 581 q 191 693 191 656 q 205 765 191 730 q 241 831 218 800 q 292 891 263 863 q 352 942 321 919 q 437 994 395 975 q 520 1022 479 1013 q 601 1031 562 1031 q 677 1028 640 1032 q 747 1018 714 1025 q 810 1007 781 1012 q 730 897 756 952 q 697 786 704 841 q 700 676 690 731 q 728 567 710 621 q 770 460 747 513 q 813 356 793 408 q 848 255 834 304 q 862 157 862 205 l 862 131 q 954 267 909 196 q 1037 408 998 337 q 1107 547 1076 479 q 1157 675 1138 615 q 1179 785 1175 736 q 1168 867 1183 834 q 1117 913 1153 900 q 1020 916 1081 926 q 1118 972 1073 949 q 1157 992 1137 983 q 1193 1007 1176 1001 q 1223 1016 1210 1013 q 1242 1014 1236 1018 z "},"Z":{"ha":996,"x_min":174,"x_max":1473,"o":"m 1457 35 q 1468 0 1473 19 q 1442 -40 1463 -20 q 1390 -80 1422 -60 q 1318 -118 1357 -100 q 1237 -151 1279 -136 q 1155 -174 1194 -165 q 1081 -184 1115 -182 q 1023 -178 1046 -186 q 925 -143 968 -162 q 844 -105 881 -125 q 777 -65 808 -85 q 715 -28 745 -45 q 653 4 684 -11 q 584 28 621 18 q 480 60 526 45 q 394 82 434 76 q 315 81 353 88 q 233 48 277 75 q 213 30 221 41 q 199 8 204 20 q 194 -15 195 -3 q 195 -37 193 -26 q 177 -14 181 -27 q 179 13 174 -3 q 208 48 184 28 q 315 129 267 92 q 409 207 364 167 q 498 294 454 247 q 590 404 542 341 q 532 408 561 406 q 479 410 504 409 q 435 410 454 410 q 403 410 415 410 q 460 452 433 434 q 484 468 472 460 q 506 481 495 475 q 525 491 516 488 q 538 495 533 495 l 648 495 q 700 573 673 531 q 756 663 726 614 q 818 767 785 711 q 888 889 851 823 l 861 889 q 759 906 815 896 q 646 924 703 916 q 533 936 588 932 q 435 935 478 939 q 382 908 406 930 q 344 858 358 887 q 329 798 330 829 q 342 741 327 766 q 390 702 357 716 q 480 695 423 688 q 480 686 488 696 q 455 662 473 676 q 412 632 437 648 q 360 609 387 617 q 309 602 334 600 q 267 623 284 604 q 222 702 230 660 q 233 786 214 743 q 296 872 252 829 q 408 954 340 915 q 534 1003 471 991 q 659 1015 597 1016 q 781 1006 720 1015 q 901 994 842 998 q 1018 995 960 989 q 1133 1025 1076 1000 q 1081 965 1114 996 q 1004 916 1048 935 q 957 834 985 882 q 892 731 929 787 q 811 616 856 676 q 713 495 766 555 l 952 495 q 881 450 918 469 q 847 433 865 441 q 810 418 829 425 q 771 408 791 412 q 732 404 751 404 l 642 404 q 520 276 583 340 q 389 157 458 212 q 475 168 431 170 q 571 151 519 165 q 683 110 623 136 q 816 48 743 84 q 864 22 837 37 q 923 -10 892 7 q 989 -44 955 -27 q 1057 -78 1023 -62 q 1123 -106 1090 -94 q 1185 -127 1156 -119 q 1228 -133 1204 -134 q 1273 -125 1251 -132 q 1313 -105 1295 -118 q 1337 -76 1330 -93 q 1338 -37 1344 -58 q 1308 9 1333 -16 q 1314 21 1307 14 q 1334 36 1321 28 q 1363 48 1347 43 q 1397 55 1380 54 q 1430 52 1414 56 q 1457 35 1446 47 z "},"[":{"ha":490,"x_min":105,"x_max":713,"o":"m 105 -201 l 378 1171 l 713 1171 l 705 1130 l 487 1130 l 231 -159 l 448 -159 l 439 -201 l 105 -201 z "},"\\":{"ha":705,"x_min":248,"x_max":648,"o":"m 578 -201 l 248 1171 l 317 1171 l 648 -201 l 578 -201 z "},"]":{"ha":490,"x_min":-30,"x_max":578,"o":"m 578 1171 l 305 -201 l -30 -201 l -22 -159 l 196 -159 l 452 1130 l 235 1130 l 243 1171 l 578 1171 z "},"^":{"ha":878,"x_min":125,"x_max":861,"o":"m 125 268 l 640 1004 l 861 268 l 781 268 l 613 834 l 215 268 l 125 268 z "},"_":{"ha":694,"x_min":50,"x_max":627,"o":"m 50 -88 l 67 0 l 627 0 l 610 -88 l 50 -88 z "},"`":{"ha":812,"x_min":539,"x_max":766,"o":"m 766 924 l 680 870 q 539 1050 631 968 l 620 1113 q 766 924 704 1029 z "},"a":{"ha":599,"x_min":2,"x_max":619,"o":"m 473 92 q 491 97 481 92 q 514 112 502 102 q 538 132 526 121 q 562 156 551 144 q 619 220 589 184 q 533 113 576 161 q 494 74 515 93 q 451 40 473 55 q 409 15 430 24 q 368 6 388 6 q 341 28 350 6 q 332 89 333 51 q 335 177 330 127 q 350 281 340 227 q 285 174 318 224 q 220 87 252 124 q 157 28 188 50 q 99 6 126 6 q 35 38 58 6 q 7 122 13 70 q 13 241 2 174 q 47 377 23 307 q 109 513 72 446 q 195 631 146 579 q 300 715 243 684 q 424 747 358 747 l 467 747 l 522 747 l 564 747 q 552 694 561 731 q 530 609 543 658 q 505 502 518 559 q 479 387 491 445 q 459 276 467 330 q 448 182 450 223 q 451 116 446 141 q 473 92 456 92 m 178 117 q 220 139 197 117 q 269 197 243 161 q 320 279 294 233 q 368 374 345 326 q 384 456 375 415 q 402 534 393 496 q 420 606 412 572 q 436 667 429 640 q 393 668 418 667 q 341 665 368 669 q 290 649 315 661 q 246 612 264 637 q 224 572 236 600 q 199 507 212 544 q 176 426 187 469 q 157 339 165 382 q 145 256 149 296 q 143 185 141 216 q 153 135 144 154 q 178 117 161 117 z "},"b":{"ha":565,"x_min":35,"x_max":568,"o":"m 522 713 q 561 634 553 682 q 558 531 568 587 q 524 413 549 475 q 463 292 498 351 q 385 178 427 232 q 297 83 342 124 q 207 19 252 43 q 123 -5 162 -5 q 63 29 83 -5 q 39 123 43 64 q 44 260 35 182 q 71 426 54 338 q 111 605 88 513 q 157 782 134 696 q 203 942 181 867 q 239 1069 224 1016 l 184 1136 l 393 1248 q 384 1202 391 1236 q 364 1121 376 1169 q 337 1011 352 1072 q 305 882 321 951 q 272 741 289 814 q 239 596 255 668 q 334 701 286 661 q 378 730 355 718 q 426 747 401 743 q 474 743 450 751 q 522 713 498 736 m 215 87 q 276 109 247 87 q 328 167 304 131 q 371 250 352 203 q 404 348 391 297 q 424 448 417 398 q 431 540 431 498 q 423 614 431 583 q 399 658 416 645 q 366 670 384 670 q 330 660 348 669 q 293 633 311 650 q 260 594 275 616 q 233 548 245 572 q 215 498 221 523 q 194 395 205 446 q 174 299 183 345 q 160 215 165 254 q 158 148 155 176 q 174 103 161 119 q 215 87 187 87 z "},"c":{"ha":457,"x_min":-19,"x_max":526,"o":"m 443 644 q 391 648 420 644 q 334 654 362 652 q 280 652 305 656 q 238 632 254 648 q 213 593 228 622 q 181 525 197 565 q 150 439 165 486 q 124 345 135 392 q 109 253 113 297 q 110 174 104 208 q 133 119 115 140 q 182 98 150 98 q 219 106 199 98 q 260 128 239 115 q 304 159 282 142 q 348 195 327 176 q 449 291 397 237 q 326 148 389 210 q 270 96 300 121 q 208 50 239 70 q 145 18 176 30 q 83 5 113 5 q 25 23 47 5 q -7 71 3 41 q -18 140 -18 101 q -13 222 -19 179 q 3 308 -7 264 q 27 390 14 352 q 53 459 39 429 q 77 508 66 490 q 147 600 102 555 q 245 682 191 646 q 359 741 300 718 q 474 763 418 763 q 510 754 498 763 q 524 732 522 745 q 519 704 526 719 q 501 675 513 688 q 474 653 489 662 q 443 644 458 644 z "},"d":{"ha":538,"x_min":-31,"x_max":612,"o":"m 444 111 q 498 126 470 111 q 550 161 526 142 q 605 211 578 183 q 507 105 555 152 q 465 66 487 85 q 421 33 443 47 q 380 8 400 18 q 345 -1 361 -1 q 312 17 323 -1 q 294 66 300 35 q 290 141 289 98 q 295 235 290 184 q 237 144 267 186 q 178 69 208 101 q 119 18 148 37 q 65 -1 91 -1 q 1 32 23 -1 q -26 117 -21 64 q -20 237 -31 170 q 16 375 -9 304 q 79 513 41 446 q 165 633 117 581 q 272 719 214 686 q 395 751 330 751 q 414 850 406 804 q 428 937 421 896 q 440 1014 434 977 q 456 1086 447 1050 l 401 1148 l 612 1260 q 598 1205 608 1246 q 572 1105 587 1164 q 540 971 557 1045 q 505 815 522 897 q 470 651 487 734 q 440 489 453 567 q 418 342 427 410 q 409 222 410 273 q 416 141 408 170 q 444 111 425 111 m 146 111 q 182 127 163 111 q 222 171 201 144 q 265 235 243 199 q 308 311 287 271 q 319 394 312 350 q 334 483 326 437 q 354 574 343 528 q 376 664 364 620 q 333 666 355 666 q 290 660 311 665 q 250 644 269 655 q 215 614 231 633 q 192 571 204 600 q 168 505 180 543 q 144 422 155 467 q 125 335 133 378 q 112 251 117 291 q 110 179 108 210 q 120 130 112 149 q 146 111 129 111 z "},"e":{"ha":490,"x_min":37,"x_max":499,"o":"m 305 460 q 197 420 224 427 q 185 367 191 398 q 177 303 180 336 q 174 236 174 269 q 181 176 175 203 q 200 134 187 150 q 235 117 213 117 q 274 125 253 117 q 315 145 294 133 q 357 174 336 158 q 397 207 378 190 q 488 296 442 246 q 376 151 433 215 q 325 98 352 124 q 269 52 297 72 q 211 19 240 31 q 155 7 182 7 q 84 30 110 7 q 48 90 59 54 q 37 173 37 127 q 45 263 38 218 q 64 346 52 307 q 86 408 75 385 q 111 465 96 431 q 149 538 127 500 q 200 615 171 576 q 264 684 229 653 q 344 733 300 714 q 438 753 387 753 q 477 744 463 753 q 495 720 490 734 q 496 686 499 705 q 485 647 493 667 q 466 608 477 627 q 444 573 455 589 q 423 548 433 557 q 404 529 413 538 q 364 498 395 520 q 305 460 334 476 m 271 635 q 252 593 262 619 q 232 538 241 567 q 216 481 223 509 q 203 432 208 453 q 277 466 243 446 q 335 513 311 486 q 374 575 360 540 q 388 654 388 610 q 375 685 388 675 q 344 693 362 694 q 306 677 326 691 q 271 635 286 663 z "},"f":{"ha":427,"x_min":-460,"x_max":779,"o":"m 705 1284 q 754 1277 738 1284 q 774 1257 770 1269 q 772 1232 779 1246 q 751 1206 765 1218 q 719 1187 738 1195 q 681 1179 701 1179 q 623 1183 653 1179 q 563 1184 593 1186 q 503 1169 533 1182 q 446 1124 473 1156 q 412 1065 429 1105 q 378 972 395 1025 q 346 856 361 919 q 315 728 330 793 l 545 728 q 559 725 560 728 q 547 717 558 722 q 516 706 535 712 q 478 696 498 701 q 441 688 459 691 q 414 685 424 685 l 303 685 q 268 511 285 597 q 237 349 252 426 q 208 206 222 272 q 180 92 194 140 q 139 -16 164 47 q 77 -145 113 -78 q -8 -279 40 -213 q -117 -397 -56 -345 q -252 -482 -178 -450 q -414 -514 -326 -514 q -446 -505 -435 -514 q -458 -484 -457 -496 q -453 -455 -460 -471 q -431 -427 -446 -440 q -397 -406 -417 -414 q -352 -397 -377 -397 q -287 -402 -317 -397 q -230 -409 -256 -407 q -180 -407 -203 -412 q -136 -385 -157 -403 q -65 -300 -98 -353 q -3 -181 -32 -248 q 49 -36 25 -114 q 92 123 73 41 q 129 285 112 204 q 159 440 145 366 q 183 576 172 513 q 204 685 195 640 l 62 685 q 57 692 51 685 q 76 706 62 699 q 105 721 89 714 q 130 728 121 728 l 210 728 q 258 861 229 794 q 325 990 288 928 q 407 1106 363 1053 q 500 1199 451 1160 q 601 1262 549 1239 q 705 1284 652 1284 z "},"g":{"ha":585,"x_min":-193,"x_max":585,"o":"m 585 757 q 557 620 571 692 q 528 477 543 549 q 500 336 514 405 q 472 207 486 267 q 447 98 459 146 q 424 18 435 50 q 384 -84 408 -26 q 326 -201 360 -141 q 246 -318 292 -260 q 142 -420 201 -376 q 12 -493 84 -465 q -146 -520 -60 -520 q -179 -511 -168 -520 q -191 -490 -189 -503 q -185 -461 -193 -477 q -165 -433 -178 -446 q -133 -412 -152 -420 q -90 -403 -113 -403 q -22 -408 -53 -403 q 35 -415 9 -413 q 83 -413 60 -417 q 127 -390 106 -408 q 193 -310 162 -359 q 252 -198 224 -260 q 302 -64 279 -136 q 345 82 325 7 q 381 233 365 157 q 412 378 398 308 q 364 287 389 332 q 313 201 339 241 q 260 126 287 160 q 208 66 234 92 q 156 27 181 41 q 107 13 131 13 q 55 34 75 13 q 25 90 35 54 q 18 174 16 126 q 30 275 19 221 q 61 385 41 328 q 109 495 81 441 q 172 596 136 549 q 248 680 207 644 q 337 736 290 715 q 437 757 385 757 l 492 757 l 530 757 l 585 757 m 189 124 q 227 142 205 124 q 271 190 248 159 q 317 259 294 220 q 362 342 340 298 q 404 430 385 385 q 437 515 422 475 q 449 598 441 562 q 467 663 458 635 q 461 669 463 668 q 449 669 458 669 q 406 670 430 669 q 355 668 381 671 q 303 654 329 665 q 256 620 277 643 q 234 579 246 607 q 211 514 222 551 q 188 433 199 477 q 170 347 178 390 q 157 263 161 303 q 155 192 153 223 q 164 143 157 161 q 189 124 172 124 z "},"h":{"ha":626,"x_min":-20,"x_max":683,"o":"m 522 87 q 549 94 534 87 q 581 110 565 100 q 614 132 597 120 q 644 155 630 144 q 668 175 658 166 q 683 186 678 183 q 647 145 669 168 q 598 100 625 123 q 545 56 572 77 q 492 18 517 35 q 447 -8 467 1 q 416 -18 427 -18 q 376 0 389 -18 q 361 52 363 19 q 364 127 358 84 q 380 219 370 170 q 404 319 391 267 q 428 420 416 371 q 449 513 440 469 q 460 592 458 557 q 455 647 462 626 q 428 671 448 668 q 393 657 412 672 q 351 615 373 642 q 305 549 329 587 q 257 465 281 511 q 211 367 233 418 q 168 261 188 315 q 146 167 156 210 q 128 93 136 125 q 116 42 121 62 q 112 18 112 23 q 99 2 111 12 q 70 -17 87 -8 q 36 -31 54 -26 q 5 -33 18 -36 q -15 -15 -9 -29 q -12 31 -20 0 q 8 114 -4 64 q 36 225 21 163 q 70 359 52 288 q 106 505 87 430 q 144 657 125 581 q 182 807 163 734 q 217 947 201 880 q 248 1067 234 1013 l 180 1142 l 410 1259 q 395 1198 406 1244 q 369 1086 385 1153 q 333 937 353 1019 q 291 764 313 854 q 247 581 269 673 q 205 404 225 489 q 283 553 239 487 q 375 664 328 618 q 472 733 423 709 q 565 757 520 757 q 595 737 586 756 q 604 685 604 718 q 597 610 604 652 q 579 519 590 567 q 554 420 568 471 q 529 321 541 369 q 508 231 517 273 q 496 157 499 189 q 499 106 494 125 q 522 87 505 87 z "},"i":{"ha":388,"x_min":67,"x_max":422,"o":"m 75 623 q 90 638 78 627 q 120 663 102 649 q 161 692 138 677 q 209 719 184 707 q 260 739 234 731 q 311 747 287 747 q 337 719 334 747 q 332 645 340 691 q 307 540 324 599 q 271 420 290 481 q 234 300 252 359 q 205 195 216 241 q 194 121 194 149 q 212 93 195 93 q 255 105 231 93 q 301 132 279 117 q 342 163 324 148 q 367 186 360 179 q 335 146 355 168 q 291 103 315 125 q 241 62 267 81 q 192 27 215 42 q 149 3 168 12 q 119 -6 130 -6 q 82 12 94 -6 q 69 62 71 31 q 74 136 67 94 q 92 226 80 178 q 117 324 103 274 q 146 421 132 374 q 172 511 160 469 q 189 585 183 553 q 194 635 195 617 q 181 654 193 654 q 152 650 167 654 q 122 641 136 646 q 95 630 107 635 q 75 623 83 625 m 243 970 q 266 989 252 977 q 292 1013 279 1000 q 318 1038 306 1026 q 336 1057 330 1050 q 358 1036 346 1048 q 382 1010 370 1023 q 405 983 394 996 q 422 958 416 969 q 404 939 413 948 q 385 919 395 929 q 359 899 374 909 q 323 877 345 888 q 288 926 310 900 q 243 970 266 951 z "},"j":{"ha":309,"x_min":-401,"x_max":394,"o":"m 56 633 q 71 648 60 637 q 99 673 82 659 q 139 701 117 686 q 186 728 161 716 q 237 748 211 741 q 290 756 264 756 q 301 731 300 756 q 297 664 302 706 q 282 568 292 623 q 258 456 271 514 q 231 339 245 397 q 204 230 217 280 q 181 141 191 179 q 167 86 172 103 q 78 -156 125 -55 q -18 -324 31 -256 q -118 -431 -68 -392 q -215 -488 -168 -470 q -304 -506 -262 -506 q -380 -498 -346 -507 q -397 -481 -394 -493 q -397 -455 -401 -469 q -382 -426 -393 -441 q -356 -400 -371 -411 q -324 -385 -342 -389 q -288 -387 -306 -380 q -201 -399 -240 -404 q -131 -373 -163 -394 q -74 -317 -99 -351 q -29 -242 -49 -283 q 6 -157 -9 -201 q 33 -71 22 -113 q 54 7 45 -28 q 69 68 62 43 q 88 139 77 98 q 111 228 99 180 q 134 327 123 276 q 155 426 146 377 q 171 517 165 474 q 178 593 178 561 q 174 645 179 626 q 154 664 168 664 q 125 660 140 664 q 96 651 110 656 q 72 641 83 646 q 56 633 61 635 m 216 970 q 239 989 224 977 q 267 1014 253 1001 q 292 1038 281 1026 q 308 1057 304 1050 q 329 1035 317 1047 q 353 1010 341 1023 q 376 985 366 998 q 394 964 387 973 q 376 943 385 953 q 357 923 368 932 q 331 903 346 913 q 296 884 317 894 q 261 930 282 908 q 216 970 239 952 z "},"k":{"ha":648,"x_min":-1,"x_max":631,"o":"m 625 37 q 625 32 631 35 q 603 23 618 28 q 568 14 588 19 q 528 7 548 9 q 489 3 507 4 q 460 6 471 3 q 433 24 450 8 q 395 66 416 41 q 353 122 375 91 q 309 186 330 154 q 268 250 287 218 q 234 305 248 281 q 213 345 220 330 q 208 362 206 361 q 266 391 234 371 q 327 436 297 410 q 381 492 357 462 q 419 552 406 522 q 428 611 431 582 q 398 663 425 640 q 374 670 387 671 q 347 660 361 669 q 318 637 332 651 q 290 608 303 623 q 267 578 277 593 q 251 552 257 563 q 218 423 234 486 q 189 304 203 360 q 164 200 176 248 q 145 117 153 153 q 133 61 138 82 q 129 37 129 39 q 116 21 127 31 q 89 3 104 11 q 55 -10 73 -5 q 25 -12 38 -15 q 6 6 12 -8 q 5 49 -1 20 q 26 127 14 79 q 55 237 39 176 q 90 370 71 299 q 128 517 109 441 q 168 670 148 593 q 206 819 187 747 q 241 957 224 892 q 270 1074 257 1022 l 208 1141 l 422 1252 q 404 1177 418 1234 q 368 1036 389 1121 q 320 844 347 951 q 263 614 293 736 q 303 660 280 637 q 352 702 326 683 q 404 734 377 721 q 453 750 430 747 q 494 745 476 753 q 522 711 512 736 q 532 634 538 670 q 507 566 526 597 q 459 509 488 534 q 404 463 431 483 q 354 430 376 444 q 324 411 332 417 q 361 338 340 377 q 408 259 382 298 q 461 182 433 220 q 517 115 489 145 q 573 63 545 84 q 625 37 601 43 z "},"l":{"ha":314,"x_min":22,"x_max":356,"o":"m 178 109 q 230 124 203 109 q 280 159 258 140 q 332 208 307 180 q 237 107 283 151 q 195 70 217 88 q 152 37 174 52 q 111 15 131 23 q 74 6 91 6 q 36 40 47 6 q 23 132 24 74 q 32 268 22 191 q 56 432 41 345 q 91 610 71 519 q 131 787 111 701 q 172 948 152 873 q 208 1079 193 1024 l 148 1140 l 356 1251 q 343 1197 353 1238 q 318 1097 333 1156 q 285 964 303 1038 q 249 809 267 890 q 212 646 230 729 q 180 485 194 562 q 156 338 165 407 q 145 219 147 270 q 151 139 144 168 q 178 109 159 109 z "},"m":{"ha":993,"x_min":24,"x_max":1033,"o":"m 880 108 q 923 120 899 108 q 970 149 947 133 q 1010 180 993 165 q 1033 200 1028 195 q 1000 160 1021 182 q 956 117 980 138 q 905 75 931 95 q 855 39 879 54 q 812 14 831 23 q 783 4 793 4 q 743 22 756 4 q 728 71 730 40 q 731 143 725 102 q 747 231 736 184 q 770 328 757 278 q 794 424 783 377 q 814 514 806 471 q 825 589 823 557 q 820 642 827 622 q 794 665 813 663 q 759 653 779 668 q 717 610 739 639 q 670 542 694 582 q 623 455 646 502 q 577 355 600 408 q 537 249 555 302 q 500 65 509 128 q 490 48 500 60 q 463 22 479 35 q 429 -3 447 8 q 397 -16 411 -14 q 375 -7 382 -18 q 372 35 367 4 q 386 102 376 61 q 409 192 396 142 q 434 295 421 241 q 459 401 448 349 q 479 502 471 454 q 489 586 487 549 q 485 646 491 623 q 463 671 479 669 q 414 648 443 673 q 353 581 385 623 q 293 489 322 540 q 243 389 264 437 q 216 285 229 336 q 192 191 203 234 q 174 114 181 147 q 163 65 166 81 q 150 48 162 60 q 122 22 138 35 q 87 -3 106 8 q 55 -16 69 -14 q 33 -7 41 -18 q 29 35 24 4 q 44 101 34 61 q 68 191 55 142 q 97 293 82 239 q 126 398 113 346 q 149 497 139 450 q 162 581 159 545 q 160 640 165 618 q 139 665 155 663 q 107 660 123 665 q 75 646 90 654 q 48 631 60 638 q 29 622 36 624 q 46 640 33 627 q 81 671 60 654 q 128 706 102 688 q 181 734 154 723 q 236 748 209 745 q 286 739 263 751 q 296 708 295 734 q 291 642 296 682 q 277 551 286 602 q 256 445 267 500 q 311 552 279 498 q 380 650 343 606 q 458 720 418 694 q 537 745 498 747 q 591 723 574 743 q 611 673 608 703 q 610 607 615 643 q 598 536 605 571 q 580 453 589 494 q 562 371 571 412 q 637 531 594 460 q 728 650 680 602 q 826 722 777 698 q 922 745 876 747 q 957 717 949 745 q 961 645 965 690 q 944 543 957 600 q 915 426 930 486 q 885 309 900 366 q 863 208 871 252 q 858 135 855 163 q 880 108 861 108 z "},"n":{"ha":683,"x_min":37,"x_max":716,"o":"m 557 110 q 603 122 578 110 q 651 151 628 135 q 691 182 673 168 q 716 202 709 197 q 681 162 703 184 q 635 119 660 140 q 583 77 610 97 q 533 41 557 56 q 489 16 509 25 q 459 6 470 6 q 415 34 427 6 q 407 107 404 62 q 421 211 409 153 q 449 331 434 269 q 479 451 465 392 q 499 558 493 511 q 500 635 506 605 q 471 669 495 666 q 436 658 456 672 q 395 615 416 644 q 350 548 373 587 q 303 462 326 509 q 259 363 280 416 q 219 258 237 311 q 188 142 201 193 q 170 67 174 91 q 159 50 170 62 q 132 24 148 37 q 98 -1 116 10 q 66 -14 81 -12 q 44 -5 52 -16 q 41 37 37 6 q 57 104 46 63 q 81 193 67 144 q 109 296 94 242 q 137 401 124 349 q 159 501 150 454 q 172 585 169 549 q 169 644 174 622 q 145 669 163 667 q 115 664 132 669 q 84 650 99 658 q 57 636 69 643 q 41 626 45 629 q 58 645 44 631 q 92 675 71 659 q 138 710 112 692 q 191 739 163 727 q 247 752 219 750 q 300 743 275 755 q 308 706 309 736 q 300 630 307 675 q 281 528 293 585 q 256 411 269 471 q 330 555 288 492 q 419 663 372 619 q 512 729 465 707 q 601 749 559 751 q 635 722 627 749 q 640 649 644 694 q 623 547 635 604 q 595 430 610 490 q 565 312 580 370 q 542 210 550 255 q 536 137 534 165 q 557 110 538 110 z "},"o":{"ha":642,"x_min":33,"x_max":651,"o":"m 427 749 q 594 729 538 777 q 642 566 651 681 q 608 410 634 484 q 545 273 583 336 q 460 159 507 210 q 366 72 414 108 q 272 15 318 35 q 186 -7 225 -5 q 68 42 104 -12 q 33 208 33 97 q 55 381 33 305 q 111 514 76 456 q 188 613 145 572 q 275 682 231 654 q 359 726 319 710 q 427 749 399 742 m 507 467 q 511 541 511 502 q 499 612 511 579 q 462 666 488 644 q 390 688 436 688 q 313 670 345 688 q 259 623 281 652 q 222 554 237 593 q 199 472 208 515 q 185 385 190 429 q 175 300 180 340 q 172 200 168 240 q 189 136 175 160 q 226 102 202 112 q 285 92 250 92 q 376 117 338 87 q 440 200 414 147 q 482 323 466 254 q 507 467 498 393 z "},"p":{"ha":568,"x_min":-224,"x_max":569,"o":"m 491 749 q 543 720 525 749 q 565 643 561 690 q 560 536 569 596 q 532 415 551 477 q 483 295 512 353 q 416 194 454 237 q 352 124 387 157 q 279 68 317 92 q 197 32 240 45 q 108 22 155 20 q 80 -116 90 -62 q 66 -187 70 -170 q 49 -257 56 -220 q 32 -330 42 -295 q 7 -392 22 -364 q -33 -435 -8 -420 q 0 -434 -20 -435 q 42 -434 20 -434 q 89 -433 64 -433 q 136 -432 113 -433 q 250 -429 191 -431 q 219 -453 234 -443 q 190 -471 205 -463 q 158 -488 175 -479 q 121 -509 142 -497 l -224 -509 q -151 -466 -178 -486 q -108 -425 -124 -446 q -83 -378 -92 -404 q -64 -317 -74 -352 q -50 -253 -58 -296 q -29 -154 -41 -210 q -4 -29 -18 -97 q 23 111 9 39 q 52 255 37 182 q 81 396 66 328 q 108 523 95 464 q 133 626 121 582 l 90 682 l 256 767 q 249 737 254 758 q 239 686 245 716 q 224 616 233 655 q 207 534 216 578 q 238 571 219 549 q 279 617 256 593 q 328 664 302 641 q 381 707 354 688 q 437 737 409 726 q 491 749 465 749 m 429 398 q 436 439 432 414 q 441 493 439 464 q 443 551 444 522 q 437 603 442 580 q 421 642 432 627 q 391 656 410 656 q 346 644 368 656 q 303 611 323 631 q 264 566 283 591 q 231 515 246 541 q 205 467 216 490 q 189 429 195 444 q 158 277 175 354 q 127 127 141 201 q 152 116 136 122 q 185 106 167 110 q 224 101 204 102 q 263 108 244 101 q 302 133 283 114 q 337 178 321 152 q 369 235 354 204 q 396 295 384 265 q 416 353 408 326 q 429 398 425 380 z "},"q":{"ha":545,"x_min":1,"x_max":553,"o":"m 510 -441 q 478 -469 496 -455 q 439 -495 460 -484 q 397 -514 419 -507 q 355 -522 376 -522 l 68 -522 q 143 -480 115 -498 q 186 -443 170 -462 q 212 -399 203 -423 q 231 -341 221 -376 q 243 -287 235 -324 q 263 -199 252 -250 q 287 -84 274 -147 q 315 49 300 -20 q 345 192 330 119 q 374 337 359 265 q 304 212 340 272 q 231 107 267 153 q 159 35 194 62 q 94 7 124 7 q 40 28 61 7 q 11 85 20 50 q 2 169 1 121 q 14 270 3 216 q 45 380 25 323 q 92 491 64 437 q 154 592 119 545 q 230 676 189 640 q 318 732 271 711 q 416 753 365 753 l 473 753 l 517 753 l 553 753 q 544 711 551 742 q 528 635 537 680 q 507 533 518 590 q 482 414 495 477 q 456 287 469 352 q 429 158 442 221 q 405 37 416 95 q 383 -68 393 -21 q 366 -149 373 -115 q 355 -198 358 -183 q 342 -267 348 -231 q 327 -338 336 -304 q 302 -399 317 -372 q 262 -441 287 -427 l 510 -441 m 174 120 q 209 135 190 120 q 248 176 227 150 q 289 236 268 201 q 331 309 311 270 q 370 388 351 347 q 405 468 389 429 q 426 571 414 524 q 448 661 439 618 q 441 665 443 665 q 436 666 440 666 q 392 667 417 666 q 339 664 366 668 q 287 650 312 661 q 243 616 261 640 q 220 574 232 602 q 195 508 208 545 q 171 427 182 470 q 152 340 160 383 q 140 257 144 297 q 137 187 136 218 q 148 138 139 157 q 174 120 157 120 z "},"r":{"ha":546,"x_min":54,"x_max":612,"o":"m 555 768 q 599 751 587 766 q 610 715 612 737 q 595 666 608 692 q 564 612 582 639 q 525 562 545 585 q 487 523 504 538 q 499 541 493 529 q 510 566 505 552 q 517 596 515 581 q 517 627 519 612 q 508 652 515 641 q 487 670 500 664 q 446 663 471 677 q 392 618 421 649 q 334 543 363 588 q 279 443 304 498 q 250 328 265 386 q 221 221 235 271 q 199 133 208 171 q 188 76 190 94 q 177 59 188 72 q 150 33 166 47 q 116 8 134 20 q 84 -5 98 -3 q 62 4 70 -7 q 59 46 54 16 q 74 113 64 73 q 97 201 84 153 q 125 301 111 249 q 152 405 140 354 q 174 503 165 456 q 186 585 184 549 q 184 641 189 620 q 163 664 180 663 q 133 662 149 666 q 102 650 117 657 q 75 634 87 642 q 59 621 64 626 q 75 642 62 627 q 109 673 89 656 q 154 707 129 690 q 207 734 180 724 q 260 747 233 745 q 310 737 287 749 q 321 718 319 735 q 322 672 324 701 q 313 608 320 644 q 298 530 307 571 q 357 635 325 589 q 422 711 389 680 q 489 756 455 741 q 555 768 523 770 z "},"s":{"ha":427,"x_min":-37,"x_max":462,"o":"m 224 708 q 248 722 233 714 q 283 735 264 729 q 323 745 302 741 q 368 746 345 748 q 411 735 390 744 q 451 708 433 726 q 461 682 462 697 q 454 652 461 667 q 434 624 446 637 q 410 604 422 611 q 387 597 397 596 q 372 610 376 597 q 338 661 359 643 q 294 683 317 678 q 248 679 271 687 q 211 655 226 671 q 192 614 196 638 q 199 560 187 589 q 248 491 218 524 q 307 427 278 458 q 357 367 336 397 q 378 307 378 338 q 365 229 378 267 q 329 157 352 191 q 274 95 305 123 q 209 47 243 67 q 139 15 174 26 q 72 2 104 3 q 14 13 40 1 q -29 50 -13 24 q -29 78 -37 61 q -8 109 -22 94 q 20 131 5 123 q 45 135 35 140 q 75 117 57 129 q 114 96 93 106 q 160 81 136 85 q 209 84 184 77 q 258 115 234 92 q 304 184 282 138 q 303 231 315 207 q 269 279 292 254 q 216 331 245 304 q 160 385 186 357 q 116 442 134 412 q 101 504 99 471 q 114 574 103 543 q 141 629 125 605 q 179 673 158 654 q 224 708 201 692 z "},"t":{"ha":461,"x_min":31,"x_max":561,"o":"m 262 101 q 286 105 273 101 q 311 117 298 110 q 337 134 324 124 q 361 153 349 143 q 414 205 388 175 q 320 100 366 146 q 279 62 300 81 q 237 29 258 43 q 196 5 216 14 q 159 -3 176 -3 q 121 23 133 -3 q 109 95 109 50 q 116 203 108 141 q 137 338 123 266 q 167 488 151 410 q 201 644 184 566 q 147 645 173 644 q 99 647 121 646 q 59 649 77 648 q 31 650 41 650 q 88 686 61 670 q 111 700 100 693 q 133 712 123 707 q 151 720 143 717 q 164 724 159 724 l 225 724 q 235 782 230 751 q 247 843 241 812 q 258 901 252 873 q 268 949 263 928 l 384 991 q 376 953 382 980 q 362 890 370 926 q 345 810 355 853 q 323 724 334 767 l 561 724 q 494 680 528 699 q 427 651 463 664 q 353 637 390 637 l 304 637 q 275 511 290 575 q 249 387 260 447 q 230 276 237 328 q 223 185 223 224 q 233 123 224 146 q 262 101 241 101 z "},"u":{"ha":707,"x_min":50,"x_max":715,"o":"m 572 113 q 589 117 579 113 q 610 129 599 121 q 634 144 622 136 q 658 162 646 153 q 715 211 685 184 q 625 100 670 149 q 584 59 605 79 q 541 24 562 39 q 497 -1 519 8 q 456 -11 475 -11 q 426 14 435 -11 q 417 80 417 39 q 425 177 417 122 q 444 292 432 231 q 397 224 427 259 q 333 156 368 189 q 262 92 298 122 q 193 39 225 62 q 137 3 161 16 q 103 -11 113 -11 q 65 8 77 -11 q 51 60 53 27 q 56 136 50 92 q 74 228 62 179 q 100 329 85 277 q 129 429 115 380 q 155 522 143 478 q 173 597 167 565 q 179 649 180 630 q 165 668 178 668 q 136 664 151 668 q 105 655 120 660 q 79 645 91 650 q 60 638 66 640 q 75 654 63 643 q 105 680 87 665 q 146 709 123 694 q 195 738 169 725 q 247 759 220 750 q 300 767 274 767 q 327 741 323 767 q 322 672 330 715 q 298 573 315 629 q 263 459 282 518 q 227 343 245 400 q 198 238 209 286 q 187 159 187 191 q 203 119 186 127 q 244 119 221 111 q 291 145 267 127 q 340 187 315 163 q 385 235 364 211 q 423 279 406 258 q 449 311 439 300 q 470 401 458 355 q 492 490 481 447 q 514 573 503 534 q 534 643 525 612 q 550 695 543 674 q 560 724 557 716 l 690 748 q 676 694 686 730 q 651 610 665 658 q 620 507 636 562 q 590 396 604 451 q 564 290 575 341 q 549 199 553 239 q 550 137 545 160 q 572 113 555 113 z "},"v":{"ha":794,"x_min":34,"x_max":811,"o":"m 680 762 q 739 750 713 764 q 781 711 765 736 q 804 652 798 686 q 807 583 811 619 q 786 508 802 546 q 741 437 770 471 q 555 221 644 321 q 397 37 467 121 q 377 8 387 23 q 353 -25 367 -6 q 358 43 365 8 q 336 116 352 79 q 297 194 319 154 q 256 277 275 234 q 225 365 237 319 q 217 459 214 410 q 243 561 220 509 q 317 670 266 614 q 279 673 298 670 q 238 680 259 677 q 194 683 217 683 q 145 675 171 682 q 92 650 120 667 q 34 603 64 633 q 101 690 68 658 q 166 740 134 723 q 230 760 198 756 q 294 762 262 764 q 357 755 326 760 q 421 751 389 751 q 341 643 367 693 q 311 547 316 592 q 315 461 305 502 q 343 383 326 421 q 380 308 360 345 q 414 235 400 272 q 432 160 429 198 q 421 80 436 121 q 477 150 448 114 q 536 224 507 186 q 593 302 566 262 q 641 382 620 342 q 673 464 661 422 q 686 547 686 505 q 676 603 686 581 q 650 639 666 625 q 613 659 633 652 q 572 666 593 665 q 530 667 551 668 q 495 664 510 665 q 540 691 516 675 q 588 723 564 707 q 635 749 612 738 q 680 762 659 760 z "},"w":{"ha":1076,"x_min":20,"x_max":1096,"o":"m 962 765 q 1022 753 996 766 q 1065 714 1048 739 q 1089 656 1082 690 q 1091 586 1096 623 q 1070 510 1086 549 q 1025 435 1054 471 q 845 227 930 328 q 688 42 759 127 q 664 10 678 28 q 632 -26 650 -8 q 640 65 643 22 q 627 144 637 107 q 600 212 616 180 q 565 270 583 243 q 532 319 548 296 q 506 361 515 342 q 494 291 504 328 q 471 217 485 254 q 440 143 457 180 q 408 73 424 106 q 383 31 398 54 q 345 -19 368 7 q 341 -20 342 -19 q 338 -26 338 -21 q 343 43 350 8 q 321 116 337 79 q 283 194 305 154 q 243 277 262 234 q 212 366 224 320 q 203 462 199 412 q 229 566 206 512 q 301 679 251 621 q 243 685 273 679 q 179 688 213 690 q 106 668 145 686 q 20 604 66 650 q 85 695 52 661 q 150 745 117 728 q 214 765 182 762 q 278 765 245 768 q 342 758 310 763 q 408 753 374 753 q 333 654 358 701 q 300 565 308 607 q 298 486 292 524 q 317 412 304 448 q 349 343 331 377 q 384 277 368 310 q 410 211 399 244 q 420 142 421 178 q 451 216 437 180 q 476 284 466 252 q 491 340 486 315 q 494 379 496 365 q 485 471 483 426 q 507 564 486 516 q 569 662 527 611 q 682 772 611 713 q 617 664 636 713 q 598 570 598 614 q 611 486 597 526 q 644 409 625 446 q 684 336 663 372 q 718 262 705 300 q 734 184 732 224 q 718 98 736 144 q 803 201 758 147 q 886 312 848 254 q 949 430 924 369 q 974 553 974 490 q 962 609 972 587 q 934 644 951 631 q 897 664 918 658 q 855 672 876 671 q 815 671 834 673 q 782 666 795 669 q 824 695 800 678 q 871 728 847 712 q 920 754 896 743 q 962 765 943 765 z "},"x":{"ha":826,"x_min":-238,"x_max":844,"o":"m 766 765 q 820 765 803 772 q 841 743 838 758 q 836 709 844 728 q 814 671 828 689 q 784 642 801 654 q 753 629 768 629 q 664 625 707 636 q 581 588 621 613 q 502 525 540 562 q 426 444 463 488 q 459 312 442 377 q 493 193 475 246 q 529 106 510 140 q 569 68 548 72 q 617 75 592 65 q 663 96 642 84 q 711 130 688 111 q 618 47 664 81 q 577 20 598 33 q 534 -1 555 7 q 491 -12 512 -9 q 452 -7 470 -14 q 420 26 435 -2 q 390 98 405 54 q 359 198 374 142 q 328 314 345 254 q 248 192 288 254 q 167 72 208 130 q 84 -37 126 14 q -2 -129 43 -89 q -93 -193 -46 -168 q -191 -222 -140 -218 q -228 -217 -218 -225 q -238 -194 -238 -209 q -230 -162 -238 -180 q -212 -129 -222 -144 q -190 -103 -201 -114 q -172 -93 -178 -93 q -94 -76 -134 -93 q -13 -31 -54 -60 q 71 39 28 -1 q 156 126 113 79 q 242 226 199 174 q 328 333 285 279 q 296 454 312 395 q 266 559 281 513 q 235 635 250 606 q 204 667 220 664 q 166 666 186 671 q 130 652 146 661 q 94 629 111 643 q 180 699 138 670 q 218 723 199 711 q 257 741 238 734 q 295 750 277 748 q 328 747 313 752 q 351 716 340 742 q 375 650 363 690 q 400 559 387 610 q 426 456 412 509 q 517 569 473 516 q 605 664 562 623 q 688 732 648 705 q 766 765 728 758 z "},"y":{"ha":623,"x_min":-387,"x_max":630,"o":"m 561 765 q 616 696 602 747 q 622 572 630 645 q 584 410 613 500 q 510 224 555 321 q 404 31 464 128 q 273 -156 344 -67 q 123 -320 202 -245 q -40 -446 43 -395 q -210 -519 -124 -497 q -381 -523 -296 -541 q -386 -512 -387 -522 q -379 -490 -385 -503 q -363 -463 -373 -477 q -341 -438 -353 -449 q -317 -421 -330 -427 q -294 -418 -304 -415 q -173 -421 -233 -431 q -56 -386 -113 -412 q 57 -319 2 -360 q 162 -229 112 -279 q 257 -121 212 -178 q 338 -3 301 -63 q 303 42 322 7 q 266 125 285 76 q 226 232 246 174 q 185 351 205 291 q 146 468 165 412 q 109 570 127 525 q 75 643 91 614 q 47 673 60 671 q 6 669 26 675 q -30 656 -14 664 q -65 635 -48 648 q 20 703 -22 675 q 57 725 37 715 q 95 743 76 736 q 131 751 113 749 q 164 747 149 753 q 192 714 177 741 q 221 645 206 686 q 253 551 237 603 q 286 444 269 499 q 318 335 302 389 q 349 235 334 281 q 378 156 364 190 q 406 109 393 123 q 461 242 438 176 q 497 369 485 308 q 511 484 510 430 q 498 577 511 537 q 458 643 486 618 q 388 673 431 668 q 463 724 428 702 q 492 741 477 732 q 520 755 507 749 q 544 764 534 762 q 561 765 555 767 z "},"z":{"ha":653,"x_min":-77,"x_max":675,"o":"m 111 562 q 174 632 152 598 q 225 691 197 665 q 284 732 253 717 q 345 748 315 748 q 429 748 384 748 q 523 750 475 749 q 611 753 570 751 q 675 760 652 755 q 637 708 666 743 q 567 628 608 673 q 477 531 526 583 q 377 426 427 479 q 279 323 326 373 q 194 232 231 273 q 134 162 157 191 q 110 123 111 133 q 186 124 142 125 q 280 123 231 124 q 365 121 330 121 q 444 123 399 121 q 519 141 485 123 q 581 188 554 159 q 625 252 607 217 q 649 321 642 288 q 639 241 650 279 q 609 169 628 202 q 567 108 591 136 q 519 61 543 81 q 474 32 495 42 q 439 21 452 21 q 404 21 424 21 q 338 22 384 22 q 241 24 292 23 q 144 26 190 25 q 65 27 99 26 q 19 27 31 27 q -6 20 10 27 q -37 5 -22 14 q -77 -16 -56 -4 q 79 169 0 79 q 236 342 159 259 q 389 500 314 425 q 531 640 463 575 q 499 642 519 642 q 456 643 479 643 q 407 643 433 643 q 362 642 382 642 q 322 641 342 641 q 291 640 303 640 q 236 627 259 635 q 196 608 213 618 q 151 585 178 597 q 111 562 123 573 z "},"{":{"ha":490,"x_min":149,"x_max":656,"o":"m 656 1171 l 649 1131 q 532 1081 566 1124 q 493 930 498 1038 l 489 838 q 436 600 481 679 q 285 475 392 520 q 387 315 387 425 q 353 168 387 265 l 311 39 q 286 -61 286 -32 q 392 -159 286 -138 l 383 -201 q 177 -37 177 -175 q 211 112 177 15 l 258 251 q 291 385 291 345 q 184 460 291 460 l 149 460 l 157 502 l 188 502 q 322 547 290 502 q 366 747 355 593 l 374 880 q 450 1097 385 1029 q 656 1171 515 1164 z "},"|":{"ha":334,"x_min":81,"x_max":427,"o":"m 81 -201 l 334 1071 l 427 1071 l 174 -201 l 81 -201 z "},"}":{"ha":490,"x_min":26,"x_max":533,"o":"m 26 -201 l 34 -159 q 151 -110 117 -154 q 189 41 184 -66 l 194 133 q 246 371 201 291 q 398 495 291 450 q 296 655 296 546 q 329 803 296 705 l 372 931 q 397 1031 397 1002 q 291 1130 397 1107 l 299 1171 q 505 1008 505 1147 q 472 859 505 956 l 425 720 q 392 586 392 625 q 499 511 392 511 l 533 511 l 525 469 l 495 469 q 360 423 393 469 q 317 223 327 378 l 308 90 q 234 -126 298 -59 q 26 -201 169 -193 z "},"~":{"ha":878,"x_min":130,"x_max":907,"o":"m 130 297 q 352 528 189 528 q 515 463 403 528 l 590 420 q 731 366 684 366 q 865 498 808 366 l 907 498 q 684 276 840 276 q 523 332 620 276 l 448 374 q 307 436 343 436 q 172 297 228 436 l 130 297 z "},"":{"ha":1354,"x_min":-278,"x_max":1328,"o":"m 1008 951 q 1001 940 1002 945 q 996 930 1000 935 q 974 879 984 910 q 954 809 964 848 q 936 727 945 770 q 920 639 928 683 q 905 553 912 595 q 890 475 897 511 l 969 475 q 930 456 949 465 q 884 441 910 447 q 881 425 884 433 q 877 411 877 416 q 857 340 870 376 q 826 270 843 304 q 789 204 808 235 q 753 150 770 174 q 722 111 736 126 q 703 93 709 96 q 738 92 719 93 q 781 91 757 91 q 834 92 804 91 q 903 98 864 94 q 888 76 899 88 q 863 51 878 63 q 830 29 848 39 q 793 14 812 19 q 738 3 769 7 q 680 -2 706 -1 q 636 0 653 -3 q 625 7 620 2 q 674 77 651 33 q 717 176 697 121 q 754 292 737 230 q 787 417 772 354 q 689 409 743 412 q 572 406 635 406 q 489 271 531 338 q 400 141 446 204 q 304 22 355 79 q 197 -81 254 -35 q 75 -161 140 -127 q -64 -214 10 -195 q -156 -220 -115 -225 q -224 -197 -197 -214 q -265 -153 -252 -180 q -272 -97 -278 -127 q -240 -37 -266 -67 q -163 20 -214 -6 q -161 16 -158 23 q -168 -5 -164 8 q -174 -35 -172 -18 q -170 -67 -176 -52 q -143 -95 -163 -83 q -85 -111 -124 -107 q 42 -101 -18 -117 q 156 -50 102 -84 q 261 35 211 -15 q 357 144 311 84 q 447 270 404 203 q 533 406 491 337 q 406 398 460 406 q 314 378 352 390 q 251 350 275 366 q 212 318 227 334 q 191 287 197 302 q 182 261 184 272 q 198 320 182 286 q 244 387 214 354 q 319 443 275 419 q 422 469 364 467 l 579 469 q 656 593 618 532 q 732 706 694 653 q 810 803 771 759 q 890 878 850 846 q 807 902 856 888 q 701 931 758 917 q 586 955 645 945 q 475 968 528 966 q 379 960 422 970 q 312 924 336 950 q 233 802 254 859 q 223 700 212 745 q 274 626 234 656 q 377 587 314 597 q 378 579 384 585 q 359 565 373 573 q 326 548 346 557 q 285 531 307 539 q 241 519 263 524 q 201 514 219 514 q 168 533 182 515 q 144 579 153 551 q 134 646 135 608 q 143 723 133 683 q 175 805 153 764 q 235 883 197 846 q 327 949 273 920 q 456 996 381 979 q 575 1014 515 1010 q 689 1014 634 1017 q 794 1002 745 1010 q 886 984 844 994 q 958 965 927 974 q 1008 951 989 956 m 799 475 q 823 597 812 538 q 843 704 833 655 q 861 787 853 752 q 877 840 869 823 q 808 765 841 806 q 742 677 774 724 q 678 579 710 631 q 612 475 646 528 l 799 475 m 899 1088 l 816 1191 l 922 1272 l 1003 1162 l 899 1088 m 1223 1088 l 1141 1193 l 1247 1272 l 1328 1164 l 1223 1088 z "},"":{"ha":1354,"x_min":62,"x_max":1427,"o":"m 62 57 l 153 149 q 322 50 218 50 q 510 133 422 50 q 720 428 597 216 l 1012 932 q 885 941 938 941 q 666 870 743 941 q 589 668 589 800 l 456 602 q 528 813 469 730 q 680 945 592 906 q 933 996 767 985 q 1034 1004 966 998 l 1053 1009 q 995 1101 995 1040 q 1025 1174 995 1143 q 1099 1205 1056 1205 q 1173 1175 1142 1205 q 1204 1101 1204 1144 q 1176 1026 1204 1061 l 1181 803 l 1220 334 q 1258 119 1234 171 q 1348 67 1283 67 q 1427 71 1359 67 l 1418 26 l 1107 -25 l 1079 309 l 709 309 q 507 49 602 123 q 279 -25 411 -25 q 62 57 153 -25 m 739 359 l 1074 359 l 1031 869 l 739 359 m 1041 1100 q 1099 1042 1041 1042 q 1158 1100 1158 1042 q 1099 1159 1158 1159 q 1041 1100 1041 1159 z "},"":{"ha":949,"x_min":157,"x_max":1080,"o":"m 903 62 q 574 -24 727 -10 l 549 -62 q 617 -138 617 -80 q 564 -227 617 -186 q 446 -268 511 -268 q 382 -263 412 -268 l 435 -191 q 492 -212 466 -212 q 551 -163 551 -212 q 459 -106 551 -111 l 513 -26 q 243 77 329 -11 q 157 337 157 164 q 340 829 157 629 q 789 1029 523 1029 q 1080 989 946 1029 l 1023 803 l 980 803 q 987 855 987 835 q 922 951 987 914 q 755 987 858 987 q 483 849 600 987 q 357 622 406 758 q 308 365 308 486 q 385 134 308 218 q 596 50 462 50 q 916 126 747 50 l 903 62 z "},"":{"ha":1021,"x_min":124,"x_max":1136,"o":"m 720 92 q 738 82 722 90 q 777 68 753 74 q 831 62 801 62 q 895 79 862 63 q 960 132 927 96 q 1023 235 993 169 q 950 102 988 154 q 872 20 912 50 q 792 -20 833 -10 q 711 -28 751 -31 q 632 -13 671 -26 q 559 15 594 -1 q 494 46 524 31 q 439 72 463 62 q 334 92 382 92 q 247 81 286 93 q 177 50 208 70 q 124 7 146 29 q 181 78 151 46 q 244 131 211 109 q 316 164 278 153 q 399 176 355 176 q 448 284 429 230 q 478 390 467 338 q 497 494 490 443 q 512 594 504 545 q 532 690 520 644 q 563 779 543 736 q 614 861 583 822 q 694 935 646 900 q 608 942 652 939 q 522 945 564 945 q 446 945 481 946 q 386 941 410 944 q 331 918 356 935 q 287 877 305 901 q 261 826 269 854 q 258 770 252 798 q 284 714 263 741 q 347 667 306 688 q 345 653 353 662 q 320 636 337 645 q 282 618 304 627 q 239 606 260 610 q 201 603 218 602 q 177 614 184 604 q 150 690 153 649 q 168 776 147 732 q 231 865 188 821 q 340 948 274 909 q 468 1000 402 983 q 601 1021 534 1017 q 736 1023 668 1026 q 869 1017 804 1021 q 998 1015 935 1014 q 1118 1027 1060 1015 q 1133 1021 1136 1029 q 1111 1000 1129 1013 q 1064 970 1093 986 q 1000 940 1034 954 q 929 919 966 927 q 862 915 893 911 q 806 924 838 920 q 739 935 773 929 q 697 859 714 900 q 668 772 680 818 q 647 679 656 727 q 628 581 637 630 q 681 579 651 580 q 744 579 711 578 q 813 581 778 579 q 881 584 848 582 q 943 588 914 585 q 994 594 972 591 q 975 580 989 589 q 943 559 962 570 q 903 535 925 547 q 860 513 882 523 q 819 497 838 503 q 784 490 799 490 q 750 488 770 488 q 706 488 730 488 q 658 489 683 488 q 608 490 633 490 q 587 404 598 446 q 558 322 575 361 q 519 245 542 282 q 465 176 496 209 q 582 149 518 172 q 720 92 645 126 m 771 1088 l 793 1149 q 1057 1331 884 1225 l 1013 1222 q 771 1088 844 1137 z "},"":{"ha":1430,"x_min":-86,"x_max":1746,"o":"m 1310 1192 q 1468 1299 1394 1264 q 1599 1342 1542 1335 q 1693 1332 1656 1349 q 1738 1284 1729 1316 q 1723 1208 1746 1252 q 1638 1120 1700 1165 q 1629 1173 1636 1147 q 1608 1216 1622 1194 q 1566 1251 1593 1238 q 1470 1257 1514 1271 q 1390 1201 1426 1242 q 1323 1097 1353 1160 q 1269 955 1293 1033 q 1224 790 1244 878 q 1188 612 1204 702 q 1159 436 1173 523 q 1135 273 1146 349 q 1114 137 1124 197 q 1095 39 1104 76 q 1064 36 1080 41 q 1031 22 1048 30 q 998 7 1015 14 q 964 0 981 0 q 946 111 959 49 q 916 240 933 172 q 877 378 898 308 q 835 516 856 449 q 794 645 814 584 q 760 753 775 705 q 729 627 744 692 q 697 492 715 561 q 655 350 679 422 q 597 204 631 278 q 517 56 564 130 q 407 -92 471 -18 q 286 -204 347 -162 q 171 -266 226 -247 q 67 -283 115 -285 q -15 -263 20 -281 q -67 -213 -49 -245 q -84 -139 -86 -181 q -55 -49 -81 -98 q 26 52 -29 0 q 8 -27 9 16 q 23 -107 7 -70 q 70 -170 39 -144 q 145 -196 101 -195 q 248 -168 190 -197 q 374 -66 305 -138 q 438 26 412 -27 q 482 141 464 79 q 514 272 500 203 q 539 411 527 340 q 565 550 551 481 q 598 682 579 618 q 646 800 618 745 q 714 897 673 855 q 623 919 667 909 q 536 933 578 928 q 451 938 493 938 q 368 930 409 937 q 310 904 336 923 q 266 859 283 885 q 240 800 248 832 q 239 736 233 768 q 269 675 246 705 q 334 622 292 645 q 332 611 341 618 q 306 595 323 604 q 266 578 289 587 q 221 566 243 570 q 181 561 199 561 q 157 569 164 561 q 125 654 130 606 q 139 752 119 702 q 203 851 158 803 q 321 937 248 899 q 427 983 379 966 q 519 1008 475 1000 q 602 1016 562 1016 q 683 1011 642 1016 q 767 998 724 1006 q 859 982 810 990 q 868 975 864 977 q 871 969 871 974 q 935 708 903 833 q 962 599 947 655 q 990 491 977 543 q 1018 393 1004 439 q 1042 314 1031 347 q 1049 382 1045 340 q 1059 479 1053 425 q 1073 597 1065 534 q 1095 726 1082 660 q 1127 858 1108 792 q 1172 985 1145 924 q 1232 1100 1198 1046 q 1310 1192 1266 1153 m 976 1097 l 928 1088 q 981 1203 939 1159 q 1079 1246 1023 1246 q 1166 1216 1112 1246 l 1189 1203 q 1265 1175 1239 1175 q 1335 1242 1304 1175 l 1379 1255 q 1233 1088 1355 1088 q 1141 1114 1190 1088 l 1110 1132 q 1040 1156 1065 1156 q 976 1097 1000 1156 z "},"":{"ha":1088,"x_min":203,"x_max":1060,"o":"m 456 812 q 621 961 541 907 q 768 1030 701 1014 q 888 1030 836 1047 q 971 967 940 1013 q 1009 850 1002 922 q 992 688 1016 779 q 911 487 968 596 q 758 258 854 378 q 572 68 657 132 q 419 -12 486 3 q 303 1 351 -26 q 230 88 255 29 q 203 231 204 147 q 229 411 203 315 q 312 611 256 507 q 456 812 368 714 m 751 297 q 849 464 815 379 q 891 628 883 549 q 885 772 899 706 q 839 883 871 839 q 761 945 808 928 q 658 942 714 962 q 539 860 602 922 q 410 683 475 798 q 354 548 374 619 q 329 410 334 477 q 333 282 323 342 q 366 179 342 222 q 426 114 389 136 q 511 103 462 93 q 620 159 559 113 q 751 297 680 205 m 631 1088 l 548 1191 l 654 1272 l 735 1162 l 631 1088 m 956 1088 l 873 1193 l 979 1272 l 1060 1164 l 956 1088 z "},"":{"ha":1356,"x_min":79,"x_max":1227,"o":"m 1084 851 q 1074 801 1081 838 q 1057 713 1067 764 q 1034 600 1046 662 q 1006 475 1021 538 q 974 350 991 412 q 940 238 958 289 q 903 152 922 188 q 864 104 884 117 q 894 97 871 99 q 948 94 917 94 q 1017 97 980 94 q 1091 104 1055 99 q 1062 72 1084 90 q 1011 38 1040 54 q 954 11 983 22 q 903 0 925 0 q 852 -2 878 -3 q 804 1 825 -1 q 753 7 778 4 q 791 103 773 48 q 827 222 810 159 q 860 353 844 286 q 890 487 876 421 q 791 281 844 374 q 684 125 738 189 q 579 27 630 60 q 488 -3 528 -7 q 421 43 448 0 q 390 176 395 86 q 396 296 387 231 q 423 431 405 362 q 466 570 441 500 q 522 704 492 640 q 584 822 551 768 q 650 916 617 877 q 564 935 604 928 q 486 942 524 941 q 411 940 448 943 q 332 928 373 936 q 277 905 300 922 q 238 867 253 889 q 219 818 224 844 q 223 763 215 791 q 253 710 231 736 q 312 663 275 684 q 309 648 318 658 q 280 626 299 637 q 236 605 261 615 q 188 588 212 594 q 145 582 164 582 q 117 591 125 581 q 85 670 90 625 q 98 761 79 714 q 162 853 117 808 q 279 935 206 899 q 380 980 336 963 q 462 1007 425 998 q 532 1018 499 1016 q 600 1017 565 1020 q 673 1008 634 1015 q 760 994 711 1002 q 747 984 755 989 q 734 974 739 979 q 657 837 694 913 q 590 677 620 760 q 539 511 560 595 q 511 355 519 428 q 509 225 503 282 q 539 137 515 168 q 589 116 560 111 q 649 150 617 122 q 716 222 682 178 q 784 320 751 267 q 848 428 817 373 q 903 532 878 484 q 937 672 920 606 q 972 791 954 739 q 1008 880 990 844 q 1046 928 1026 916 q 1003 938 1029 933 q 947 943 977 942 q 886 942 918 945 q 825 928 854 939 q 867 978 842 959 q 923 1008 893 998 q 986 1022 954 1019 q 1051 1025 1019 1026 q 1208 1000 1126 1023 q 1172 975 1189 985 q 1139 950 1154 964 q 1110 912 1124 935 q 1084 851 1097 890 m 798 1088 l 715 1191 l 822 1272 l 903 1162 l 798 1088 m 1123 1088 l 1040 1193 l 1147 1272 l 1227 1164 l 1123 1088 z "},"":{"ha":928,"x_min":105,"x_max":924,"o":"m 576 92 q 594 97 584 92 q 617 112 605 102 q 641 132 629 121 q 665 156 654 144 q 722 220 692 184 q 636 113 680 161 q 597 74 618 93 q 554 40 576 55 q 512 15 533 24 q 471 6 491 6 q 445 28 453 6 q 435 89 436 51 q 438 177 433 127 q 453 281 444 227 q 388 174 421 224 q 323 87 355 124 q 260 28 291 50 q 202 6 229 6 q 138 38 161 6 q 111 122 116 70 q 116 241 105 174 q 151 377 126 307 q 212 513 175 446 q 298 631 250 579 q 404 715 346 684 q 527 747 461 747 l 570 747 l 625 747 l 667 747 q 655 694 664 731 q 633 609 646 658 q 608 502 621 559 q 582 387 594 445 q 562 276 570 330 q 551 182 553 223 q 554 116 549 141 q 576 92 559 92 m 281 117 q 323 139 300 117 q 372 197 347 161 q 423 279 397 233 q 471 374 448 326 q 487 456 478 415 q 505 534 496 496 q 524 606 515 572 q 539 667 532 640 q 496 668 521 667 q 444 665 471 669 q 393 649 418 661 q 349 612 368 637 q 327 572 339 600 q 302 507 315 544 q 279 426 290 469 q 260 339 268 382 q 248 256 252 296 q 246 185 244 216 q 256 135 248 154 q 281 117 264 117 m 638 870 l 660 931 q 924 1113 751 1008 l 880 1004 q 638 870 711 920 z "},"":{"ha":928,"x_min":105,"x_max":845,"o":"m 576 92 q 594 97 584 92 q 617 112 605 102 q 641 132 629 121 q 665 156 654 144 q 722 220 692 184 q 636 113 680 161 q 597 74 618 93 q 554 40 576 55 q 512 15 533 24 q 471 6 491 6 q 445 28 453 6 q 435 89 436 51 q 438 177 433 127 q 453 281 444 227 q 388 174 421 224 q 323 87 355 124 q 260 28 291 50 q 202 6 229 6 q 138 38 161 6 q 111 122 116 70 q 116 241 105 174 q 151 377 126 307 q 212 513 175 446 q 298 631 250 579 q 404 715 346 684 q 527 747 461 747 l 570 747 l 625 747 l 667 747 q 655 694 664 731 q 633 609 646 658 q 608 502 621 559 q 582 387 594 445 q 562 276 570 330 q 551 182 553 223 q 554 116 549 141 q 576 92 559 92 m 281 117 q 323 139 300 117 q 372 197 347 161 q 423 279 397 233 q 471 374 448 326 q 487 456 478 415 q 505 534 496 496 q 524 606 515 572 q 539 667 532 640 q 496 668 521 667 q 444 665 471 669 q 393 649 418 661 q 349 612 368 637 q 327 572 339 600 q 302 507 315 544 q 279 426 290 469 q 260 339 268 382 q 248 256 252 296 q 246 185 244 216 q 256 135 248 154 q 281 117 264 117 m 845 924 l 760 870 q 618 1050 711 968 l 699 1113 q 845 924 783 1029 z "},"":{"ha":928,"x_min":105,"x_max":904,"o":"m 576 92 q 594 97 584 92 q 617 112 605 102 q 641 132 629 121 q 665 156 654 144 q 722 220 692 184 q 636 113 680 161 q 597 74 618 93 q 554 40 576 55 q 512 15 533 24 q 471 6 491 6 q 445 28 453 6 q 435 89 436 51 q 438 177 433 127 q 453 281 444 227 q 388 174 421 224 q 323 87 355 124 q 260 28 291 50 q 202 6 229 6 q 138 38 161 6 q 111 122 116 70 q 116 241 105 174 q 151 377 126 307 q 212 513 175 446 q 298 631 250 579 q 404 715 346 684 q 527 747 461 747 l 570 747 l 625 747 l 667 747 q 655 694 664 731 q 633 609 646 658 q 608 502 621 559 q 582 387 594 445 q 562 276 570 330 q 551 182 553 223 q 554 116 549 141 q 576 92 559 92 m 281 117 q 323 139 300 117 q 372 197 347 161 q 423 279 397 233 q 471 374 448 326 q 487 456 478 415 q 505 534 496 496 q 524 606 515 572 q 539 667 532 640 q 496 668 521 667 q 444 665 471 669 q 393 649 418 661 q 349 612 368 637 q 327 572 339 600 q 302 507 315 544 q 279 426 290 469 q 260 339 268 382 q 248 256 252 296 q 246 185 244 216 q 256 135 248 154 q 281 117 264 117 m 904 919 l 821 870 q 736 1019 770 926 q 625 898 699 972 q 606 877 621 895 l 509 870 q 719 1055 655 977 l 811 1113 q 904 919 842 1007 z "},"":{"ha":928,"x_min":105,"x_max":971,"o":"m 576 92 q 594 97 584 92 q 617 112 605 102 q 641 132 629 121 q 665 156 654 144 q 722 220 692 184 q 636 113 680 161 q 597 74 618 93 q 554 40 576 55 q 512 15 533 24 q 471 6 491 6 q 445 28 453 6 q 435 89 436 51 q 438 177 433 127 q 453 281 444 227 q 388 174 421 224 q 323 87 355 124 q 260 28 291 50 q 202 6 229 6 q 138 38 161 6 q 111 122 116 70 q 116 241 105 174 q 151 377 126 307 q 212 513 175 446 q 298 631 250 579 q 404 715 346 684 q 527 747 461 747 l 570 747 l 625 747 l 667 747 q 655 694 664 731 q 633 609 646 658 q 608 502 621 559 q 582 387 594 445 q 562 276 570 330 q 551 182 553 223 q 554 116 549 141 q 576 92 559 92 m 281 117 q 323 139 300 117 q 372 197 347 161 q 423 279 397 233 q 471 374 448 326 q 487 456 478 415 q 505 534 496 496 q 524 606 515 572 q 539 667 532 640 q 496 668 521 667 q 444 665 471 669 q 393 649 418 661 q 349 612 368 637 q 327 572 339 600 q 302 507 315 544 q 279 426 290 469 q 260 339 268 382 q 248 256 252 296 q 246 185 244 216 q 256 135 248 154 q 281 117 264 117 m 542 870 l 459 973 l 566 1054 l 646 945 l 542 870 m 867 870 l 784 975 l 890 1054 l 971 946 l 867 870 z "},"":{"ha":928,"x_min":105,"x_max":958,"o":"m 576 92 q 594 97 584 92 q 617 112 605 102 q 641 132 629 121 q 665 156 654 144 q 722 220 692 184 q 636 113 680 161 q 597 74 618 93 q 554 40 576 55 q 512 15 533 24 q 471 6 491 6 q 445 28 453 6 q 435 89 436 51 q 438 177 433 127 q 453 281 444 227 q 388 174 421 224 q 323 87 355 124 q 260 28 291 50 q 202 6 229 6 q 138 38 161 6 q 111 122 116 70 q 116 241 105 174 q 151 377 126 307 q 212 513 175 446 q 298 631 250 579 q 404 715 346 684 q 527 747 461 747 l 570 747 l 625 747 l 667 747 q 655 694 664 731 q 633 609 646 658 q 608 502 621 559 q 582 387 594 445 q 562 276 570 330 q 551 182 553 223 q 554 116 549 141 q 576 92 559 92 m 281 117 q 323 139 300 117 q 372 197 347 161 q 423 279 397 233 q 471 374 448 326 q 487 456 478 415 q 505 534 496 496 q 524 606 515 572 q 539 667 532 640 q 496 668 521 667 q 444 665 471 669 q 393 649 418 661 q 349 612 368 637 q 327 572 339 600 q 302 507 315 544 q 279 426 290 469 q 260 339 268 382 q 248 256 252 296 q 246 185 244 216 q 256 135 248 154 q 281 117 264 117 m 554 880 l 507 870 q 559 985 517 941 q 657 1029 601 1029 q 744 998 690 1029 l 767 985 q 844 958 817 958 q 913 1025 882 958 l 958 1038 q 811 870 933 870 q 720 897 768 870 l 688 914 q 618 939 644 939 q 554 880 578 939 z "},"":{"ha":928,"x_min":105,"x_max":854,"o":"m 576 92 q 594 97 584 92 q 617 112 605 102 q 641 132 629 121 q 665 156 654 144 q 722 220 692 184 q 636 113 680 161 q 597 74 618 93 q 554 40 576 55 q 512 15 533 24 q 471 6 491 6 q 445 28 453 6 q 435 89 436 51 q 438 177 433 127 q 453 281 444 227 q 388 174 421 224 q 323 87 355 124 q 260 28 291 50 q 202 6 229 6 q 138 38 161 6 q 111 122 116 70 q 116 241 105 174 q 151 377 126 307 q 212 513 175 446 q 298 631 250 579 q 404 715 346 684 q 527 747 461 747 l 570 747 l 625 747 l 667 747 q 655 694 664 731 q 633 609 646 658 q 608 502 621 559 q 582 387 594 445 q 562 276 570 330 q 551 182 553 223 q 554 116 549 141 q 576 92 559 92 m 281 117 q 323 139 300 117 q 372 197 347 161 q 423 279 397 233 q 471 374 448 326 q 487 456 478 415 q 505 534 496 496 q 524 606 515 572 q 539 667 532 640 q 496 668 521 667 q 444 665 471 669 q 393 649 418 661 q 349 612 368 637 q 327 572 339 600 q 302 507 315 544 q 279 426 290 469 q 260 339 268 382 q 248 256 252 296 q 246 185 244 216 q 256 135 248 154 q 281 117 264 117 m 745 866 q 669 898 701 866 q 637 975 637 930 q 669 1052 637 1020 q 745 1084 701 1084 q 823 1052 791 1084 q 854 975 854 1020 q 823 898 854 930 q 745 866 791 866 m 745 908 q 793 927 773 908 q 812 975 812 947 q 793 1022 812 1003 q 745 1042 773 1042 q 698 1022 718 1042 q 678 975 678 1002 q 698 927 678 947 q 745 908 718 908 z "},"":{"ha":759,"x_min":136,"x_max":771,"o":"m 730 186 l 720 134 q 419 -9 580 35 l 384 -61 q 454 -138 454 -81 q 400 -227 454 -186 q 284 -268 347 -268 q 218 -261 256 -268 l 271 -189 q 328 -210 303 -210 q 388 -162 388 -210 q 294 -104 388 -110 l 354 -18 q 136 214 136 5 q 284 586 136 419 q 614 753 432 753 q 771 718 693 753 l 726 544 l 684 544 l 686 554 q 692 601 692 586 q 564 694 692 694 q 360 561 448 694 q 273 248 273 427 q 420 58 273 58 q 730 186 531 58 z "},"":{"ha":752,"x_min":-1,"x_max":793,"o":"m 267 460 q 159 420 186 427 q 148 367 153 398 q 139 303 142 336 q 136 236 136 269 q 143 176 137 203 q 162 134 149 150 q 197 117 175 117 q 236 125 215 117 q 277 145 256 133 q 319 174 298 158 q 359 207 340 190 q 450 296 404 246 q 338 151 395 215 q 287 98 314 124 q 231 52 259 72 q 173 19 202 31 q 117 7 144 7 q 46 30 72 7 q 10 90 21 54 q -1 173 -1 127 q 7 263 0 218 q 26 346 14 307 q 48 408 37 385 q 73 465 58 431 q 111 538 89 500 q 162 615 133 576 q 227 684 191 653 q 306 733 262 714 q 400 753 349 753 q 439 744 425 753 q 457 720 452 734 q 458 686 461 705 q 447 647 455 667 q 428 608 439 627 q 406 573 417 589 q 385 548 395 557 q 366 529 375 538 q 326 498 357 520 q 267 460 296 476 m 233 635 q 214 593 224 619 q 194 538 203 567 q 178 481 185 509 q 165 432 170 453 q 239 466 205 446 q 297 513 273 486 q 336 575 322 540 q 350 654 350 610 q 337 685 350 675 q 306 693 324 694 q 268 677 288 691 q 233 635 248 663 m 507 870 l 529 931 q 793 1113 620 1008 l 749 1004 q 507 870 580 920 z "},"":{"ha":752,"x_min":-1,"x_max":714,"o":"m 267 460 q 159 420 186 427 q 148 367 153 398 q 139 303 142 336 q 136 236 136 269 q 143 176 137 203 q 162 134 149 150 q 197 117 175 117 q 236 125 215 117 q 277 145 256 133 q 319 174 298 158 q 359 207 340 190 q 450 296 404 246 q 338 151 395 215 q 287 98 314 124 q 231 52 259 72 q 173 19 202 31 q 117 7 144 7 q 46 30 72 7 q 10 90 21 54 q -1 173 -1 127 q 7 263 0 218 q 26 346 14 307 q 48 408 37 385 q 73 465 58 431 q 111 538 89 500 q 162 615 133 576 q 227 684 191 653 q 306 733 262 714 q 400 753 349 753 q 439 744 425 753 q 457 720 452 734 q 458 686 461 705 q 447 647 455 667 q 428 608 439 627 q 406 573 417 589 q 385 548 395 557 q 366 529 375 538 q 326 498 357 520 q 267 460 296 476 m 233 635 q 214 593 224 619 q 194 538 203 567 q 178 481 185 509 q 165 432 170 453 q 239 466 205 446 q 297 513 273 486 q 336 575 322 540 q 350 654 350 610 q 337 685 350 675 q 306 693 324 694 q 268 677 288 691 q 233 635 248 663 m 714 924 l 629 870 q 488 1050 580 968 l 568 1113 q 714 924 652 1029 z "},"":{"ha":752,"x_min":-1,"x_max":773,"o":"m 267 460 q 159 420 186 427 q 148 367 153 398 q 139 303 142 336 q 136 236 136 269 q 143 176 137 203 q 162 134 149 150 q 197 117 175 117 q 236 125 215 117 q 277 145 256 133 q 319 174 298 158 q 359 207 340 190 q 450 296 404 246 q 338 151 395 215 q 287 98 314 124 q 231 52 259 72 q 173 19 202 31 q 117 7 144 7 q 46 30 72 7 q 10 90 21 54 q -1 173 -1 127 q 7 263 0 218 q 26 346 14 307 q 48 408 37 385 q 73 465 58 431 q 111 538 89 500 q 162 615 133 576 q 227 684 191 653 q 306 733 262 714 q 400 753 349 753 q 439 744 425 753 q 457 720 452 734 q 458 686 461 705 q 447 647 455 667 q 428 608 439 627 q 406 573 417 589 q 385 548 395 557 q 366 529 375 538 q 326 498 357 520 q 267 460 296 476 m 233 635 q 214 593 224 619 q 194 538 203 567 q 178 481 185 509 q 165 432 170 453 q 239 466 205 446 q 297 513 273 486 q 336 575 322 540 q 350 654 350 610 q 337 685 350 675 q 306 693 324 694 q 268 677 288 691 q 233 635 248 663 m 773 919 l 690 870 q 606 1019 640 926 q 494 898 568 972 q 475 877 490 895 l 378 870 q 588 1055 524 977 l 680 1113 q 773 919 711 1007 z "},"":{"ha":752,"x_min":-1,"x_max":857,"o":"m 267 460 q 159 420 186 427 q 148 367 153 398 q 139 303 142 336 q 136 236 136 269 q 143 176 137 203 q 162 134 149 150 q 197 117 175 117 q 236 125 215 117 q 277 145 256 133 q 319 174 298 158 q 359 207 340 190 q 450 296 404 246 q 338 151 395 215 q 287 98 314 124 q 231 52 259 72 q 173 19 202 31 q 117 7 144 7 q 46 30 72 7 q 10 90 21 54 q -1 173 -1 127 q 7 263 0 218 q 26 346 14 307 q 48 408 37 385 q 73 465 58 431 q 111 538 89 500 q 162 615 133 576 q 227 684 191 653 q 306 733 262 714 q 400 753 349 753 q 439 744 425 753 q 457 720 452 734 q 458 686 461 705 q 447 647 455 667 q 428 608 439 627 q 406 573 417 589 q 385 548 395 557 q 366 529 375 538 q 326 498 357 520 q 267 460 296 476 m 233 635 q 214 593 224 619 q 194 538 203 567 q 178 481 185 509 q 165 432 170 453 q 239 466 205 446 q 297 513 273 486 q 336 575 322 540 q 350 654 350 610 q 337 685 350 675 q 306 693 324 694 q 268 677 288 691 q 233 635 248 663 m 427 870 l 345 973 l 451 1054 l 532 945 l 427 870 m 752 870 l 669 975 l 776 1054 l 857 946 l 752 870 z "},"":{"ha":523,"x_min":153,"x_max":646,"o":"m 601 205 l 589 142 q 322 -17 440 -17 q 224 85 224 -17 q 240 199 224 120 l 287 435 q 306 569 306 536 q 262 626 306 626 q 153 602 231 626 l 161 644 l 492 753 l 441 536 l 374 201 q 359 100 359 122 q 399 56 359 56 q 601 205 466 56 m 359 870 l 381 931 q 646 1113 472 1008 l 602 1004 q 359 870 432 920 z "},"":{"ha":523,"x_min":153,"x_max":601,"o":"m 601 205 l 589 142 q 322 -17 440 -17 q 224 85 224 -17 q 240 199 224 120 l 287 435 q 306 569 306 536 q 262 626 306 626 q 153 602 231 626 l 161 644 l 492 753 l 441 536 l 374 201 q 359 100 359 122 q 399 56 359 56 q 601 205 466 56 m 591 924 l 506 870 q 365 1050 457 968 l 446 1113 q 591 924 530 1029 z "},"":{"ha":523,"x_min":153,"x_max":616,"o":"m 601 205 l 589 142 q 322 -17 440 -17 q 224 85 224 -17 q 240 199 224 120 l 287 435 q 306 569 306 536 q 262 626 306 626 q 153 602 231 626 l 161 644 l 492 753 l 441 536 l 374 201 q 359 100 359 122 q 399 56 359 56 q 601 205 466 56 m 616 919 l 534 870 q 449 1019 483 926 q 337 898 411 972 q 318 877 334 895 l 222 870 q 431 1055 368 977 l 524 1113 q 616 919 554 1007 z "},"":{"ha":523,"x_min":153,"x_max":692,"o":"m 601 205 l 589 142 q 322 -17 440 -17 q 224 85 224 -17 q 240 199 224 120 l 287 435 q 306 569 306 536 q 262 626 306 626 q 153 602 231 626 l 161 644 l 492 753 l 441 536 l 374 201 q 359 100 359 122 q 399 56 359 56 q 601 205 466 56 m 262 870 l 180 973 l 286 1054 l 367 945 l 262 870 m 587 870 l 505 975 l 611 1054 l 692 946 l 587 870 z "},"":{"ha":987,"x_min":-5,"x_max":938,"o":"m 515 110 q 561 122 536 110 q 609 151 586 135 q 649 182 631 168 q 674 202 667 197 q 639 162 661 184 q 593 119 618 140 q 541 77 568 97 q 491 41 515 56 q 447 16 467 25 q 417 6 428 6 q 373 34 385 6 q 365 107 362 62 q 379 211 367 153 q 407 331 392 269 q 437 451 422 392 q 457 558 451 511 q 458 635 464 605 q 429 669 453 666 q 394 658 414 672 q 353 615 374 644 q 308 548 331 587 q 261 462 284 509 q 217 363 238 416 q 177 258 195 311 q 145 142 159 193 q 127 67 132 91 q 117 50 127 62 q 90 24 106 37 q 56 -1 74 10 q 24 -14 39 -12 q 2 -5 10 -16 q -1 37 -5 6 q 15 104 4 63 q 39 193 25 144 q 67 296 52 242 q 95 401 82 349 q 117 501 108 454 q 130 585 127 549 q 126 644 132 622 q 103 669 121 667 q 73 664 90 669 q 42 650 57 658 q 15 636 27 643 q -1 626 3 629 q 16 645 2 631 q 50 675 29 659 q 96 710 70 692 q 149 739 121 727 q 205 752 177 750 q 258 743 233 755 q 266 706 267 736 q 258 630 265 675 q 239 528 251 585 q 214 411 227 471 q 288 555 246 492 q 377 663 330 619 q 470 729 423 707 q 559 749 517 751 q 593 722 585 749 q 597 649 602 694 q 581 547 593 604 q 553 430 568 490 q 523 312 538 370 q 500 210 508 255 q 494 137 492 165 q 515 110 496 110 m 534 880 l 487 870 q 539 985 498 941 q 637 1029 581 1029 q 724 998 670 1029 l 747 985 q 824 958 798 958 q 893 1025 863 958 l 938 1038 q 791 870 913 870 q 700 897 749 870 l 669 914 q 599 939 624 939 q 534 880 559 939 z "},"":{"ha":809,"x_min":-1,"x_max":814,"o":"m 393 749 q 560 729 503 777 q 608 566 616 681 q 574 410 600 484 q 510 273 548 336 q 426 159 472 210 q 332 72 380 108 q 237 15 283 35 q 152 -7 191 -5 q 34 42 69 -12 q -1 208 -1 97 q 20 381 -1 305 q 76 514 41 456 q 154 613 111 572 q 241 682 197 654 q 325 726 285 710 q 393 749 365 742 m 473 467 q 476 541 477 502 q 465 612 476 579 q 427 666 453 644 q 355 688 401 688 q 279 670 311 688 q 224 623 247 652 q 188 554 202 593 q 164 472 174 515 q 150 385 155 429 q 140 300 145 340 q 137 200 134 240 q 154 136 140 160 q 192 102 168 112 q 250 92 216 92 q 342 117 304 87 q 406 200 380 147 q 447 323 431 254 q 473 467 463 393 m 528 870 l 550 931 q 814 1113 641 1008 l 770 1004 q 528 870 601 920 z "},"":{"ha":809,"x_min":-1,"x_max":760,"o":"m 393 749 q 560 729 503 777 q 608 566 616 681 q 574 410 600 484 q 510 273 548 336 q 426 159 472 210 q 332 72 380 108 q 237 15 283 35 q 152 -7 191 -5 q 34 42 69 -12 q -1 208 -1 97 q 20 381 -1 305 q 76 514 41 456 q 154 613 111 572 q 241 682 197 654 q 325 726 285 710 q 393 749 365 742 m 473 467 q 476 541 477 502 q 465 612 476 579 q 427 666 453 644 q 355 688 401 688 q 279 670 311 688 q 224 623 247 652 q 188 554 202 593 q 164 472 174 515 q 150 385 155 429 q 140 300 145 340 q 137 200 134 240 q 154 136 140 160 q 192 102 168 112 q 250 92 216 92 q 342 117 304 87 q 406 200 380 147 q 447 323 431 254 q 473 467 463 393 m 760 924 l 675 870 q 534 1050 626 968 l 614 1113 q 760 924 699 1029 z "},"":{"ha":809,"x_min":-1,"x_max":810,"o":"m 393 749 q 560 729 503 777 q 608 566 616 681 q 574 410 600 484 q 510 273 548 336 q 426 159 472 210 q 332 72 380 108 q 237 15 283 35 q 152 -7 191 -5 q 34 42 69 -12 q -1 208 -1 97 q 20 381 -1 305 q 76 514 41 456 q 154 613 111 572 q 241 682 197 654 q 325 726 285 710 q 393 749 365 742 m 473 467 q 476 541 477 502 q 465 612 476 579 q 427 666 453 644 q 355 688 401 688 q 279 670 311 688 q 224 623 247 652 q 188 554 202 593 q 164 472 174 515 q 150 385 155 429 q 140 300 145 340 q 137 200 134 240 q 154 136 140 160 q 192 102 168 112 q 250 92 216 92 q 342 117 304 87 q 406 200 380 147 q 447 323 431 254 q 473 467 463 393 m 810 919 l 728 870 q 643 1019 677 926 q 531 898 605 972 q 512 877 528 895 l 416 870 q 625 1055 562 977 l 718 1113 q 810 919 748 1007 z "},"":{"ha":809,"x_min":-1,"x_max":886,"o":"m 393 749 q 560 729 503 777 q 608 566 616 681 q 574 410 600 484 q 510 273 548 336 q 426 159 472 210 q 332 72 380 108 q 237 15 283 35 q 152 -7 191 -5 q 34 42 69 -12 q -1 208 -1 97 q 20 381 -1 305 q 76 514 41 456 q 154 613 111 572 q 241 682 197 654 q 325 726 285 710 q 393 749 365 742 m 473 467 q 476 541 477 502 q 465 612 476 579 q 427 666 453 644 q 355 688 401 688 q 279 670 311 688 q 224 623 247 652 q 188 554 202 593 q 164 472 174 515 q 150 385 155 429 q 140 300 145 340 q 137 200 134 240 q 154 136 140 160 q 192 102 168 112 q 250 92 216 92 q 342 117 304 87 q 406 200 380 147 q 447 323 431 254 q 473 467 463 393 m 456 870 l 374 973 l 480 1054 l 561 945 l 456 870 m 781 870 l 699 975 l 805 1054 l 886 946 l 781 870 z "},"":{"ha":809,"x_min":-1,"x_max":864,"o":"m 393 749 q 560 729 503 777 q 608 566 616 681 q 574 410 600 484 q 510 273 548 336 q 426 159 472 210 q 332 72 380 108 q 237 15 283 35 q 152 -7 191 -5 q 34 42 69 -12 q -1 208 -1 97 q 20 381 -1 305 q 76 514 41 456 q 154 613 111 572 q 241 682 197 654 q 325 726 285 710 q 393 749 365 742 m 473 467 q 476 541 477 502 q 465 612 476 579 q 427 666 453 644 q 355 688 401 688 q 279 670 311 688 q 224 623 247 652 q 188 554 202 593 q 164 472 174 515 q 150 385 155 429 q 140 300 145 340 q 137 200 134 240 q 154 136 140 160 q 192 102 168 112 q 250 92 216 92 q 342 117 304 87 q 406 200 380 147 q 447 323 431 254 q 473 467 463 393 m 460 880 l 413 870 q 466 985 424 941 q 564 1029 507 1029 q 650 998 596 1029 l 673 985 q 750 958 724 958 q 819 1025 789 958 l 864 1038 q 718 870 840 870 q 626 897 675 870 l 595 914 q 525 939 550 939 q 460 880 485 939 z "},"":{"ha":968,"x_min":3,"x_max":864,"o":"m 526 113 q 543 117 533 113 q 564 129 553 121 q 588 144 576 136 q 612 162 600 153 q 669 211 639 184 q 578 100 624 149 q 537 59 559 79 q 494 24 516 39 q 451 -1 473 8 q 410 -11 429 -11 q 380 14 389 -11 q 371 80 371 39 q 378 177 371 122 q 397 292 386 231 q 351 224 380 259 q 287 156 321 189 q 216 92 252 122 q 147 39 179 62 q 91 3 115 16 q 57 -11 66 -11 q 19 8 31 -11 q 5 60 7 27 q 10 136 3 92 q 28 228 16 179 q 54 329 39 277 q 83 429 68 380 q 109 522 97 478 q 127 597 121 565 q 133 649 134 630 q 119 668 132 668 q 90 664 105 668 q 59 655 74 660 q 33 645 45 650 q 14 638 20 640 q 29 654 17 643 q 59 680 41 665 q 100 709 77 694 q 149 738 123 725 q 201 759 174 750 q 254 767 228 767 q 280 741 277 767 q 276 672 284 715 q 252 573 269 629 q 217 459 236 518 q 181 343 199 400 q 152 238 163 286 q 141 159 141 191 q 157 119 140 127 q 198 119 175 111 q 245 145 220 127 q 294 187 269 163 q 339 235 318 211 q 377 279 360 258 q 403 311 393 300 q 424 401 412 355 q 446 490 435 447 q 468 573 457 534 q 488 643 479 612 q 504 695 497 674 q 514 724 511 716 l 644 748 q 630 694 640 730 q 605 610 619 658 q 574 507 590 562 q 544 396 558 451 q 518 290 529 341 q 503 199 507 239 q 504 137 499 160 q 526 113 509 113 m 578 870 l 600 931 q 864 1113 690 1008 l 820 1004 q 578 870 650 920 z "},"":{"ha":968,"x_min":3,"x_max":785,"o":"m 526 113 q 543 117 533 113 q 564 129 553 121 q 588 144 576 136 q 612 162 600 153 q 669 211 639 184 q 578 100 624 149 q 537 59 559 79 q 494 24 516 39 q 451 -1 473 8 q 410 -11 429 -11 q 380 14 389 -11 q 371 80 371 39 q 378 177 371 122 q 397 292 386 231 q 351 224 380 259 q 287 156 321 189 q 216 92 252 122 q 147 39 179 62 q 91 3 115 16 q 57 -11 66 -11 q 19 8 31 -11 q 5 60 7 27 q 10 136 3 92 q 28 228 16 179 q 54 329 39 277 q 83 429 68 380 q 109 522 97 478 q 127 597 121 565 q 133 649 134 630 q 119 668 132 668 q 90 664 105 668 q 59 655 74 660 q 33 645 45 650 q 14 638 20 640 q 29 654 17 643 q 59 680 41 665 q 100 709 77 694 q 149 738 123 725 q 201 759 174 750 q 254 767 228 767 q 280 741 277 767 q 276 672 284 715 q 252 573 269 629 q 217 459 236 518 q 181 343 199 400 q 152 238 163 286 q 141 159 141 191 q 157 119 140 127 q 198 119 175 111 q 245 145 220 127 q 294 187 269 163 q 339 235 318 211 q 377 279 360 258 q 403 311 393 300 q 424 401 412 355 q 446 490 435 447 q 468 573 457 534 q 488 643 479 612 q 504 695 497 674 q 514 724 511 716 l 644 748 q 630 694 640 730 q 605 610 619 658 q 574 507 590 562 q 544 396 558 451 q 518 290 529 341 q 503 199 507 239 q 504 137 499 160 q 526 113 509 113 m 785 924 l 699 870 q 558 1050 650 968 l 639 1113 q 785 924 723 1029 z "},"":{"ha":968,"x_min":3,"x_max":844,"o":"m 526 113 q 543 117 533 113 q 564 129 553 121 q 588 144 576 136 q 612 162 600 153 q 669 211 639 184 q 578 100 624 149 q 537 59 559 79 q 494 24 516 39 q 451 -1 473 8 q 410 -11 429 -11 q 380 14 389 -11 q 371 80 371 39 q 378 177 371 122 q 397 292 386 231 q 351 224 380 259 q 287 156 321 189 q 216 92 252 122 q 147 39 179 62 q 91 3 115 16 q 57 -11 66 -11 q 19 8 31 -11 q 5 60 7 27 q 10 136 3 92 q 28 228 16 179 q 54 329 39 277 q 83 429 68 380 q 109 522 97 478 q 127 597 121 565 q 133 649 134 630 q 119 668 132 668 q 90 664 105 668 q 59 655 74 660 q 33 645 45 650 q 14 638 20 640 q 29 654 17 643 q 59 680 41 665 q 100 709 77 694 q 149 738 123 725 q 201 759 174 750 q 254 767 228 767 q 280 741 277 767 q 276 672 284 715 q 252 573 269 629 q 217 459 236 518 q 181 343 199 400 q 152 238 163 286 q 141 159 141 191 q 157 119 140 127 q 198 119 175 111 q 245 145 220 127 q 294 187 269 163 q 339 235 318 211 q 377 279 360 258 q 403 311 393 300 q 424 401 412 355 q 446 490 435 447 q 468 573 457 534 q 488 643 479 612 q 504 695 497 674 q 514 724 511 716 l 644 748 q 630 694 640 730 q 605 610 619 658 q 574 507 590 562 q 544 396 558 451 q 518 290 529 341 q 503 199 507 239 q 504 137 499 160 q 526 113 509 113 m 844 919 l 761 870 q 676 1019 710 926 q 564 898 638 972 q 545 877 561 895 l 449 870 q 659 1055 595 977 l 751 1113 q 844 919 781 1007 z "},"":{"ha":968,"x_min":3,"x_max":927,"o":"m 526 113 q 543 117 533 113 q 564 129 553 121 q 588 144 576 136 q 612 162 600 153 q 669 211 639 184 q 578 100 624 149 q 537 59 559 79 q 494 24 516 39 q 451 -1 473 8 q 410 -11 429 -11 q 380 14 389 -11 q 371 80 371 39 q 378 177 371 122 q 397 292 386 231 q 351 224 380 259 q 287 156 321 189 q 216 92 252 122 q 147 39 179 62 q 91 3 115 16 q 57 -11 66 -11 q 19 8 31 -11 q 5 60 7 27 q 10 136 3 92 q 28 228 16 179 q 54 329 39 277 q 83 429 68 380 q 109 522 97 478 q 127 597 121 565 q 133 649 134 630 q 119 668 132 668 q 90 664 105 668 q 59 655 74 660 q 33 645 45 650 q 14 638 20 640 q 29 654 17 643 q 59 680 41 665 q 100 709 77 694 q 149 738 123 725 q 201 759 174 750 q 254 767 228 767 q 280 741 277 767 q 276 672 284 715 q 252 573 269 629 q 217 459 236 518 q 181 343 199 400 q 152 238 163 286 q 141 159 141 191 q 157 119 140 127 q 198 119 175 111 q 245 145 220 127 q 294 187 269 163 q 339 235 318 211 q 377 279 360 258 q 403 311 393 300 q 424 401 412 355 q 446 490 435 447 q 468 573 457 534 q 488 643 479 612 q 504 695 497 674 q 514 724 511 716 l 644 748 q 630 694 640 730 q 605 610 619 658 q 574 507 590 562 q 544 396 558 451 q 518 290 529 341 q 503 199 507 239 q 504 137 499 160 q 526 113 509 113 m 498 870 l 415 973 l 522 1054 l 602 945 l 498 870 m 823 870 l 740 975 l 846 1054 l 927 946 l 823 870 z "},"":{"ha":878,"x_min":234,"x_max":886,"o":"m 327 -218 l 534 586 l 234 558 l 280 659 l 543 629 l 572 1004 l 711 1029 l 585 629 l 886 659 l 842 558 l 576 586 l 467 -201 l 327 -218 z "},"":{"ha":385,"x_min":255,"x_max":489,"o":"m 372 795 q 289 829 323 795 q 255 912 255 863 q 289 995 255 961 q 372 1029 323 1029 q 455 995 421 1029 q 489 912 489 961 q 455 829 489 863 q 372 795 421 795 m 372 837 q 425 859 402 837 q 447 912 447 882 q 425 965 447 942 q 372 987 402 987 q 319 965 342 987 q 297 912 297 942 q 319 859 297 882 q 372 837 342 837 z "},"":{"ha":652,"x_min":134,"x_max":673,"o":"m 345 -17 l 380 166 q 134 334 134 184 q 228 504 134 432 q 464 586 322 575 l 497 753 l 539 753 l 506 586 q 673 566 600 582 l 649 444 l 607 444 q 608 460 607 450 q 610 487 610 480 q 498 545 610 539 l 432 215 q 622 264 534 215 l 612 215 q 422 166 512 166 l 386 -17 l 345 -17 m 391 219 l 456 545 q 256 361 256 515 q 391 219 256 240 z "},"":{"ha":823,"x_min":16,"x_max":840,"o":"m 16 0 l 102 83 l 115 83 q 257 129 216 83 q 327 323 298 175 l 336 368 l 185 368 l 193 410 l 344 410 l 356 469 q 468 679 383 604 q 677 753 552 753 q 840 721 751 753 l 808 552 l 761 552 l 763 564 q 765 584 765 573 q 640 703 765 703 q 551 669 578 703 q 503 536 523 635 l 478 410 l 705 410 l 696 368 l 470 368 l 464 338 q 403 196 446 250 q 259 83 360 142 l 452 83 q 640 97 582 83 q 771 157 698 111 l 761 107 q 627 7 692 33 q 443 -18 562 -18 l 416 -18 l 16 0 z "},"":{"ha":878,"x_min":101,"x_max":879,"o":"m 101 -144 l 219 -75 q 453 -168 328 -168 q 585 -120 532 -168 q 639 -4 639 -73 q 608 76 639 45 q 484 151 576 107 l 414 182 q 232 385 232 267 q 385 614 232 498 q 309 768 309 675 q 414 956 309 883 q 685 1029 519 1029 q 879 998 766 1029 l 845 828 l 804 828 q 807 863 807 851 q 614 979 807 979 q 471 930 527 979 q 416 804 416 881 q 439 729 416 752 q 577 646 463 707 l 635 614 q 804 418 804 522 q 662 189 804 301 q 755 37 755 128 q 645 -144 755 -71 q 374 -218 535 -218 q 101 -144 230 -218 m 628 215 q 704 372 704 300 q 592 497 704 442 l 526 530 q 419 588 467 559 q 334 430 334 513 q 447 307 334 360 l 538 263 q 628 215 572 248 z "},"":{"ha":845,"x_min":397,"x_max":598,"o":"m 498 297 q 427 326 456 297 q 397 397 397 355 q 427 468 397 439 q 498 498 456 498 q 569 468 539 498 q 598 397 598 439 q 569 326 598 355 q 498 297 540 297 z "},"":{"ha":878,"x_min":227,"x_max":892,"o":"m 344 -226 l 481 467 q 227 704 227 510 q 327 911 227 825 q 592 1023 426 998 l 621 1171 l 663 1171 l 634 1023 l 662 1023 q 750 1017 701 1023 l 780 1171 l 822 1171 l 790 1008 q 892 976 839 995 l 884 931 q 781 964 846 947 l 699 552 q 819 605 748 568 l 808 552 q 689 499 747 517 l 545 -226 l 503 -226 l 644 484 q 524 467 562 467 l 386 -226 l 344 -226 m 654 535 l 741 972 q 663 980 695 980 q 625 978 651 980 l 534 521 q 654 535 589 521 z "},"":{"ha":838,"x_min":-329,"x_max":848,"o":"m -329 -433 l -231 -340 q -101 -368 -161 -368 q 48 -309 0 -368 q 129 -83 96 -250 l 280 677 q 450 1058 332 941 q 711 1188 579 1188 q 808 1150 768 1188 q 848 1057 848 1112 q 711 840 848 962 l 676 808 q 597 671 597 737 q 683 515 597 616 l 760 425 q 846 237 846 323 q 745 57 846 131 q 499 -17 644 -17 q 376 15 431 -17 l 457 109 q 612 50 526 50 q 709 88 668 50 q 750 177 750 126 q 661 341 750 244 l 609 397 q 472 627 472 547 q 566 777 472 707 l 619 815 l 639 831 q 718 999 718 897 q 621 1105 718 1105 q 449 855 499 1105 l 300 102 q 109 -317 241 -191 q -211 -452 -31 -452 q -329 -433 -265 -452 z "},"":{"ha":845,"x_min":245,"x_max":848,"o":"m 547 418 q 334 507 422 418 q 245 720 245 595 q 334 932 245 844 q 547 1021 422 1021 q 760 932 672 1021 q 848 720 848 844 q 760 507 848 595 q 547 418 671 418 m 547 456 q 732 534 654 456 q 810 720 810 612 q 732 905 810 827 q 547 983 654 983 q 361 905 439 983 q 283 720 283 827 q 361 534 283 612 q 547 456 439 456 m 498 694 l 472 561 l 372 561 l 380 602 l 430 602 l 481 862 l 431 862 l 439 903 l 563 903 q 708 824 708 903 q 612 706 708 753 l 645 602 l 703 602 l 695 561 l 604 561 l 557 694 l 498 694 m 507 736 l 541 736 q 656 816 656 736 q 572 862 656 862 l 532 862 l 507 736 z "},"":{"ha":1171,"x_min":157,"x_max":1211,"o":"m 684 -25 q 311 130 466 -25 q 157 502 157 284 q 311 874 157 720 q 684 1029 466 1029 q 1057 874 902 1029 q 1211 502 1211 720 q 1057 130 1211 284 q 684 -25 902 -25 m 684 17 q 1027 159 884 17 q 1169 502 1169 302 q 1027 845 1169 703 q 684 987 884 987 q 341 845 484 987 q 199 502 199 703 q 341 159 199 302 q 684 17 484 17 m 838 231 q 663 201 739 201 q 478 263 546 201 q 411 435 411 326 q 510 692 411 589 q 758 795 609 795 q 945 766 844 795 l 911 636 l 862 644 l 869 722 q 746 752 804 752 q 580 660 648 752 q 512 435 512 567 q 680 255 512 255 q 850 289 776 255 l 838 231 z "},"":{"ha":1255,"x_min":212,"x_max":1396,"o":"m 414 962 l 289 962 l 271 870 l 212 870 l 239 1004 l 707 1004 l 681 870 l 623 870 l 640 962 l 515 962 l 430 536 l 522 536 l 514 494 l 229 494 l 238 536 l 330 536 l 414 962 m 952 536 l 888 901 l 807 494 l 648 494 l 656 536 l 748 536 l 833 962 l 741 962 l 749 1004 l 976 1004 l 1028 704 l 1192 1004 l 1396 1004 l 1388 962 l 1295 962 l 1211 536 l 1303 536 l 1294 494 l 1109 494 l 1196 928 l 981 536 l 952 536 z "},"":{"ha":812,"x_min":522,"x_max":808,"o":"m 522 870 l 544 931 q 808 1113 635 1008 l 764 1004 q 522 870 595 920 z "},"":{"ha":812,"x_min":384,"x_max":896,"o":"m 467 870 l 384 973 l 490 1054 l 571 945 l 467 870 m 791 870 l 709 975 l 815 1054 l 896 946 l 791 870 z "},"":{"ha":878,"x_min":120,"x_max":918,"o":"m 120 247 l 135 322 l 421 322 l 546 481 l 167 481 l 182 556 l 604 556 l 719 707 l 802 707 l 689 556 l 918 556 l 903 481 l 631 481 l 508 322 l 871 322 l 857 247 l 449 247 l 334 96 l 247 96 l 361 247 l 120 247 z "},"":{"ha":1603,"x_min":58,"x_max":1714,"o":"m 58 57 l 149 151 q 318 50 218 50 q 470 109 395 50 q 659 314 545 167 l 1128 921 q 901 945 1011 945 q 693 870 771 945 q 615 670 615 795 l 485 604 q 762 964 506 886 q 1246 1004 892 1004 l 1714 1004 l 1654 812 l 1611 812 q 1617 859 1617 839 q 1555 933 1617 913 q 1332 954 1493 954 l 1310 954 l 1232 552 l 1535 552 l 1466 482 q 1256 502 1311 502 l 1222 502 l 1162 206 q 1156 147 1156 170 q 1205 91 1156 106 q 1379 75 1254 75 q 1582 151 1482 75 l 1572 97 q 1362 -21 1455 -21 q 1320 -20 1347 -21 l 979 0 l 1042 314 l 723 314 l 629 191 q 458 22 534 70 q 279 -25 382 -25 q 58 57 151 -25 m 761 355 l 1050 355 l 1153 871 l 761 355 z "},"":{"ha":1088,"x_min":159,"x_max":1127,"o":"m 229 -100 l 311 31 q 159 360 159 138 q 343 829 159 629 q 773 1029 527 1029 q 931 994 863 1029 l 1000 1105 l 1063 1105 l 977 968 q 1127 656 1127 863 q 951 177 1127 380 q 536 -25 775 -25 q 357 9 429 -25 l 288 -100 l 229 -100 m 365 114 l 887 926 q 718 987 817 987 q 546 916 633 987 q 399 726 459 844 q 314 322 314 557 q 365 114 314 203 m 923 883 l 399 75 q 538 21 470 21 q 849 207 723 21 q 976 663 976 393 q 923 883 976 793 z "},"":{"ha":1171,"x_min":158,"x_max":1180,"o":"m 644 336 q 342 117 488 117 q 210 175 262 117 q 158 326 158 234 q 255 573 158 460 q 469 686 353 686 q 595 636 545 686 q 700 460 646 587 q 999 686 870 686 q 1129 627 1078 686 q 1180 478 1180 568 q 1085 228 1180 339 q 872 117 991 117 q 747 164 795 117 q 644 336 698 211 m 622 372 q 429 583 526 583 q 294 500 357 583 q 231 323 231 418 q 268 222 231 261 q 362 182 304 182 q 622 372 487 182 m 722 425 q 909 214 819 214 q 1044 296 981 214 q 1108 469 1108 378 q 1071 574 1108 534 q 974 614 1034 614 q 722 425 859 614 z "},"":{"ha":878,"x_min":71,"x_max":915,"o":"m 71 0 l 86 75 l 823 75 l 808 0 l 71 0 m 441 201 l 494 465 l 163 465 l 178 540 l 509 540 l 562 803 l 637 803 l 585 540 l 915 540 l 900 465 l 570 465 l 517 201 l 441 201 z "},"":{"ha":878,"x_min":71,"x_max":979,"o":"m 71 0 l 86 75 l 823 75 l 808 0 l 71 0 m 979 862 l 958 770 l 337 486 l 848 204 l 833 125 l 170 494 l 979 862 z "},"":{"ha":878,"x_min":71,"x_max":905,"o":"m 71 0 l 86 75 l 823 75 l 808 0 l 71 0 m 96 125 l 117 216 l 738 502 l 227 783 l 243 862 l 905 494 l 96 125 z "},"":{"ha":909,"x_min":100,"x_max":1036,"o":"m 146 0 l 233 94 q 262 92 254 92 q 450 243 391 92 l 256 243 l 264 284 l 460 284 q 469 385 466 326 l 283 385 l 292 427 l 469 427 q 470 442 470 438 q 437 594 470 534 q 353 654 404 654 q 236 601 304 654 q 130 479 168 548 l 100 503 q 253 683 162 612 q 425 753 345 753 q 576 488 576 753 l 576 445 q 915 753 694 753 q 1036 721 984 753 l 957 616 q 862 644 910 644 q 613 427 699 644 l 787 427 l 779 385 l 605 385 l 597 347 q 574 284 591 315 l 758 284 l 749 243 l 551 243 q 366 85 489 130 l 587 73 l 503 -17 l 146 0 z "},"":{"ha":935,"x_min":94,"x_max":1013,"o":"m 94 -284 l 146 -71 l 254 471 q 265 576 265 528 q 194 736 265 653 l 347 745 q 402 587 402 696 q 385 454 402 543 l 334 201 q 327 152 327 166 q 369 100 327 100 q 522 216 420 100 q 709 489 623 332 l 759 736 l 903 745 l 852 536 l 786 201 q 770 100 770 125 q 811 50 770 50 q 1013 205 878 50 l 1000 142 q 734 -17 852 -17 q 636 85 636 -17 q 652 201 636 121 l 685 368 l 675 368 q 294 0 487 0 l 240 -268 l 94 -284 z "},"":{"ha":878,"x_min":217,"x_max":826,"o":"m 250 877 q 532 1088 352 1088 q 749 964 671 1088 q 826 619 826 841 q 711 164 826 345 q 421 -17 595 -17 q 273 48 329 -17 q 217 219 217 113 q 334 538 217 391 q 588 686 452 686 q 784 570 700 686 q 488 970 784 970 q 250 877 363 970 m 780 510 q 597 648 706 648 q 420 536 496 648 q 343 279 343 425 q 379 128 343 186 q 474 70 416 70 q 671 197 583 70 q 780 510 760 323 z "},"":{"ha":903,"x_min":33,"x_max":946,"o":"m 33 0 l 132 100 q 201 108 172 100 q 477 376 293 132 l 591 527 l 279 877 l 365 1004 l 946 1004 l 888 799 l 843 799 l 846 813 q 850 849 850 833 q 791 933 850 913 q 552 954 732 954 l 397 954 l 731 574 l 487 296 q 288 102 349 140 l 608 86 q 667 84 638 84 q 884 147 789 84 l 874 100 q 727 -2 778 20 q 596 -25 677 -25 q 485 -22 563 -25 l 33 0 z "},"":{"ha":1246,"x_min":45,"x_max":1527,"o":"m 50 0 l 152 100 l 164 100 l 199 100 q 314 157 277 100 q 386 384 352 215 l 489 903 l 441 903 q 180 697 180 903 q 186 637 180 673 l 45 571 q 677 1004 107 1004 l 1155 1004 l 1277 1003 q 1497 1056 1439 1003 l 1527 1033 q 1392 931 1465 959 q 1190 903 1320 903 l 1150 903 l 1024 269 q 1006 113 1006 179 q 1068 42 1006 42 q 1131 47 1088 42 l 1121 0 l 851 -17 q 844 32 844 9 q 869 207 844 76 l 1008 903 l 631 903 l 537 431 q 463 229 512 303 q 309 89 413 155 l 570 83 l 476 -17 l 50 0 z "},"":{"ha":1155,"x_min":112,"x_max":1184,"o":"m 233 -8 l 283 201 l 371 644 l 340 644 q 112 562 214 644 l 136 682 q 336 736 217 736 l 1184 736 l 1166 644 l 957 644 l 882 270 q 852 100 852 121 q 895 56 852 56 q 1103 203 979 56 l 1090 142 q 815 -17 950 -17 q 716 92 716 -17 q 751 287 716 111 l 823 644 l 505 644 l 375 0 l 233 -8 z "},"":{"ha":878,"x_min":158,"x_max":880,"o":"m 789 977 q 764 983 775 983 q 689 920 714 983 q 627 638 664 857 q 593 438 595 450 l 582 380 q 443 -66 520 69 q 248 -201 365 -201 q 158 -127 158 -201 q 184 -75 158 -99 q 239 -50 210 -50 q 287 -94 287 -50 q 252 -154 287 -122 q 273 -159 264 -159 q 354 -94 327 -159 q 416 186 382 -28 q 449 385 446 368 l 460 443 q 600 895 524 760 q 793 1029 677 1029 q 880 952 880 1029 q 855 896 880 922 q 800 870 830 870 q 756 918 756 870 q 789 977 756 951 z "},"":{"ha":669,"x_min":172,"x_max":806,"o":"m 806 679 l 791 610 q 587 486 672 486 q 508 571 508 486 q 523 675 508 614 l 543 753 l 515 753 q 391 561 463 636 q 260 485 319 485 q 172 622 172 485 q 279 905 172 774 q 556 1029 382 1029 q 713 1021 618 1029 l 667 833 l 639 694 q 623 592 623 609 q 650 559 623 559 q 806 679 699 559 m 559 882 l 573 946 q 465 972 517 972 q 334 884 387 972 q 281 663 281 795 q 321 590 281 590 q 559 882 387 590 z "},"":{"ha":669,"x_min":220,"x_max":748,"o":"m 397 485 q 269 532 318 485 q 220 656 220 579 q 327 913 220 798 q 566 1029 435 1029 q 698 981 648 1029 q 748 856 748 934 q 640 600 748 714 q 397 485 532 485 m 445 535 q 566 628 511 535 q 621 836 621 722 q 522 979 621 979 q 401 888 454 979 q 347 683 347 797 q 445 535 347 535 z "},"":{"ha":1165,"x_min":-14,"x_max":1166,"o":"m -3 -25 l -14 12 q 109 92 60 75 q 272 109 157 109 l 372 109 q 239 433 239 235 q 417 844 239 659 q 813 1029 595 1029 q 1070 933 973 1029 q 1166 682 1166 838 q 786 109 1166 317 l 869 109 l 965 108 q 1137 150 1079 108 l 1126 96 q 918 -17 1012 -17 q 843 -15 876 -17 l 604 0 l 694 109 q 925 324 830 157 q 1021 680 1021 490 q 955 901 1021 814 q 785 987 888 987 q 510 821 629 987 q 391 435 391 654 q 544 109 391 209 l 450 -8 l 137 -1 l 100 1 q -3 -25 56 1 z "},"":{"ha":1272,"x_min":125,"x_max":1251,"o":"m 667 368 l 655 368 q 471 91 578 198 q 269 -17 363 -17 q 125 165 125 -17 q 283 555 125 364 q 673 753 446 753 q 857 738 715 753 q 884 736 861 738 l 858 642 q 1113 753 995 753 q 1213 715 1175 753 q 1251 616 1251 677 q 1124 393 1251 481 q 791 296 997 304 l 791 264 q 941 64 791 64 q 1250 191 1047 64 l 1240 139 q 860 -18 1016 -18 q 709 52 770 -18 q 648 224 648 121 q 667 368 648 274 m 720 644 q 550 683 634 683 q 353 526 427 683 q 266 195 266 342 q 329 88 266 88 q 496 211 387 88 q 689 490 606 334 l 720 644 m 791 334 q 1031 413 943 347 q 1118 584 1118 480 q 1042 690 1118 690 q 885 580 962 690 q 791 334 808 471 z "},"":{"ha":809,"x_min":113,"x_max":847,"o":"m 168 -100 l 113 -100 l 213 35 q 138 223 138 115 q 285 586 138 418 q 603 753 432 753 q 715 724 663 753 l 796 837 l 847 837 l 749 702 q 823 514 823 612 q 676 147 823 311 q 346 -17 529 -17 q 247 9 302 -17 l 168 -100 m 291 142 l 649 635 q 543 696 615 696 q 359 558 441 696 q 277 249 277 420 q 291 142 277 209 m 669 591 l 311 97 q 414 37 347 37 q 601 172 517 37 q 685 472 685 307 q 669 591 685 522 z "},"":{"ha":694,"x_min":60,"x_max":618,"o":"m 618 654 l 510 569 l 429 681 l 535 753 l 618 654 m 554 473 q 395 234 541 359 l 368 210 q 206 -86 206 73 q 247 -205 206 -160 q 353 -251 288 -251 q 549 -83 507 -251 l 591 -83 l 559 -244 q 310 -293 418 -293 q 129 -242 197 -293 q 60 -109 60 -192 q 201 123 60 3 l 273 183 q 415 415 388 281 l 419 434 l 554 473 z "},"":{"ha":351,"x_min":68,"x_max":412,"o":"m 412 650 l 307 569 l 227 678 l 332 753 l 412 650 m 306 474 l 247 -64 l 207 -268 l 68 -293 l 113 -64 l 269 462 l 306 474 z "},"":{"ha":878,"x_min":167,"x_max":918,"o":"m 167 481 l 182 556 l 918 556 l 854 234 l 766 234 l 815 481 l 167 481 z "},"":{"ha":987,"x_min":229,"x_max":1333,"o":"m 244 257 l 229 293 l 431 399 l 613 -134 l 1289 1105 l 1333 1105 l 621 -201 l 551 -201 l 372 322 l 244 257 z "},"":{"ha":639,"x_min":102,"x_max":810,"o":"m 149 -218 l 197 -17 l 269 343 l 102 343 l 110 385 l 277 385 l 281 402 q 436 652 311 552 q 718 753 562 753 q 810 739 770 753 l 720 638 q 606 686 671 686 q 431 482 471 686 l 411 385 l 587 385 l 578 343 l 403 343 l 295 -201 l 149 -218 z "},"":{"ha":878,"x_min":103,"x_max":936,"o":"m 103 159 q 325 389 162 389 q 488 326 376 389 l 563 282 q 704 228 656 228 q 838 359 781 228 l 880 359 q 656 138 814 138 q 496 194 593 138 l 421 237 q 279 298 316 298 q 145 159 201 298 l 103 159 m 159 444 q 381 673 218 673 q 544 610 433 673 l 620 566 q 761 513 713 513 q 894 644 838 513 l 936 644 q 713 422 869 422 q 552 478 649 422 l 477 521 q 336 583 373 583 q 201 444 257 583 l 159 444 z "},"":{"ha":1139,"x_min":7,"x_max":1089,"o":"m 7 0 l 127 125 q 156 122 146 122 q 411 417 245 122 l 741 1004 l 868 1029 l 909 803 l 1006 363 q 1089 91 1041 205 l 985 -17 l 7 0 m 254 123 l 916 107 l 743 878 l 425 339 q 254 123 340 194 z "},"":{"ha":795,"x_min":154,"x_max":824,"o":"m 349 67 q 154 368 282 223 q 408 616 333 477 l 549 669 q 292 415 501 555 q 466 130 394 292 l 349 67 m 625 67 q 429 368 547 249 q 684 620 616 497 l 824 669 q 568 419 776 557 q 741 134 669 298 l 625 67 z "},"":{"ha":795,"x_min":117,"x_max":787,"o":"m 592 669 q 787 368 660 513 q 533 121 609 260 l 393 67 q 649 321 440 180 q 475 606 548 443 l 592 669 m 317 669 q 512 368 394 487 q 258 117 325 239 l 117 67 q 374 317 165 180 q 200 602 273 439 l 317 669 z "},"":{"ha":1389,"x_min":168,"x_max":1249,"o":"m 168 0 l 194 134 l 328 134 l 301 0 l 168 0 m 628 0 l 654 134 l 788 134 l 762 0 l 628 0 m 1088 0 l 1114 134 l 1249 134 l 1221 0 l 1088 0 z "},"":{"ha":922,"x_min":0,"x_max":0,"o":""},"":{"ha":1354,"x_min":-278,"x_max":1185,"o":"m 1008 951 q 1001 940 1002 945 q 996 930 1000 935 q 974 879 984 910 q 954 809 964 848 q 936 727 945 770 q 920 639 928 683 q 905 553 912 595 q 890 475 897 511 l 969 475 q 930 456 949 465 q 884 441 910 447 q 881 425 884 433 q 877 411 877 416 q 857 340 870 376 q 826 270 843 304 q 789 204 808 235 q 753 150 770 174 q 722 111 736 126 q 703 93 709 96 q 738 92 719 93 q 781 91 757 91 q 834 92 804 91 q 903 98 864 94 q 888 76 899 88 q 863 51 878 63 q 830 29 848 39 q 793 14 812 19 q 738 3 769 7 q 680 -2 706 -1 q 636 0 653 -3 q 625 7 620 2 q 674 77 651 33 q 717 176 697 121 q 754 292 737 230 q 787 417 772 354 q 689 409 743 412 q 572 406 635 406 q 489 271 531 338 q 400 141 446 204 q 304 22 355 79 q 197 -81 254 -35 q 75 -161 140 -127 q -64 -214 10 -195 q -156 -220 -115 -225 q -224 -197 -197 -214 q -265 -153 -252 -180 q -272 -97 -278 -127 q -240 -37 -266 -67 q -163 20 -214 -6 q -161 16 -158 23 q -168 -5 -164 8 q -174 -35 -172 -18 q -170 -67 -176 -52 q -143 -95 -163 -83 q -85 -111 -124 -107 q 42 -101 -18 -117 q 156 -50 102 -84 q 261 35 211 -15 q 357 144 311 84 q 447 270 404 203 q 533 406 491 337 q 406 398 460 406 q 314 378 352 390 q 251 350 275 366 q 212 318 227 334 q 191 287 197 302 q 182 261 184 272 q 198 320 182 286 q 244 387 214 354 q 319 443 275 419 q 422 469 364 467 l 579 469 q 656 593 618 532 q 732 706 694 653 q 810 803 771 759 q 890 878 850 846 q 807 902 856 888 q 701 931 758 917 q 586 955 645 945 q 475 968 528 966 q 379 960 422 970 q 312 924 336 950 q 233 802 254 859 q 223 700 212 745 q 274 626 234 656 q 377 587 314 597 q 378 579 384 585 q 359 565 373 573 q 326 548 346 557 q 285 531 307 539 q 241 519 263 524 q 201 514 219 514 q 168 533 182 515 q 144 579 153 551 q 134 646 135 608 q 143 723 133 683 q 175 805 153 764 q 235 883 197 846 q 327 949 273 920 q 456 996 381 979 q 575 1014 515 1010 q 689 1014 634 1017 q 794 1002 745 1010 q 886 984 844 994 q 958 965 927 974 q 1008 951 989 956 m 799 475 q 823 597 812 538 q 843 704 833 655 q 861 787 853 752 q 877 840 869 823 q 808 765 841 806 q 742 677 774 724 q 678 579 710 631 q 612 475 646 528 l 799 475 m 1185 1141 l 1100 1088 q 959 1268 1051 1186 l 1040 1331 q 1185 1141 1124 1246 z "},"":{"ha":1354,"x_min":-278,"x_max":1297,"o":"m 1008 951 q 1001 940 1002 945 q 996 930 1000 935 q 974 879 984 910 q 954 809 964 848 q 936 727 945 770 q 920 639 928 683 q 905 553 912 595 q 890 475 897 511 l 969 475 q 930 456 949 465 q 884 441 910 447 q 881 425 884 433 q 877 411 877 416 q 857 340 870 376 q 826 270 843 304 q 789 204 808 235 q 753 150 770 174 q 722 111 736 126 q 703 93 709 96 q 738 92 719 93 q 781 91 757 91 q 834 92 804 91 q 903 98 864 94 q 888 76 899 88 q 863 51 878 63 q 830 29 848 39 q 793 14 812 19 q 738 3 769 7 q 680 -2 706 -1 q 636 0 653 -3 q 625 7 620 2 q 674 77 651 33 q 717 176 697 121 q 754 292 737 230 q 787 417 772 354 q 689 409 743 412 q 572 406 635 406 q 489 271 531 338 q 400 141 446 204 q 304 22 355 79 q 197 -81 254 -35 q 75 -161 140 -127 q -64 -214 10 -195 q -156 -220 -115 -225 q -224 -197 -197 -214 q -265 -153 -252 -180 q -272 -97 -278 -127 q -240 -37 -266 -67 q -163 20 -214 -6 q -161 16 -158 23 q -168 -5 -164 8 q -174 -35 -172 -18 q -170 -67 -176 -52 q -143 -95 -163 -83 q -85 -111 -124 -107 q 42 -101 -18 -117 q 156 -50 102 -84 q 261 35 211 -15 q 357 144 311 84 q 447 270 404 203 q 533 406 491 337 q 406 398 460 406 q 314 378 352 390 q 251 350 275 366 q 212 318 227 334 q 191 287 197 302 q 182 261 184 272 q 198 320 182 286 q 244 387 214 354 q 319 443 275 419 q 422 469 364 467 l 579 469 q 656 593 618 532 q 732 706 694 653 q 810 803 771 759 q 890 878 850 846 q 807 902 856 888 q 701 931 758 917 q 586 955 645 945 q 475 968 528 966 q 379 960 422 970 q 312 924 336 950 q 233 802 254 859 q 223 700 212 745 q 274 626 234 656 q 377 587 314 597 q 378 579 384 585 q 359 565 373 573 q 326 548 346 557 q 285 531 307 539 q 241 519 263 524 q 201 514 219 514 q 168 533 182 515 q 144 579 153 551 q 134 646 135 608 q 143 723 133 683 q 175 805 153 764 q 235 883 197 846 q 327 949 273 920 q 456 996 381 979 q 575 1014 515 1010 q 689 1014 634 1017 q 794 1002 745 1010 q 886 984 844 994 q 958 965 927 974 q 1008 951 989 956 m 799 475 q 823 597 812 538 q 843 704 833 655 q 861 787 853 752 q 877 840 869 823 q 808 765 841 806 q 742 677 774 724 q 678 579 710 631 q 612 475 646 528 l 799 475 m 894 1097 l 846 1088 q 899 1203 857 1159 q 997 1246 941 1246 q 1084 1216 1029 1246 l 1107 1203 q 1183 1175 1157 1175 q 1253 1242 1222 1175 l 1297 1255 q 1151 1088 1273 1088 q 1059 1114 1108 1088 l 1028 1132 q 958 1156 983 1156 q 894 1097 918 1156 z "},"":{"ha":1088,"x_min":203,"x_max":1038,"o":"m 456 812 q 621 961 541 907 q 768 1030 701 1014 q 888 1030 836 1047 q 971 967 940 1013 q 1009 850 1002 922 q 992 688 1016 779 q 911 487 968 596 q 758 258 854 378 q 572 68 657 132 q 419 -12 486 3 q 303 1 351 -26 q 230 88 255 29 q 203 231 204 147 q 229 411 203 315 q 312 611 256 507 q 456 812 368 714 m 751 297 q 849 464 815 379 q 891 628 883 549 q 885 772 899 706 q 839 883 871 839 q 761 945 808 928 q 658 942 714 962 q 539 860 602 922 q 410 683 475 798 q 354 548 374 619 q 329 410 334 477 q 333 282 323 342 q 366 179 342 222 q 426 114 389 136 q 511 103 462 93 q 620 159 559 113 q 751 297 680 205 m 635 1097 l 587 1088 q 640 1203 598 1159 q 738 1246 682 1246 q 825 1216 770 1246 l 848 1203 q 924 1175 898 1175 q 994 1242 963 1175 l 1038 1255 q 892 1088 1014 1088 q 800 1114 849 1088 l 769 1132 q 699 1156 724 1156 q 635 1097 659 1156 z "},"":{"ha":1391,"x_min":157,"x_max":1501,"o":"m 769 0 l 783 66 q 517 -25 669 -25 q 253 77 349 -25 q 157 356 157 178 q 337 825 157 622 q 753 1029 517 1029 q 958 949 877 1029 l 969 1004 l 1501 1004 l 1440 812 l 1398 812 q 1404 859 1404 839 q 1342 933 1404 913 q 1118 954 1280 954 l 1097 954 l 1019 552 l 1321 552 l 1252 482 q 1042 502 1098 502 l 1008 502 l 953 205 q 943 146 943 157 q 1157 75 943 75 q 1369 151 1270 75 l 1358 97 q 1133 -21 1241 -21 q 1094 -20 1115 -21 l 769 0 m 837 340 l 905 681 q 917 792 917 740 q 863 933 917 879 q 724 987 810 987 q 439 795 569 987 q 310 372 310 603 q 374 111 310 205 q 551 16 437 16 q 837 340 770 16 z "},"":{"ha":1272,"x_min":136,"x_max":1251,"o":"m 665 136 q 349 -17 503 -17 q 197 52 257 -17 q 136 223 136 120 q 285 587 136 422 q 612 753 433 753 q 809 593 748 753 q 1114 753 966 753 q 1212 714 1174 753 q 1251 613 1251 675 q 1124 390 1251 479 q 791 293 997 302 l 791 262 q 940 62 791 62 q 1250 189 1048 62 l 1240 137 q 864 -17 1020 -17 q 665 136 713 -17 m 406 33 q 599 168 513 33 q 686 471 686 303 q 649 633 686 572 q 550 694 612 694 q 360 559 444 694 q 275 256 275 425 q 406 33 275 33 m 795 334 q 1034 413 946 347 q 1122 584 1122 480 q 1045 690 1122 690 q 887 580 964 690 q 795 334 810 470 z "},"":{"ha":694,"x_min":144,"x_max":713,"o":"m 144 368 l 161 452 l 713 452 l 696 368 l 144 368 z "},"":{"ha":1389,"x_min":140,"x_max":1409,"o":"m 140 368 l 154 435 l 1409 435 l 1395 368 l 140 368 z "},"":{"ha":644,"x_min":265,"x_max":804,"o":"m 747 903 l 640 820 l 558 930 q 804 1188 578 1188 l 775 1146 q 663 1006 677 1127 l 747 903 m 454 903 l 347 820 l 265 930 q 511 1188 285 1188 l 482 1146 q 371 1006 383 1127 l 454 903 z "},"":{"ha":644,"x_min":232,"x_max":770,"o":"m 289 1107 l 396 1188 l 478 1081 q 232 820 458 820 l 260 862 q 372 1005 359 882 l 289 1107 m 581 1107 l 689 1188 l 770 1081 q 525 820 751 820 l 553 862 q 665 1005 652 882 l 581 1107 z "},"":{"ha":351,"x_min":265,"x_max":511,"o":"m 454 903 l 347 820 l 265 930 q 511 1188 285 1188 l 482 1146 q 371 1006 383 1127 l 454 903 z "},"":{"ha":351,"x_min":231,"x_max":477,"o":"m 288 1107 l 395 1188 l 477 1081 q 231 820 457 820 l 260 862 q 372 1005 359 882 l 288 1107 z "},"":{"ha":878,"x_min":144,"x_max":895,"o":"m 389 63 l 414 189 l 540 189 l 515 63 l 389 63 m 144 364 l 159 439 l 895 439 l 880 364 l 144 364 m 499 615 l 524 741 l 650 741 l 625 615 l 499 615 z "},"":{"ha":878,"x_min":144,"x_max":881,"o":"m 439 0 l 144 368 l 586 736 l 881 368 l 439 0 m 461 108 l 780 368 l 564 627 l 252 368 l 461 108 z "},"":{"ha":963,"x_min":-357,"x_max":939,"o":"m 591 765 q 646 696 632 747 q 652 572 661 645 q 615 410 644 500 q 540 224 586 321 q 434 31 494 128 q 303 -156 374 -67 q 153 -320 233 -245 q -10 -446 74 -395 q -180 -519 -94 -497 q -351 -523 -266 -541 q -356 -512 -357 -522 q -349 -490 -355 -503 q -332 -463 -342 -477 q -311 -438 -322 -449 q -287 -421 -299 -427 q -263 -418 -274 -415 q -143 -421 -203 -431 q -25 -386 -83 -412 q 87 -319 33 -360 q 193 -229 142 -279 q 287 -121 243 -178 q 369 -3 332 -63 q 334 42 353 7 q 296 125 315 76 q 256 232 277 174 q 216 351 236 291 q 177 468 196 412 q 139 570 157 525 q 106 643 121 614 q 77 673 90 671 q 36 669 56 675 q 1 656 16 664 q -35 635 -18 648 q 50 703 8 675 q 87 725 68 715 q 125 743 106 736 q 162 751 144 749 q 195 747 180 753 q 222 714 208 741 q 252 645 237 686 q 283 551 267 603 q 316 444 300 499 q 348 335 332 389 q 379 235 364 281 q 409 156 395 190 q 436 109 423 123 q 492 242 469 176 q 528 369 515 308 q 541 484 541 430 q 529 577 542 537 q 489 643 516 618 q 418 673 462 668 q 493 724 458 702 q 523 741 508 732 q 551 755 538 749 q 575 764 564 762 q 591 765 585 767 m 509 870 l 427 973 l 533 1054 l 614 945 l 509 870 m 834 870 l 751 975 l 858 1054 l 939 946 l 834 870 z "},"":{"ha":1137,"x_min":-13,"x_max":1198,"o":"m 1126 1014 q 1190 920 1181 986 q 1172 762 1198 854 q 1087 560 1145 670 q 953 335 1030 450 q 785 107 876 220 q 600 -103 694 -6 q 414 -274 506 -200 q 242 -387 322 -349 q 102 -420 163 -425 q 8 -353 41 -415 q -11 -275 -13 -313 q 9 -204 -9 -237 q 56 -144 26 -172 q 121 -97 86 -117 q 192 -66 156 -77 q 256 -53 227 -54 q 199 -90 222 -66 q 164 -140 176 -113 q 154 -194 153 -167 q 168 -241 155 -220 q 209 -271 182 -261 q 275 -275 235 -281 q 370 -242 315 -269 q 492 -163 424 -216 q 578 -77 531 -129 q 675 39 625 -25 q 653 126 671 80 q 610 224 635 173 q 558 330 585 275 q 508 443 530 385 q 473 561 486 500 q 465 683 460 621 q 496 806 470 744 q 577 929 522 868 q 536 931 561 929 q 483 936 512 933 q 422 939 454 938 q 359 938 391 940 q 297 929 327 936 q 243 909 267 922 q 211 876 225 899 q 188 823 196 852 q 181 760 180 793 q 194 697 182 726 q 230 645 205 667 q 296 615 255 623 q 295 605 302 614 q 274 586 288 597 q 239 565 259 576 q 199 546 219 553 q 163 537 180 538 q 139 543 147 535 q 90 618 104 581 q 76 693 75 656 q 90 765 76 730 q 125 831 103 800 q 177 891 148 863 q 237 942 205 919 q 322 994 279 975 q 405 1022 364 1013 q 486 1031 446 1031 q 562 1028 525 1032 q 632 1018 599 1025 q 695 1007 665 1012 q 615 897 641 952 q 582 786 589 841 q 585 676 575 731 q 613 567 595 621 q 654 460 631 513 q 698 356 677 408 q 733 255 719 304 q 747 157 747 205 l 747 131 q 838 267 793 196 q 922 408 883 337 q 992 547 961 479 q 1041 675 1023 615 q 1064 785 1060 736 q 1053 867 1067 834 q 1002 913 1038 900 q 905 916 966 926 q 1003 972 958 949 q 1041 992 1022 983 q 1078 1007 1061 1001 q 1107 1016 1095 1013 q 1126 1014 1120 1018 m 673 1088 l 591 1191 l 697 1272 l 778 1162 l 673 1088 m 998 1088 l 916 1193 l 1022 1272 l 1103 1164 l 998 1088 z "},"":{"ha":50,"x_min":-402,"x_max":652,"o":"m -402 -25 l 559 1029 l 652 1029 l -310 -25 l -402 -25 z "},"":{"ha":765,"x_min":104,"x_max":833,"o":"m 197 437 q 350 657 237 561 q 635 753 463 753 q 833 725 728 753 l 796 587 l 749 587 q 754 627 754 616 q 713 684 754 661 q 611 707 671 707 q 329 437 419 707 l 646 437 l 637 396 l 317 396 q 313 380 315 393 l 306 345 l 306 339 l 627 339 l 618 297 l 300 297 l 300 272 q 348 109 300 168 q 482 50 397 50 q 721 127 600 50 l 711 68 q 432 -17 569 -17 q 235 56 305 -17 q 164 258 164 128 q 165 297 164 282 l 104 297 l 113 339 l 171 339 l 171 343 q 183 396 178 378 l 111 396 l 119 437 l 197 437 z "},"":{"ha":527,"x_min":158,"x_max":553,"o":"m 353 67 q 158 368 286 223 q 412 616 337 477 l 553 669 q 296 415 505 555 q 470 130 398 292 l 353 67 z "},"":{"ha":527,"x_min":120,"x_max":515,"o":"m 319 669 q 515 368 387 513 q 260 121 336 259 l 120 67 q 376 321 168 181 q 203 606 276 442 l 319 669 z "},"":{"ha":959,"x_min":-289,"x_max":1042,"o":"m -289 -443 l -192 -342 q -59 -368 -127 -368 q 91 -302 38 -368 q 169 -85 143 -237 l 299 686 l 147 686 l 195 736 l 309 736 q 489 1065 352 942 q 813 1188 627 1188 q 922 1177 872 1188 l 825 1074 q 696 1113 763 1113 q 545 1053 595 1113 q 464 833 496 994 l 444 736 l 699 736 l 933 753 l 882 536 l 815 201 q 800 99 800 123 q 840 56 800 56 q 1042 205 907 56 l 1029 142 q 763 -17 882 -17 q 665 85 665 -17 q 681 201 665 120 l 743 510 q 756 614 756 580 q 626 686 756 686 l 435 686 l 336 103 q 157 -307 291 -163 q -178 -452 24 -452 q -289 -443 -231 -452 m 794 871 l 839 963 l 1031 1088 l 972 963 l 794 871 z "},"":{"ha":971,"x_min":-289,"x_max":1415,"o":"m -289 -440 l -191 -342 q -58 -368 -125 -368 q 92 -302 39 -368 q 170 -85 144 -237 l 300 686 l 148 686 l 196 736 l 311 736 q 494 1032 356 918 q 808 1146 632 1146 q 1014 1100 899 1146 q 1293 1188 1143 1188 q 1415 1177 1353 1188 l 1324 1083 q 1187 1121 1245 1121 q 1023 1037 1082 1121 q 922 745 964 953 l 814 201 q 798 99 798 123 q 838 56 798 56 q 1041 205 906 56 l 1028 142 q 762 -17 880 -17 q 664 85 664 -17 q 680 201 664 120 l 769 648 q 920 1015 821 905 q 727 1079 823 1079 q 547 1017 606 1079 q 455 792 488 955 l 444 736 l 697 736 l 643 679 q 469 686 553 686 l 434 686 l 336 106 q 158 -306 292 -159 q -175 -452 24 -452 q -289 -440 -229 -452 z "},"":{"ha":878,"x_min":152,"x_max":886,"o":"m 329 -218 l 453 174 l 152 145 l 199 245 l 461 216 l 534 581 l 233 552 l 280 652 l 542 622 l 573 1004 l 713 1029 l 584 622 l 886 652 l 838 552 l 576 581 l 503 216 l 805 245 l 757 145 l 494 174 l 469 -201 l 329 -218 z "},"":{"ha":878,"x_min":434,"x_max":604,"o":"m 434 330 l 463 473 l 604 473 l 576 330 l 434 330 z "},"":{"ha":393,"x_min":34,"x_max":332,"o":"m 98 120 l 233 218 l 332 85 q 247 -126 325 -52 q 34 -201 170 -201 l 72 -159 q 199 -17 178 -149 l 98 120 z "},"":{"ha":644,"x_min":28,"x_max":567,"o":"m 85 86 l 193 168 l 275 60 q 28 -201 254 -201 l 57 -159 q 169 -16 156 -139 l 85 86 m 378 86 l 486 168 l 567 60 q 321 -201 548 -201 l 350 -159 q 462 -16 448 -139 l 378 86 z "},"":{"ha":1480,"x_min":123,"x_max":1561,"o":"m 363 502 q 240 551 286 502 q 193 680 193 600 q 270 909 193 814 q 455 1004 347 1004 q 582 956 534 1004 q 629 825 629 907 q 551 596 629 690 q 363 502 474 502 m 293 674 q 375 544 293 544 q 487 632 437 544 q 537 830 537 720 q 455 963 537 963 q 342 874 392 963 q 293 674 293 786 m 800 0 q 677 49 724 0 q 631 178 631 98 q 707 407 631 312 q 892 502 784 502 q 1019 454 972 502 q 1066 323 1066 406 q 989 94 1066 188 q 800 0 911 0 m 730 171 q 812 41 730 41 q 925 130 875 41 q 975 328 975 218 q 892 461 975 461 q 780 373 829 461 q 730 171 730 284 m 123 -25 l 1047 1029 l 1136 1029 l 212 -25 l 123 -25 m 1296 0 q 1173 49 1219 0 q 1126 178 1126 98 q 1202 407 1126 312 q 1388 502 1279 502 q 1514 454 1467 502 q 1561 323 1561 406 q 1484 94 1561 188 q 1296 0 1407 0 m 1225 172 q 1308 41 1225 41 q 1419 130 1369 41 q 1470 328 1470 218 q 1388 461 1470 461 q 1275 373 1324 461 q 1225 172 1225 284 z "},"":{"ha":1354,"x_min":-278,"x_max":1261,"o":"m 1008 951 q 1001 940 1002 945 q 996 930 1000 935 q 974 879 984 910 q 954 809 964 848 q 936 727 945 770 q 920 639 928 683 q 905 553 912 595 q 890 475 897 511 l 969 475 q 930 456 949 465 q 884 441 910 447 q 881 425 884 433 q 877 411 877 416 q 857 340 870 376 q 826 270 843 304 q 789 204 808 235 q 753 150 770 174 q 722 111 736 126 q 703 93 709 96 q 738 92 719 93 q 781 91 757 91 q 834 92 804 91 q 903 98 864 94 q 888 76 899 88 q 863 51 878 63 q 830 29 848 39 q 793 14 812 19 q 738 3 769 7 q 680 -2 706 -1 q 636 0 653 -3 q 625 7 620 2 q 674 77 651 33 q 717 176 697 121 q 754 292 737 230 q 787 417 772 354 q 689 409 743 412 q 572 406 635 406 q 489 271 531 338 q 400 141 446 204 q 304 22 355 79 q 197 -81 254 -35 q 75 -161 140 -127 q -64 -214 10 -195 q -156 -220 -115 -225 q -224 -197 -197 -214 q -265 -153 -252 -180 q -272 -97 -278 -127 q -240 -37 -266 -67 q -163 20 -214 -6 q -161 16 -158 23 q -168 -5 -164 8 q -174 -35 -172 -18 q -170 -67 -176 -52 q -143 -95 -163 -83 q -85 -111 -124 -107 q 42 -101 -18 -117 q 156 -50 102 -84 q 261 35 211 -15 q 357 144 311 84 q 447 270 404 203 q 533 406 491 337 q 406 398 460 406 q 314 378 352 390 q 251 350 275 366 q 212 318 227 334 q 191 287 197 302 q 182 261 184 272 q 198 320 182 286 q 244 387 214 354 q 319 443 275 419 q 422 469 364 467 l 579 469 q 656 593 618 532 q 732 706 694 653 q 810 803 771 759 q 890 878 850 846 q 807 902 856 888 q 701 931 758 917 q 586 955 645 945 q 475 968 528 966 q 379 960 422 970 q 312 924 336 950 q 233 802 254 859 q 223 700 212 745 q 274 626 234 656 q 377 587 314 597 q 378 579 384 585 q 359 565 373 573 q 326 548 346 557 q 285 531 307 539 q 241 519 263 524 q 201 514 219 514 q 168 533 182 515 q 144 579 153 551 q 134 646 135 608 q 143 723 133 683 q 175 805 153 764 q 235 883 197 846 q 327 949 273 920 q 456 996 381 979 q 575 1014 515 1010 q 689 1014 634 1017 q 794 1002 745 1010 q 886 984 844 994 q 958 965 927 974 q 1008 951 989 956 m 799 475 q 823 597 812 538 q 843 704 833 655 q 861 787 853 752 q 877 840 869 823 q 808 765 841 806 q 742 677 774 724 q 678 579 710 631 q 612 475 646 528 l 799 475 m 1261 1137 l 1178 1088 q 1093 1236 1127 1144 q 981 1116 1055 1190 q 962 1095 978 1112 l 866 1088 q 1076 1272 1012 1194 l 1168 1331 q 1261 1137 1198 1225 z "},"":{"ha":1021,"x_min":124,"x_max":1136,"o":"m 720 92 q 738 82 722 90 q 777 68 753 74 q 831 62 801 62 q 895 79 862 63 q 960 132 927 96 q 1023 235 993 169 q 950 102 988 154 q 872 20 912 50 q 792 -20 833 -10 q 711 -28 751 -31 q 632 -13 671 -26 q 559 15 594 -1 q 494 46 524 31 q 439 72 463 62 q 334 92 382 92 q 247 81 286 93 q 177 50 208 70 q 124 7 146 29 q 181 78 151 46 q 244 131 211 109 q 316 164 278 153 q 399 176 355 176 q 448 284 429 230 q 478 390 467 338 q 497 494 490 443 q 512 594 504 545 q 532 690 520 644 q 563 779 543 736 q 614 861 583 822 q 694 935 646 900 q 608 942 652 939 q 522 945 564 945 q 446 945 481 946 q 386 941 410 944 q 331 918 356 935 q 287 877 305 901 q 261 826 269 854 q 258 770 252 798 q 284 714 263 741 q 347 667 306 688 q 345 653 353 662 q 320 636 337 645 q 282 618 304 627 q 239 606 260 610 q 201 603 218 602 q 177 614 184 604 q 150 690 153 649 q 168 776 147 732 q 231 865 188 821 q 340 948 274 909 q 468 1000 402 983 q 601 1021 534 1017 q 736 1023 668 1026 q 869 1017 804 1021 q 998 1015 935 1014 q 1118 1027 1060 1015 q 1133 1021 1136 1029 q 1111 1000 1129 1013 q 1064 970 1093 986 q 1000 940 1034 954 q 929 919 966 927 q 862 915 893 911 q 806 924 838 920 q 739 935 773 929 q 697 859 714 900 q 668 772 680 818 q 647 679 656 727 q 628 581 637 630 q 681 579 651 580 q 744 579 711 578 q 813 581 778 579 q 881 584 848 582 q 943 588 914 585 q 994 594 972 591 q 975 580 989 589 q 943 559 962 570 q 903 535 925 547 q 860 513 882 523 q 819 497 838 503 q 784 490 799 490 q 750 488 770 488 q 706 488 730 488 q 658 489 683 488 q 608 490 633 490 q 587 404 598 446 q 558 322 575 361 q 519 245 542 282 q 465 176 496 209 q 582 149 518 172 q 720 92 645 126 m 1045 1137 l 962 1088 q 878 1236 911 1144 q 766 1116 840 1190 q 747 1095 762 1112 l 650 1088 q 860 1272 796 1194 l 952 1331 q 1045 1137 983 1225 z "},"":{"ha":1354,"x_min":-278,"x_max":1307,"o":"m 1008 951 q 1001 940 1002 945 q 996 930 1000 935 q 974 879 984 910 q 954 809 964 848 q 936 727 945 770 q 920 639 928 683 q 905 553 912 595 q 890 475 897 511 l 969 475 q 930 456 949 465 q 884 441 910 447 q 881 425 884 433 q 877 411 877 416 q 857 340 870 376 q 826 270 843 304 q 789 204 808 235 q 753 150 770 174 q 722 111 736 126 q 703 93 709 96 q 738 92 719 93 q 781 91 757 91 q 834 92 804 91 q 903 98 864 94 q 888 76 899 88 q 863 51 878 63 q 830 29 848 39 q 793 14 812 19 q 738 3 769 7 q 680 -2 706 -1 q 636 0 653 -3 q 625 7 620 2 q 674 77 651 33 q 717 176 697 121 q 754 292 737 230 q 787 417 772 354 q 689 409 743 412 q 572 406 635 406 q 489 271 531 338 q 400 141 446 204 q 304 22 355 79 q 197 -81 254 -35 q 75 -161 140 -127 q -64 -214 10 -195 q -156 -220 -115 -225 q -224 -197 -197 -214 q -265 -153 -252 -180 q -272 -97 -278 -127 q -240 -37 -266 -67 q -163 20 -214 -6 q -161 16 -158 23 q -168 -5 -164 8 q -174 -35 -172 -18 q -170 -67 -176 -52 q -143 -95 -163 -83 q -85 -111 -124 -107 q 42 -101 -18 -117 q 156 -50 102 -84 q 261 35 211 -15 q 357 144 311 84 q 447 270 404 203 q 533 406 491 337 q 406 398 460 406 q 314 378 352 390 q 251 350 275 366 q 212 318 227 334 q 191 287 197 302 q 182 261 184 272 q 198 320 182 286 q 244 387 214 354 q 319 443 275 419 q 422 469 364 467 l 579 469 q 656 593 618 532 q 732 706 694 653 q 810 803 771 759 q 890 878 850 846 q 807 902 856 888 q 701 931 758 917 q 586 955 645 945 q 475 968 528 966 q 379 960 422 970 q 312 924 336 950 q 233 802 254 859 q 223 700 212 745 q 274 626 234 656 q 377 587 314 597 q 378 579 384 585 q 359 565 373 573 q 326 548 346 557 q 285 531 307 539 q 241 519 263 524 q 201 514 219 514 q 168 533 182 515 q 144 579 153 551 q 134 646 135 608 q 143 723 133 683 q 175 805 153 764 q 235 883 197 846 q 327 949 273 920 q 456 996 381 979 q 575 1014 515 1010 q 689 1014 634 1017 q 794 1002 745 1010 q 886 984 844 994 q 958 965 927 974 q 1008 951 989 956 m 799 475 q 823 597 812 538 q 843 704 833 655 q 861 787 853 752 q 877 840 869 823 q 808 765 841 806 q 742 677 774 724 q 678 579 710 631 q 612 475 646 528 l 799 475 m 1021 1088 l 1042 1149 q 1307 1331 1133 1225 l 1263 1222 q 1021 1088 1093 1137 z "},"":{"ha":1021,"x_min":124,"x_max":1136,"o":"m 720 92 q 738 82 722 90 q 777 68 753 74 q 831 62 801 62 q 895 79 862 63 q 960 132 927 96 q 1023 235 993 169 q 950 102 988 154 q 872 20 912 50 q 792 -20 833 -10 q 711 -28 751 -31 q 632 -13 671 -26 q 559 15 594 -1 q 494 46 524 31 q 439 72 463 62 q 334 92 382 92 q 247 81 286 93 q 177 50 208 70 q 124 7 146 29 q 181 78 151 46 q 244 131 211 109 q 316 164 278 153 q 399 176 355 176 q 448 284 429 230 q 478 390 467 338 q 497 494 490 443 q 512 594 504 545 q 532 690 520 644 q 563 779 543 736 q 614 861 583 822 q 694 935 646 900 q 608 942 652 939 q 522 945 564 945 q 446 945 481 946 q 386 941 410 944 q 331 918 356 935 q 287 877 305 901 q 261 826 269 854 q 258 770 252 798 q 284 714 263 741 q 347 667 306 688 q 345 653 353 662 q 320 636 337 645 q 282 618 304 627 q 239 606 260 610 q 201 603 218 602 q 177 614 184 604 q 150 690 153 649 q 168 776 147 732 q 231 865 188 821 q 340 948 274 909 q 468 1000 402 983 q 601 1021 534 1017 q 736 1023 668 1026 q 869 1017 804 1021 q 998 1015 935 1014 q 1118 1027 1060 1015 q 1133 1021 1136 1029 q 1111 1000 1129 1013 q 1064 970 1093 986 q 1000 940 1034 954 q 929 919 966 927 q 862 915 893 911 q 806 924 838 920 q 739 935 773 929 q 697 859 714 900 q 668 772 680 818 q 647 679 656 727 q 628 581 637 630 q 681 579 651 580 q 744 579 711 578 q 813 581 778 579 q 881 584 848 582 q 943 588 914 585 q 994 594 972 591 q 975 580 989 589 q 943 559 962 570 q 903 535 925 547 q 860 513 882 523 q 819 497 838 503 q 784 490 799 490 q 750 488 770 488 q 706 488 730 488 q 658 489 683 488 q 608 490 633 490 q 587 404 598 446 q 558 322 575 361 q 519 245 542 282 q 465 176 496 209 q 582 149 518 172 q 720 92 645 126 m 674 1088 l 591 1191 l 698 1272 l 779 1162 l 674 1088 m 999 1088 l 916 1193 l 1023 1272 l 1103 1164 l 999 1088 z "},"":{"ha":1021,"x_min":124,"x_max":1136,"o":"m 720 92 q 738 82 722 90 q 777 68 753 74 q 831 62 801 62 q 895 79 862 63 q 960 132 927 96 q 1023 235 993 169 q 950 102 988 154 q 872 20 912 50 q 792 -20 833 -10 q 711 -28 751 -31 q 632 -13 671 -26 q 559 15 594 -1 q 494 46 524 31 q 439 72 463 62 q 334 92 382 92 q 247 81 286 93 q 177 50 208 70 q 124 7 146 29 q 181 78 151 46 q 244 131 211 109 q 316 164 278 153 q 399 176 355 176 q 448 284 429 230 q 478 390 467 338 q 497 494 490 443 q 512 594 504 545 q 532 690 520 644 q 563 779 543 736 q 614 861 583 822 q 694 935 646 900 q 608 942 652 939 q 522 945 564 945 q 446 945 481 946 q 386 941 410 944 q 331 918 356 935 q 287 877 305 901 q 261 826 269 854 q 258 770 252 798 q 284 714 263 741 q 347 667 306 688 q 345 653 353 662 q 320 636 337 645 q 282 618 304 627 q 239 606 260 610 q 201 603 218 602 q 177 614 184 604 q 150 690 153 649 q 168 776 147 732 q 231 865 188 821 q 340 948 274 909 q 468 1000 402 983 q 601 1021 534 1017 q 736 1023 668 1026 q 869 1017 804 1021 q 998 1015 935 1014 q 1118 1027 1060 1015 q 1133 1021 1136 1029 q 1111 1000 1129 1013 q 1064 970 1093 986 q 1000 940 1034 954 q 929 919 966 927 q 862 915 893 911 q 806 924 838 920 q 739 935 773 929 q 697 859 714 900 q 668 772 680 818 q 647 679 656 727 q 628 581 637 630 q 681 579 651 580 q 744 579 711 578 q 813 581 778 579 q 881 584 848 582 q 943 588 914 585 q 994 594 972 591 q 975 580 989 589 q 943 559 962 570 q 903 535 925 547 q 860 513 882 523 q 819 497 838 503 q 784 490 799 490 q 750 488 770 488 q 706 488 730 488 q 658 489 683 488 q 608 490 633 490 q 587 404 598 446 q 558 322 575 361 q 519 245 542 282 q 465 176 496 209 q 582 149 518 172 q 720 92 645 126 m 961 1141 l 876 1088 q 734 1268 827 1186 l 815 1331 q 961 1141 899 1246 z "},"":{"ha":627,"x_min":189,"x_max":1008,"o":"m 733 505 q 716 422 728 465 q 688 339 705 380 q 652 260 672 298 q 613 192 633 222 q 573 143 593 163 q 537 119 553 123 q 552 115 538 117 q 586 111 566 113 q 631 108 606 109 q 680 108 656 107 q 725 111 704 109 q 760 119 746 113 q 714 80 737 101 q 665 42 692 60 q 608 12 639 24 q 537 0 576 0 l 399 0 q 469 82 435 33 q 529 188 498 124 q 583 341 561 252 q 605 449 594 393 q 626 557 616 504 q 646 660 636 610 q 664 749 655 709 q 680 819 673 789 q 694 864 688 849 q 713 892 704 878 q 733 916 723 907 l 727 916 q 644 930 680 924 q 574 941 608 937 q 507 944 541 945 q 432 937 473 943 q 374 912 401 930 q 330 870 348 895 q 304 818 312 846 q 303 760 297 789 q 331 703 309 730 q 393 654 353 675 q 394 641 401 650 q 370 624 387 633 q 330 606 353 614 q 286 592 308 597 q 247 587 264 587 q 222 595 229 587 q 192 677 196 633 q 209 768 189 721 q 273 861 229 814 q 386 949 317 907 q 503 1002 450 985 q 602 1022 555 1018 q 692 1022 649 1026 q 782 1015 736 1019 q 878 1010 827 1010 q 989 1021 928 1010 q 1002 1017 1008 1026 q 972 992 996 1008 q 913 959 949 977 q 838 929 878 941 q 823 877 831 908 q 804 809 814 846 q 783 732 793 772 q 763 651 772 691 q 746 573 753 611 q 733 505 738 536 m 481 1088 l 503 1149 q 767 1331 593 1225 l 723 1222 q 481 1088 553 1137 z "},"":{"ha":627,"x_min":189,"x_max":1008,"o":"m 733 505 q 716 422 728 465 q 688 339 705 380 q 652 260 672 298 q 613 192 633 222 q 573 143 593 163 q 537 119 553 123 q 552 115 538 117 q 586 111 566 113 q 631 108 606 109 q 680 108 656 107 q 725 111 704 109 q 760 119 746 113 q 714 80 737 101 q 665 42 692 60 q 608 12 639 24 q 537 0 576 0 l 399 0 q 469 82 435 33 q 529 188 498 124 q 583 341 561 252 q 605 449 594 393 q 626 557 616 504 q 646 660 636 610 q 664 749 655 709 q 680 819 673 789 q 694 864 688 849 q 713 892 704 878 q 733 916 723 907 l 727 916 q 644 930 680 924 q 574 941 608 937 q 507 944 541 945 q 432 937 473 943 q 374 912 401 930 q 330 870 348 895 q 304 818 312 846 q 303 760 297 789 q 331 703 309 730 q 393 654 353 675 q 394 641 401 650 q 370 624 387 633 q 330 606 353 614 q 286 592 308 597 q 247 587 264 587 q 222 595 229 587 q 192 677 196 633 q 209 768 189 721 q 273 861 229 814 q 386 949 317 907 q 503 1002 450 985 q 602 1022 555 1018 q 692 1022 649 1026 q 782 1015 736 1019 q 878 1010 827 1010 q 989 1021 928 1010 q 1002 1017 1008 1026 q 972 992 996 1008 q 913 959 949 977 q 838 929 878 941 q 823 877 831 908 q 804 809 814 846 q 783 732 793 772 q 763 651 772 691 q 746 573 753 611 q 733 505 738 536 m 763 1137 l 680 1088 q 595 1236 629 1144 q 484 1116 557 1190 q 465 1095 480 1112 l 368 1088 q 578 1272 514 1194 l 670 1331 q 763 1137 701 1225 z "},"":{"ha":627,"x_min":189,"x_max":1008,"o":"m 733 505 q 716 422 728 465 q 688 339 705 380 q 652 260 672 298 q 613 192 633 222 q 573 143 593 163 q 537 119 553 123 q 552 115 538 117 q 586 111 566 113 q 631 108 606 109 q 680 108 656 107 q 725 111 704 109 q 760 119 746 113 q 714 80 737 101 q 665 42 692 60 q 608 12 639 24 q 537 0 576 0 l 399 0 q 469 82 435 33 q 529 188 498 124 q 583 341 561 252 q 605 449 594 393 q 626 557 616 504 q 646 660 636 610 q 664 749 655 709 q 680 819 673 789 q 694 864 688 849 q 713 892 704 878 q 733 916 723 907 l 727 916 q 644 930 680 924 q 574 941 608 937 q 507 944 541 945 q 432 937 473 943 q 374 912 401 930 q 330 870 348 895 q 304 818 312 846 q 303 760 297 789 q 331 703 309 730 q 393 654 353 675 q 394 641 401 650 q 370 624 387 633 q 330 606 353 614 q 286 592 308 597 q 247 587 264 587 q 222 595 229 587 q 192 677 196 633 q 209 768 189 721 q 273 861 229 814 q 386 949 317 907 q 503 1002 450 985 q 602 1022 555 1018 q 692 1022 649 1026 q 782 1015 736 1019 q 878 1010 827 1010 q 989 1021 928 1010 q 1002 1017 1008 1026 q 972 992 996 1008 q 913 959 949 977 q 838 929 878 941 q 823 877 831 908 q 804 809 814 846 q 783 732 793 772 q 763 651 772 691 q 746 573 753 611 q 733 505 738 536 m 401 1088 l 318 1191 l 425 1272 l 505 1162 l 401 1088 m 726 1088 l 643 1193 l 749 1272 l 830 1164 l 726 1088 z "},"":{"ha":627,"x_min":189,"x_max":1008,"o":"m 733 505 q 716 422 728 465 q 688 339 705 380 q 652 260 672 298 q 613 192 633 222 q 573 143 593 163 q 537 119 553 123 q 552 115 538 117 q 586 111 566 113 q 631 108 606 109 q 680 108 656 107 q 725 111 704 109 q 760 119 746 113 q 714 80 737 101 q 665 42 692 60 q 608 12 639 24 q 537 0 576 0 l 399 0 q 469 82 435 33 q 529 188 498 124 q 583 341 561 252 q 605 449 594 393 q 626 557 616 504 q 646 660 636 610 q 664 749 655 709 q 680 819 673 789 q 694 864 688 849 q 713 892 704 878 q 733 916 723 907 l 727 916 q 644 930 680 924 q 574 941 608 937 q 507 944 541 945 q 432 937 473 943 q 374 912 401 930 q 330 870 348 895 q 304 818 312 846 q 303 760 297 789 q 331 703 309 730 q 393 654 353 675 q 394 641 401 650 q 370 624 387 633 q 330 606 353 614 q 286 592 308 597 q 247 587 264 587 q 222 595 229 587 q 192 677 196 633 q 209 768 189 721 q 273 861 229 814 q 386 949 317 907 q 503 1002 450 985 q 602 1022 555 1018 q 692 1022 649 1026 q 782 1015 736 1019 q 878 1010 827 1010 q 989 1021 928 1010 q 1002 1017 1008 1026 q 972 992 996 1008 q 913 959 949 977 q 838 929 878 941 q 823 877 831 908 q 804 809 814 846 q 783 732 793 772 q 763 651 772 691 q 746 573 753 611 q 733 505 738 536 m 712 1141 l 627 1088 q 486 1268 578 1186 l 566 1331 q 712 1141 650 1246 z "},"":{"ha":1088,"x_min":203,"x_max":1016,"o":"m 456 812 q 621 961 541 907 q 768 1030 701 1014 q 888 1030 836 1047 q 971 967 940 1013 q 1009 850 1002 922 q 992 688 1016 779 q 911 487 968 596 q 758 258 854 378 q 572 68 657 132 q 419 -12 486 3 q 303 1 351 -26 q 230 88 255 29 q 203 231 204 147 q 229 411 203 315 q 312 611 256 507 q 456 812 368 714 m 751 297 q 849 464 815 379 q 891 628 883 549 q 885 772 899 706 q 839 883 871 839 q 761 945 808 928 q 658 942 714 962 q 539 860 602 922 q 410 683 475 798 q 354 548 374 619 q 329 410 334 477 q 333 282 323 342 q 366 179 342 222 q 426 114 389 136 q 511 103 462 93 q 620 159 559 113 q 751 297 680 205 m 686 1088 l 707 1149 q 972 1331 798 1225 l 928 1222 q 686 1088 758 1137 z "},"":{"ha":1088,"x_min":203,"x_max":1016,"o":"m 456 812 q 621 961 541 907 q 768 1030 701 1014 q 888 1030 836 1047 q 971 967 940 1013 q 1009 850 1002 922 q 992 688 1016 779 q 911 487 968 596 q 758 258 854 378 q 572 68 657 132 q 419 -12 486 3 q 303 1 351 -26 q 230 88 255 29 q 203 231 204 147 q 229 411 203 315 q 312 611 256 507 q 456 812 368 714 m 751 297 q 849 464 815 379 q 891 628 883 549 q 885 772 899 706 q 839 883 871 839 q 761 945 808 928 q 658 942 714 962 q 539 860 602 922 q 410 683 475 798 q 354 548 374 619 q 329 410 334 477 q 333 282 323 342 q 366 179 342 222 q 426 114 389 136 q 511 103 462 93 q 620 159 559 113 q 751 297 680 205 m 968 1137 l 885 1088 q 800 1236 834 1144 q 688 1116 762 1190 q 669 1095 685 1112 l 573 1088 q 783 1272 719 1194 l 875 1331 q 968 1137 905 1225 z "},"":{"ha":1088,"x_min":203,"x_max":1016,"o":"m 456 812 q 621 961 541 907 q 768 1030 701 1014 q 888 1030 836 1047 q 971 967 940 1013 q 1009 850 1002 922 q 992 688 1016 779 q 911 487 968 596 q 758 258 854 378 q 572 68 657 132 q 419 -12 486 3 q 303 1 351 -26 q 230 88 255 29 q 203 231 204 147 q 229 411 203 315 q 312 611 256 507 q 456 812 368 714 m 751 297 q 849 464 815 379 q 891 628 883 549 q 885 772 899 706 q 839 883 871 839 q 761 945 808 928 q 658 942 714 962 q 539 860 602 922 q 410 683 475 798 q 354 548 374 619 q 329 410 334 477 q 333 282 323 342 q 366 179 342 222 q 426 114 389 136 q 511 103 462 93 q 620 159 559 113 q 751 297 680 205 m 926 1141 l 840 1088 q 699 1268 791 1186 l 780 1331 q 926 1141 864 1246 z "},"":{"ha":1356,"x_min":79,"x_max":1208,"o":"m 1084 851 q 1074 801 1081 838 q 1057 713 1067 764 q 1034 600 1046 662 q 1006 475 1021 538 q 974 350 991 412 q 940 238 958 289 q 903 152 922 188 q 864 104 884 117 q 894 97 871 99 q 948 94 917 94 q 1017 97 980 94 q 1091 104 1055 99 q 1062 72 1084 90 q 1011 38 1040 54 q 954 11 983 22 q 903 0 925 0 q 852 -2 878 -3 q 804 1 825 -1 q 753 7 778 4 q 791 103 773 48 q 827 222 810 159 q 860 353 844 286 q 890 487 876 421 q 791 281 844 374 q 684 125 738 189 q 579 27 630 60 q 488 -3 528 -7 q 421 43 448 0 q 390 176 395 86 q 396 296 387 231 q 423 431 405 362 q 466 570 441 500 q 522 704 492 640 q 584 822 551 768 q 650 916 617 877 q 564 935 604 928 q 486 942 524 941 q 411 940 448 943 q 332 928 373 936 q 277 905 300 922 q 238 867 253 889 q 219 818 224 844 q 223 763 215 791 q 253 710 231 736 q 312 663 275 684 q 309 648 318 658 q 280 626 299 637 q 236 605 261 615 q 188 588 212 594 q 145 582 164 582 q 117 591 125 581 q 85 670 90 625 q 98 761 79 714 q 162 853 117 808 q 279 935 206 899 q 380 980 336 963 q 462 1007 425 998 q 532 1018 499 1016 q 600 1017 565 1020 q 673 1008 634 1015 q 760 994 711 1002 q 747 984 755 989 q 734 974 739 979 q 657 837 694 913 q 590 677 620 760 q 539 511 560 595 q 511 355 519 428 q 509 225 503 282 q 539 137 515 168 q 589 116 560 111 q 649 150 617 122 q 716 222 682 178 q 784 320 751 267 q 848 428 817 373 q 903 532 878 484 q 937 672 920 606 q 972 791 954 739 q 1008 880 990 844 q 1046 928 1026 916 q 1003 938 1029 933 q 947 943 977 942 q 886 942 918 945 q 825 928 854 939 q 867 978 842 959 q 923 1008 893 998 q 986 1022 954 1019 q 1051 1025 1019 1026 q 1208 1000 1126 1023 q 1172 975 1189 985 q 1139 950 1154 964 q 1110 912 1124 935 q 1084 851 1097 890 m 869 1088 l 891 1149 q 1156 1331 982 1225 l 1112 1222 q 869 1088 942 1137 z "},"":{"ha":1356,"x_min":79,"x_max":1208,"o":"m 1084 851 q 1074 801 1081 838 q 1057 713 1067 764 q 1034 600 1046 662 q 1006 475 1021 538 q 974 350 991 412 q 940 238 958 289 q 903 152 922 188 q 864 104 884 117 q 894 97 871 99 q 948 94 917 94 q 1017 97 980 94 q 1091 104 1055 99 q 1062 72 1084 90 q 1011 38 1040 54 q 954 11 983 22 q 903 0 925 0 q 852 -2 878 -3 q 804 1 825 -1 q 753 7 778 4 q 791 103 773 48 q 827 222 810 159 q 860 353 844 286 q 890 487 876 421 q 791 281 844 374 q 684 125 738 189 q 579 27 630 60 q 488 -3 528 -7 q 421 43 448 0 q 390 176 395 86 q 396 296 387 231 q 423 431 405 362 q 466 570 441 500 q 522 704 492 640 q 584 822 551 768 q 650 916 617 877 q 564 935 604 928 q 486 942 524 941 q 411 940 448 943 q 332 928 373 936 q 277 905 300 922 q 238 867 253 889 q 219 818 224 844 q 223 763 215 791 q 253 710 231 736 q 312 663 275 684 q 309 648 318 658 q 280 626 299 637 q 236 605 261 615 q 188 588 212 594 q 145 582 164 582 q 117 591 125 581 q 85 670 90 625 q 98 761 79 714 q 162 853 117 808 q 279 935 206 899 q 380 980 336 963 q 462 1007 425 998 q 532 1018 499 1016 q 600 1017 565 1020 q 673 1008 634 1015 q 760 994 711 1002 q 747 984 755 989 q 734 974 739 979 q 657 837 694 913 q 590 677 620 760 q 539 511 560 595 q 511 355 519 428 q 509 225 503 282 q 539 137 515 168 q 589 116 560 111 q 649 150 617 122 q 716 222 682 178 q 784 320 751 267 q 848 428 817 373 q 903 532 878 484 q 937 672 920 606 q 972 791 954 739 q 1008 880 990 844 q 1046 928 1026 916 q 1003 938 1029 933 q 947 943 977 942 q 886 942 918 945 q 825 928 854 939 q 867 978 842 959 q 923 1008 893 998 q 986 1022 954 1019 q 1051 1025 1019 1026 q 1208 1000 1126 1023 q 1172 975 1189 985 q 1139 950 1154 964 q 1110 912 1124 935 q 1084 851 1097 890 m 1168 1137 l 1086 1088 q 1001 1236 1035 1144 q 889 1116 963 1190 q 870 1095 886 1112 l 774 1088 q 983 1272 920 1194 l 1076 1331 q 1168 1137 1106 1225 z "},"":{"ha":1356,"x_min":79,"x_max":1208,"o":"m 1084 851 q 1074 801 1081 838 q 1057 713 1067 764 q 1034 600 1046 662 q 1006 475 1021 538 q 974 350 991 412 q 940 238 958 289 q 903 152 922 188 q 864 104 884 117 q 894 97 871 99 q 948 94 917 94 q 1017 97 980 94 q 1091 104 1055 99 q 1062 72 1084 90 q 1011 38 1040 54 q 954 11 983 22 q 903 0 925 0 q 852 -2 878 -3 q 804 1 825 -1 q 753 7 778 4 q 791 103 773 48 q 827 222 810 159 q 860 353 844 286 q 890 487 876 421 q 791 281 844 374 q 684 125 738 189 q 579 27 630 60 q 488 -3 528 -7 q 421 43 448 0 q 390 176 395 86 q 396 296 387 231 q 423 431 405 362 q 466 570 441 500 q 522 704 492 640 q 584 822 551 768 q 650 916 617 877 q 564 935 604 928 q 486 942 524 941 q 411 940 448 943 q 332 928 373 936 q 277 905 300 922 q 238 867 253 889 q 219 818 224 844 q 223 763 215 791 q 253 710 231 736 q 312 663 275 684 q 309 648 318 658 q 280 626 299 637 q 236 605 261 615 q 188 588 212 594 q 145 582 164 582 q 117 591 125 581 q 85 670 90 625 q 98 761 79 714 q 162 853 117 808 q 279 935 206 899 q 380 980 336 963 q 462 1007 425 998 q 532 1018 499 1016 q 600 1017 565 1020 q 673 1008 634 1015 q 760 994 711 1002 q 747 984 755 989 q 734 974 739 979 q 657 837 694 913 q 590 677 620 760 q 539 511 560 595 q 511 355 519 428 q 509 225 503 282 q 539 137 515 168 q 589 116 560 111 q 649 150 617 122 q 716 222 682 178 q 784 320 751 267 q 848 428 817 373 q 903 532 878 484 q 937 672 920 606 q 972 791 954 739 q 1008 880 990 844 q 1046 928 1026 916 q 1003 938 1029 933 q 947 943 977 942 q 886 942 918 945 q 825 928 854 939 q 867 978 842 959 q 923 1008 893 998 q 986 1022 954 1019 q 1051 1025 1019 1026 q 1208 1000 1126 1023 q 1172 975 1189 985 q 1139 950 1154 964 q 1110 912 1124 935 q 1084 851 1097 890 m 1068 1141 l 983 1088 q 842 1268 934 1186 l 922 1331 q 1068 1141 1006 1246 z "},"":{"ha":523,"x_min":153,"x_max":601,"o":"m 601 205 l 589 142 q 322 -17 440 -17 q 224 85 224 -17 q 240 199 224 120 l 287 435 q 306 569 306 536 q 262 626 306 626 q 153 602 231 626 l 161 644 l 492 753 l 441 536 l 374 201 q 359 100 359 122 q 399 56 359 56 q 601 205 466 56 z "},"":{"ha":812,"x_min":425,"x_max":820,"o":"m 820 919 l 737 870 q 652 1019 686 926 q 541 898 614 972 q 522 877 537 895 l 425 870 q 635 1055 571 977 l 727 1113 q 820 919 758 1007 z "},"":{"ha":812,"x_min":402,"x_max":853,"o":"m 450 880 l 402 870 q 455 985 413 941 q 553 1029 496 1029 q 640 998 585 1029 l 663 985 q 739 958 713 958 q 808 1025 778 958 l 853 1038 q 707 870 829 870 q 615 897 664 870 l 584 914 q 514 939 539 939 q 450 880 474 939 z "},"":{"ha":812,"x_min":409,"x_max":847,"o":"m 409 870 l 461 954 l 847 954 l 798 870 l 409 870 z "},"":{"ha":812,"x_min":482,"x_max":842,"o":"m 486 1049 l 601 1113 q 585 1017 585 1059 q 657 918 585 918 q 767 1073 751 918 l 842 1113 q 757 934 822 998 q 594 870 692 870 q 482 998 482 870 q 486 1049 482 1018 z "},"":{"ha":812,"x_min":551,"x_max":743,"o":"m 637 870 l 551 969 l 661 1054 l 743 945 l 637 870 z "},"":{"ha":778,"x_min":495,"x_max":713,"o":"m 604 870 q 527 902 559 870 q 495 979 495 934 q 527 1056 495 1024 q 604 1088 559 1088 q 681 1056 649 1088 q 713 979 713 1024 q 681 902 713 934 q 604 870 649 870 m 604 912 q 651 931 631 912 q 671 979 671 951 q 651 1026 671 1007 q 604 1046 631 1046 q 556 1026 576 1046 q 536 979 536 1006 q 556 931 536 951 q 604 912 576 912 z "},"":{"ha":812,"x_min":223,"x_max":457,"o":"m 430 0 l 390 -60 q 457 -138 457 -81 q 404 -227 457 -186 q 286 -268 350 -268 q 223 -261 256 -268 l 275 -189 q 332 -210 307 -210 q 392 -161 392 -210 q 299 -105 392 -105 l 371 0 l 430 0 z "},"":{"ha":812,"x_min":488,"x_max":865,"o":"m 488 870 l 519 953 l 673 1113 l 625 980 l 488 870 m 680 870 l 712 953 l 865 1113 l 817 980 l 680 870 z "},"":{"ha":812,"x_min":210,"x_max":422,"o":"m 411 0 q 298 -150 298 -79 q 367 -203 298 -203 q 422 -195 391 -203 l 370 -265 q 328 -268 346 -268 q 210 -188 210 -268 q 357 0 210 -104 l 411 0 z "},"":{"ha":812,"x_min":425,"x_max":820,"o":"m 425 1064 l 508 1113 q 593 964 559 1057 q 705 1085 631 1011 q 724 1106 708 1088 l 820 1113 q 610 928 674 1006 l 518 870 q 425 1064 488 975 z "},"":{"ha":806,"x_min":203,"x_max":949,"o":"m 441 744 q 469 696 444 718 q 530 653 493 673 q 612 613 567 633 q 703 572 658 593 q 790 528 749 551 q 860 477 831 505 q 901 416 889 449 q 901 342 913 382 q 836 195 877 257 q 745 91 795 132 q 638 26 695 49 q 525 -2 582 3 q 416 3 469 -7 q 319 36 363 13 q 245 96 276 60 q 203 177 214 132 l 329 256 q 347 230 335 248 q 375 189 359 212 q 413 143 392 167 q 461 99 435 119 q 517 65 487 79 q 581 50 547 52 q 652 61 614 48 q 730 105 690 73 q 810 190 789 151 q 825 263 831 229 q 788 328 818 298 q 715 385 758 357 q 623 437 673 412 q 525 486 572 462 q 437 535 477 511 q 374 586 397 560 q 335 659 343 622 q 333 732 326 696 q 358 801 340 768 q 399 861 376 833 q 443 908 421 888 q 480 941 465 929 q 622 1024 557 1000 q 741 1045 687 1047 q 837 1019 795 1042 q 908 961 878 996 q 919 918 923 943 q 899 869 914 894 q 863 820 884 844 q 823 781 842 797 q 792 759 804 765 q 783 764 780 753 q 797 857 803 817 q 767 923 791 897 q 708 963 744 950 q 634 976 673 977 q 556 961 595 975 q 490 917 518 946 q 447 845 461 888 q 441 744 432 802 m 555 1282 l 637 1331 q 723 1182 688 1274 q 835 1303 761 1229 q 854 1324 838 1306 l 949 1331 q 740 1146 804 1223 l 648 1088 q 555 1282 618 1193 z "},"":{"ha":627,"x_min":-5,"x_max":774,"o":"m 255 708 q 279 722 264 714 q 314 735 295 729 q 355 745 333 741 q 399 746 376 748 q 443 735 421 744 q 482 708 464 726 q 493 682 493 697 q 485 652 492 667 q 465 624 477 637 q 441 604 453 611 q 418 597 429 596 q 403 610 407 597 q 370 661 391 643 q 325 683 349 678 q 279 679 302 687 q 242 655 257 671 q 223 614 227 638 q 231 560 218 589 q 279 491 249 524 q 338 427 309 458 q 388 367 367 397 q 409 307 409 338 q 396 229 410 267 q 360 157 383 191 q 306 95 336 123 q 240 47 275 67 q 170 15 205 26 q 103 2 135 3 q 45 13 71 1 q 2 50 18 24 q 2 78 -5 61 q 23 109 9 94 q 51 131 36 123 q 76 135 66 140 q 106 117 88 129 q 145 96 124 106 q 191 81 167 85 q 240 84 216 77 q 289 115 265 92 q 335 184 313 138 q 335 231 346 207 q 300 279 323 254 q 247 331 277 304 q 191 385 217 357 q 148 442 165 412 q 132 504 130 471 q 145 574 134 543 q 173 629 156 605 q 211 673 189 654 q 255 708 232 692 m 379 1064 l 462 1113 q 547 964 513 1057 q 659 1085 585 1011 q 678 1106 662 1088 l 774 1113 q 564 928 628 1006 l 472 870 q 379 1064 442 975 z "},"":{"ha":334,"x_min":81,"x_max":427,"o":"m 81 -201 l 191 351 l 283 351 l 174 -201 l 81 -201 m 224 519 l 334 1071 l 427 1071 l 317 519 l 224 519 z "},"":{"ha":1350,"x_min":142,"x_max":1344,"o":"m 142 0 l 242 100 l 252 102 q 270 101 256 102 q 285 100 277 100 q 396 145 359 100 q 457 307 434 191 l 496 502 l 344 502 l 353 552 l 506 552 l 585 951 q 359 876 446 951 q 273 680 273 801 l 273 665 l 142 602 q 721 1004 177 1004 l 917 1004 q 1244 919 1143 1004 q 1344 644 1344 835 q 1130 158 1344 334 q 539 -17 916 -17 q 476 -15 524 -17 l 142 0 m 387 85 l 508 65 q 708 48 606 48 q 926 86 848 48 q 1070 227 1004 125 q 1187 625 1187 406 q 814 962 1187 962 l 730 962 l 648 552 l 849 552 l 839 502 l 638 502 l 626 442 q 549 228 598 300 q 387 85 500 155 z "},"":{"ha":845,"x_min":136,"x_max":949,"o":"m 663 726 q 656 754 659 745 q 610 882 640 813 l 359 753 l 371 813 l 589 926 q 441 1088 497 1088 q 340 1014 403 1088 l 307 1039 q 502 1188 410 1188 q 707 988 597 1188 l 949 1114 l 937 1048 l 730 943 q 816 542 816 741 q 676 150 816 317 q 347 -17 536 -17 q 196 50 255 -17 q 136 219 136 116 q 282 573 136 410 q 598 736 427 736 q 663 726 635 736 m 272 254 q 406 33 272 33 q 592 164 509 33 q 675 456 675 294 q 535 677 675 677 q 351 550 431 677 q 272 254 272 422 z "},"":{"ha":1137,"x_min":-13,"x_max":1198,"o":"m 1126 1014 q 1190 920 1181 986 q 1172 762 1198 854 q 1087 560 1145 670 q 953 335 1030 450 q 785 107 876 220 q 600 -103 694 -6 q 414 -274 506 -200 q 242 -387 322 -349 q 102 -420 163 -425 q 8 -353 41 -415 q -11 -275 -13 -313 q 9 -204 -9 -237 q 56 -144 26 -172 q 121 -97 86 -117 q 192 -66 156 -77 q 256 -53 227 -54 q 199 -90 222 -66 q 164 -140 176 -113 q 154 -194 153 -167 q 168 -241 155 -220 q 209 -271 182 -261 q 275 -275 235 -281 q 370 -242 315 -269 q 492 -163 424 -216 q 578 -77 531 -129 q 675 39 625 -25 q 653 126 671 80 q 610 224 635 173 q 558 330 585 275 q 508 443 530 385 q 473 561 486 500 q 465 683 460 621 q 496 806 470 744 q 577 929 522 868 q 536 931 561 929 q 483 936 512 933 q 422 939 454 938 q 359 938 391 940 q 297 929 327 936 q 243 909 267 922 q 211 876 225 899 q 188 823 196 852 q 181 760 180 793 q 194 697 182 726 q 230 645 205 667 q 296 615 255 623 q 295 605 302 614 q 274 586 288 597 q 239 565 259 576 q 199 546 219 553 q 163 537 180 538 q 139 543 147 535 q 90 618 104 581 q 76 693 75 656 q 90 765 76 730 q 125 831 103 800 q 177 891 148 863 q 237 942 205 919 q 322 994 279 975 q 405 1022 364 1013 q 486 1031 446 1031 q 562 1028 525 1032 q 632 1018 599 1025 q 695 1007 665 1012 q 615 897 641 952 q 582 786 589 841 q 585 676 575 731 q 613 567 595 621 q 654 460 631 513 q 698 356 677 408 q 733 255 719 304 q 747 157 747 205 l 747 131 q 838 267 793 196 q 922 408 883 337 q 992 547 961 479 q 1041 675 1023 615 q 1064 785 1060 736 q 1053 867 1067 834 q 1002 913 1038 900 q 905 916 966 926 q 1003 972 958 949 q 1041 992 1022 983 q 1078 1007 1061 1001 q 1107 1016 1095 1013 q 1126 1014 1120 1018 m 746 1088 l 768 1149 q 1032 1331 859 1225 l 988 1222 q 746 1088 819 1137 z "},"":{"ha":963,"x_min":-357,"x_max":867,"o":"m 591 765 q 646 696 632 747 q 652 572 661 645 q 615 410 644 500 q 540 224 586 321 q 434 31 494 128 q 303 -156 374 -67 q 153 -320 233 -245 q -10 -446 74 -395 q -180 -519 -94 -497 q -351 -523 -266 -541 q -356 -512 -357 -522 q -349 -490 -355 -503 q -332 -463 -342 -477 q -311 -438 -322 -449 q -287 -421 -299 -427 q -263 -418 -274 -415 q -143 -421 -203 -431 q -25 -386 -83 -412 q 87 -319 33 -360 q 193 -229 142 -279 q 287 -121 243 -178 q 369 -3 332 -63 q 334 42 353 7 q 296 125 315 76 q 256 232 277 174 q 216 351 236 291 q 177 468 196 412 q 139 570 157 525 q 106 643 121 614 q 77 673 90 671 q 36 669 56 675 q 1 656 16 664 q -35 635 -18 648 q 50 703 8 675 q 87 725 68 715 q 125 743 106 736 q 162 751 144 749 q 195 747 180 753 q 222 714 208 741 q 252 645 237 686 q 283 551 267 603 q 316 444 300 499 q 348 335 332 389 q 379 235 364 281 q 409 156 395 190 q 436 109 423 123 q 492 242 469 176 q 528 369 515 308 q 541 484 541 430 q 529 577 542 537 q 489 643 516 618 q 418 673 462 668 q 493 724 458 702 q 523 741 508 732 q 551 755 538 749 q 575 764 564 762 q 591 765 585 767 m 581 870 l 602 931 q 867 1113 693 1008 l 823 1004 q 581 870 653 920 z "},"":{"ha":926,"x_min":8,"x_max":987,"o":"m 8 0 l 109 100 l 122 100 l 151 100 q 270 157 230 100 q 342 369 311 214 l 450 895 l 267 895 l 366 1004 l 809 1004 l 704 895 l 592 895 l 578 828 q 896 786 806 828 q 987 638 987 744 q 915 449 987 540 q 736 321 843 358 q 505 293 652 293 l 530 334 q 746 422 652 334 q 840 623 840 509 q 590 787 840 787 l 571 787 l 494 413 q 271 89 452 205 l 531 83 l 438 -17 l 8 0 z "},"":{"ha":922,"x_min":-288,"x_max":944,"o":"m -288 -439 l -197 -342 q -53 -376 -128 -376 q 177 -90 119 -376 l 336 711 q 355 845 355 812 q 311 902 355 902 q 201 878 280 902 l 210 920 l 541 1029 l 490 810 l 401 368 l 413 368 q 598 646 490 539 q 800 753 705 753 q 944 574 944 753 q 779 177 944 364 q 428 -10 614 -10 q 351 -3 409 -10 q 328 0 344 -2 q 143 -335 275 -219 q -184 -452 11 -452 q -288 -439 -233 -452 m 347 96 q 517 58 432 58 q 713 214 640 58 q 801 546 801 399 q 738 652 801 652 q 571 530 680 652 q 378 250 462 408 l 347 96 z "},"":{"ha":878,"x_min":89,"x_max":948,"o":"m 89 91 l 465 403 l 214 716 l 269 770 l 522 451 l 900 770 l 948 708 l 571 393 l 823 81 l 766 33 l 512 344 l 140 33 l 89 91 z "},"":{"ha":561,"x_min":197,"x_max":557,"o":"m 540 1029 l 458 619 q 448 555 448 571 q 501 531 448 536 l 557 527 l 549 486 l 197 486 l 205 527 l 263 531 q 318 545 309 534 q 341 619 327 555 l 393 883 q 398 922 398 905 q 334 955 398 946 l 292 962 l 300 1004 l 540 1029 z "},"":{"ha":561,"x_min":176,"x_max":635,"o":"m 176 486 l 195 582 q 428 756 341 671 q 515 897 515 842 q 436 985 515 985 q 312 874 332 985 l 262 874 l 287 998 q 456 1029 376 1029 q 635 904 635 1029 q 588 794 635 836 q 279 581 542 751 l 572 581 l 553 486 l 176 486 z "},"":{"ha":561,"x_min":174,"x_max":624,"o":"m 174 513 l 243 584 q 394 524 317 524 q 462 553 433 524 q 491 623 491 583 q 325 731 491 731 q 283 728 304 731 l 312 808 q 345 810 330 810 q 439 800 389 810 q 515 905 515 835 q 427 985 515 985 q 322 887 344 985 l 272 887 l 294 996 q 456 1029 375 1029 q 624 926 624 1029 q 490 781 624 841 q 589 653 589 745 q 522 530 589 580 q 356 481 456 481 q 174 513 272 481 z "},"":{"ha":1188,"x_min":151,"x_max":1205,"o":"m 498 1029 l 416 619 q 407 555 407 570 q 459 531 407 536 l 515 527 l 507 486 l 155 486 l 163 527 l 221 531 q 276 545 267 534 q 299 619 286 555 l 351 883 q 356 922 356 905 q 292 955 356 946 l 250 962 l 258 1004 l 498 1029 m 151 -25 l 1112 1029 l 1205 1029 l 243 -25 l 151 -25 m 732 0 l 751 97 q 984 271 897 186 q 1072 411 1072 357 q 991 499 1072 499 q 868 389 888 499 l 818 389 l 842 512 q 1012 544 932 544 q 1191 418 1191 544 q 1144 308 1191 351 q 836 96 1097 266 l 1128 96 l 1109 0 l 732 0 z "},"":{"ha":1188,"x_min":168,"x_max":1222,"o":"m 515 1029 l 433 619 q 424 555 424 570 q 476 531 424 536 l 532 527 l 524 486 l 172 486 l 180 527 l 238 531 q 293 545 284 534 q 316 619 302 555 l 368 883 q 373 922 373 905 q 309 955 373 946 l 267 962 l 275 1004 l 515 1029 m 168 -25 l 1128 1029 l 1222 1029 l 260 -25 l 168 -25 m 924 155 l 689 171 l 704 245 l 1038 544 l 1102 544 l 1038 222 l 1142 216 l 1101 141 l 1023 147 q 1014 70 1014 96 q 1064 46 1014 50 l 1120 42 l 1112 0 l 772 0 l 781 42 l 834 46 q 896 60 882 50 q 916 110 910 71 q 924 155 919 126 m 939 230 l 977 420 l 774 240 l 939 230 z "},"":{"ha":1188,"x_min":163,"x_max":1222,"o":"m 163 513 l 232 584 q 383 524 307 524 q 451 553 422 524 q 480 623 480 583 q 314 731 480 731 q 272 728 294 731 l 301 808 q 334 810 319 810 q 429 800 378 810 q 505 905 505 835 q 416 985 505 985 q 311 887 333 985 l 261 887 l 283 996 q 445 1029 364 1029 q 613 926 613 1029 q 479 781 613 841 q 578 653 578 745 q 511 530 578 580 q 345 481 445 481 q 163 513 261 481 m 168 -25 l 1128 1029 l 1222 1029 l 260 -25 l 168 -25 m 924 155 l 689 171 l 704 245 l 1038 544 l 1102 544 l 1038 222 l 1142 216 l 1101 141 l 1023 147 q 1014 70 1014 96 q 1064 46 1014 50 l 1120 42 l 1112 0 l 772 0 l 781 42 l 834 46 q 897 60 883 50 q 916 110 910 71 q 924 155 919 126 m 939 230 l 977 420 l 774 240 l 939 230 z "},"":{"ha":435,"x_min":132,"x_max":470,"o":"m 132 368 l 161 469 l 470 469 l 441 368 l 132 368 z "},"":{"ha":878,"x_min":113,"x_max":960,"o":"m 724 304 l 828 174 l 793 144 l 689 275 q 475 201 581 201 q 292 275 371 201 l 136 144 l 113 174 l 269 304 q 229 443 229 374 q 348 700 229 577 l 244 831 l 279 860 l 383 730 q 597 803 491 803 q 780 730 701 803 l 936 860 l 960 831 l 803 700 q 844 562 844 629 q 724 304 844 429 m 770 545 q 718 680 770 627 q 584 732 665 732 q 388 648 473 732 q 302 457 302 564 q 355 324 302 376 q 489 272 408 272 q 684 356 598 272 q 770 545 770 439 z "}}}
